<svg width="725" height="535" viewBox="0 0 725 535" fill="none" xmlns="http://www.w3.org/2000/svg">
<path opacity="0.1" d="M446.497 459.695C415.388 433.281 375.037 434.99 339.678 448.735C304.318 462.48 271.837 486.943 237.385 504.335C208.503 518.915 178.194 528.489 147.516 532.748C103.607 538.843 54.5729 531.402 23.982 488.72C-10.0864 441.166 -7.46988 355.397 29.3629 311.773C48.1089 289.571 72.653 278.671 94.0558 261.313C115.459 243.955 135.281 215.186 133.458 181.721C131.77 150.772 112.149 126.975 91.8429 112.059C76.1506 100.534 56.8261 87.946 54.9361 64.0683C53.1065 40.971 69.3571 22.866 84.8745 12.5721C135.496 -21.0073 129.053 19.576 179.5 53.6802C197.486 65.8512 214.006 82.0388 232.873 91.5118C282.411 116.405 337.001 91.3503 389.459 82.1801C433.852 74.4227 548.204 38.1856 591.46 53.6802C617.437 62.9851 643.515 77.2282 661.763 103.71C674.926 122.817 683.125 147.004 690.82 170.889C699.026 196.352 706.916 221.999 714.49 247.83C719.03 263.338 723.503 279.142 724.68 295.727C726.806 325.788 717.846 355.505 705.645 380.87C676.675 441.106 627.883 483.458 575.042 494.216C522.2 504.974 466.299 483.963 425.316 437.984" fill="#F09A24"/>
</svg>
