<svg width="339" height="219" viewBox="0 0 339 219" fill="none" xmlns="http://www.w3.org/2000/svg">
<g clip-path="url(#clip0)">
<path d="M135.703 137.879C137.844 138.153 140.066 138.328 142.117 137.663C142.44 137.563 142.795 137.34 142.763 137.017C142.74 136.9 142.69 136.79 142.618 136.695C141.845 135.536 141.195 134.3 140.68 133.006C140.66 132.938 140.618 132.879 140.56 132.838C140.494 132.814 140.421 132.814 140.354 132.838C139.407 133.087 138.59 133.697 137.65 133.958C137.171 134.089 136.671 134.127 136.178 134.068C135.751 134.019 135.17 133.667 134.782 133.713C135.002 135.123 135.538 136.44 135.703 137.879Z" fill="#45508C"/>
<path d="M176.202 134.307C177.613 133.338 179.077 132.322 179.91 130.828C179.969 130.738 180.004 130.635 180.01 130.527C179.996 130.422 179.955 130.322 179.89 130.237C179.097 128.976 178.075 127.874 176.877 126.987C176.252 127.428 175.687 127.949 175.197 128.536C174.842 128.911 173.86 129.504 173.851 130.076C173.851 130.398 174.225 130.773 174.4 131.044C174.635 131.392 174.858 131.747 175.071 132.109C175.194 132.286 176.315 134.236 176.202 134.307Z" fill="#45508C"/>
<path d="M144.097 142.2C144.122 142.533 144.031 142.864 143.839 143.136C143.688 143.288 143.501 143.399 143.296 143.459C140.302 144.53 136.836 143.194 133.849 144.25C133.235 144.466 132.654 144.779 132.037 144.986C131.301 145.206 130.543 145.341 129.776 145.386C128.72 145.486 127.657 145.55 126.598 145.579C125.793 145.636 124.984 145.566 124.201 145.37C123.81 145.269 123.444 145.088 123.127 144.837C122.811 144.587 122.55 144.272 122.363 143.914C122.201 143.593 122.169 143.222 122.273 142.878C122.32 142.76 122.386 142.651 122.47 142.555C122.672 142.328 122.91 142.136 123.174 141.984L124.276 141.274C124.792 140.909 125.353 140.612 125.945 140.39C126.381 140.248 126.843 140.187 127.286 140.067C128.833 139.615 130.015 138.389 131.113 137.211L132.612 135.614C132.752 135.438 132.93 135.296 133.132 135.197C133.34 135.128 133.561 135.107 133.778 135.136C135.234 135.24 136.639 135.711 137.864 136.504C138.176 136.739 138.514 136.938 138.871 137.098C139.75 137.44 140.877 137.182 141.688 136.75C142.072 136.543 141.988 136.427 142.15 136.059C142.311 135.691 142.705 135.455 143.047 135.791C143.151 135.907 143.224 136.047 143.261 136.198C143.584 137.263 143.461 138.408 143.461 139.525C143.451 139.7 143.473 139.874 143.526 140.041C143.608 140.21 143.706 140.37 143.819 140.519C143.842 140.559 143.863 140.6 143.881 140.642C144.078 141.136 144.153 141.671 144.097 142.2Z" fill="#514E7F"/>
<path d="M144.097 142.2C144.122 142.533 144.031 142.864 143.839 143.136C143.688 143.288 143.501 143.399 143.296 143.459C140.302 144.531 136.836 143.194 133.849 144.25C133.235 144.466 132.654 144.779 132.037 144.986C131.301 145.206 130.543 145.341 129.776 145.386C128.72 145.486 127.657 145.55 126.598 145.579C125.793 145.636 124.984 145.566 124.201 145.37C123.81 145.269 123.444 145.088 123.127 144.837C122.811 144.587 122.55 144.272 122.363 143.914C122.201 143.593 122.169 143.222 122.273 142.878C122.32 142.76 122.386 142.651 122.47 142.555C122.644 142.92 122.77 143.404 122.88 143.578C123.029 143.837 123.23 144.06 123.472 144.235C123.714 144.409 123.99 144.529 124.282 144.589C124.719 144.615 125.157 144.56 125.574 144.424C128.287 143.753 131.171 143.743 133.778 142.726C134.672 142.375 135.525 141.907 136.465 141.694C137.405 141.481 138.403 141.539 139.372 141.458C140.903 141.336 142.385 140.874 143.894 140.632C144.088 141.13 144.158 141.669 144.097 142.2Z" fill="#464353"/>
<path d="M183.059 134.11C182.917 135.246 182.197 136.223 181.405 137.053C180.614 137.882 179.719 138.628 179.089 139.583C178.314 140.767 177.965 142.236 176.958 143.236C176.571 143.6 176.136 143.91 175.666 144.156C175.139 144.467 174.581 144.723 174.002 144.921C172.497 145.402 170.876 145.292 169.303 145.176C168.792 145.171 168.287 145.074 167.811 144.889C167.594 144.779 167.387 144.651 167.191 144.508C166.796 144.265 166.464 143.934 166.222 143.54C166.102 143.325 166.069 143.074 166.128 142.836C166.218 142.574 166.372 142.339 166.577 142.152C166.931 141.784 167.311 141.442 167.714 141.129C168.267 140.772 168.765 140.338 169.193 139.838C169.456 139.443 169.649 139.007 169.765 138.547C169.994 137.742 170.133 136.914 170.181 136.078C170.18 135.523 170.237 134.969 170.353 134.426C170.592 133.574 171.225 132.812 171.154 131.931C171.125 131.805 171.136 131.673 171.186 131.554C171.261 131.46 171.366 131.395 171.483 131.37C171.977 131.173 172.497 131.052 173.027 131.011C173.293 130.993 173.559 131.034 173.807 131.131C174.055 131.228 174.279 131.379 174.461 131.573C174.681 131.838 174.826 132.218 175.149 132.322C175.309 132.365 175.477 132.372 175.64 132.341C176.434 132.26 177.274 132.16 177.901 131.647C178.19 131.388 178.423 131.071 178.584 130.717C178.746 130.363 178.832 129.98 178.837 129.591C178.837 129.298 178.705 128.991 179.16 128.946C179.503 128.901 179.774 129.269 179.949 129.495C180.578 130.337 181.224 131.218 181.46 132.244C181.552 132.209 181.649 132.19 181.748 132.189C181.949 132.188 182.148 132.234 182.327 132.326C182.507 132.418 182.661 132.551 182.778 132.715C183.035 133.132 183.135 133.626 183.059 134.11Z" fill="#514E7F"/>
<path d="M183.059 134.11C182.917 135.246 182.197 136.223 181.405 137.053C180.614 137.882 179.719 138.628 179.089 139.583C178.314 140.767 177.965 142.236 176.958 143.236C176.571 143.6 176.136 143.91 175.666 144.156C175.139 144.467 174.581 144.723 174.002 144.921C172.497 145.402 170.876 145.292 169.303 145.176C168.792 145.171 168.287 145.074 167.811 144.889C167.594 144.779 167.387 144.651 167.191 144.508C166.796 144.265 166.464 143.934 166.222 143.54C166.524 143.394 166.855 143.315 167.191 143.307C167.888 143.346 168.399 144.004 169.067 144.208C170.02 144.495 170.97 143.824 171.935 143.595C172.565 143.446 173.227 143.485 173.851 143.272C174.37 143.071 174.85 142.781 175.269 142.413C175.842 142.004 176.352 141.512 176.783 140.955C177.141 140.397 177.439 139.803 177.672 139.183C178.182 137.994 178.782 136.846 179.467 135.749C179.569 135.575 179.691 135.415 179.832 135.271C179.984 135.133 180.155 135.036 180.326 134.913C180.972 134.426 181.241 133.622 181.467 132.835C181.528 132.595 181.613 132.363 181.722 132.141C181.923 132.139 182.122 132.186 182.302 132.278C182.481 132.369 182.636 132.503 182.752 132.667C183.03 133.093 183.139 133.607 183.059 134.11Z" fill="#464353"/>
<path d="M115.332 33.4895C116.136 34.0914 116.797 34.8627 117.27 35.7486C117.722 36.6329 120.329 43.4941 120.177 44.4913C121.026 43.6361 124.376 43.4973 125.235 42.6421C125.593 42.2838 127.528 40.4959 127.819 40.0796C128.109 39.6633 130.267 38.7887 130.503 38.3498C131.384 36.7716 124.25 30.7915 125.164 29.2327C125.214 29.1611 125.24 29.0751 125.238 28.9874C125.217 28.9139 125.176 28.8478 125.118 28.797C124.534 28.2 123.759 27.8289 123.055 27.3867C122.35 26.9446 121.672 26.3282 121.482 25.5149C120.81 25.8237 120.194 26.2402 119.657 26.7477C118.348 27.8687 117.061 29.0122 115.797 30.1783C115.303 30.6366 114.347 31.2465 114.118 31.9017C113.846 32.6052 114.86 33.1055 115.332 33.4895Z" fill="#A1616A"/>
<path d="M126.882 30.9496C125.787 31.6846 124.764 32.5209 123.826 33.4475C122.941 34.3221 122.102 35.3355 121.889 36.5586C121.798 37.0395 121.811 37.5268 121.737 38.0141C121.414 40.128 119.586 41.6771 118.778 43.6554C118.544 44.266 118.372 44.8985 118.265 45.5433C118.038 46.7658 117.913 48.0051 117.893 49.2483C117.874 50.452 119.056 51.2814 119.489 52.4045C119.922 53.5276 120.038 54.683 120.257 55.8351C120.671 58.0103 121.43 60.1081 122.195 62.1929C123.788 66.5884 128.949 78.7391 130.541 83.1379C135.422 81.9148 148.412 79.1038 152.734 76.5252C154.174 75.6668 142.737 65.9817 144.278 65.3137C144.366 65.3 144.45 65.266 144.522 65.2144C144.595 65.1629 144.655 65.0951 144.697 65.0166C144.739 64.938 144.762 64.8508 144.764 64.7617C144.767 64.6727 144.748 64.5844 144.711 64.5036C143.17 57.7715 138.351 52.2399 136.165 45.6853C135.406 43.4101 134.042 41.4673 133.009 39.305C132.072 37.3461 131.572 35.1805 130.451 33.3184C130.24 32.9348 129.963 32.5908 129.634 32.3018C129.354 32.0877 129.052 31.9048 128.733 31.7564C128.093 31.4466 127.499 31.2626 126.882 30.9496Z" fill="#1B64AA"/>
<path d="M115.59 32.7246C119.809 32.7246 123.229 29.3074 123.229 25.0921C123.229 20.8768 119.809 17.4596 115.59 17.4596C111.372 17.4596 107.952 20.8768 107.952 25.0921C107.952 29.3074 111.372 32.7246 115.59 32.7246Z" fill="#A1616A"/>
<path d="M123.361 28.6776C123.742 28.3268 124.22 28.0995 124.733 28.0258C125.246 27.952 125.769 28.0353 126.233 28.2646C126.75 28.5324 127.202 29.0746 127.085 29.6426L130.874 29.7007C131.477 29.6842 132.08 29.7395 132.67 29.8653C133.264 29.9945 133.794 30.3266 134.169 30.8044C134.214 30.8657 134.265 30.94 134.343 30.9497C134.406 30.9506 134.468 30.9301 134.517 30.8916C135.1 30.5995 135.757 30.4872 136.404 30.5688C138.451 30.7012 140.344 31.7242 141.949 33.0022C142.239 33.201 142.463 33.4805 142.595 33.8058C142.728 34.235 142.569 34.774 142.918 35.0806C142.918 38.6306 144.139 41.9482 144.953 45.4079C145.098 46.0243 145.69 46.5697 146.1 47.0538C146.607 47.5905 147.02 48.2078 147.324 48.8804C148.015 50.6748 147.062 52.7854 147.734 54.5863C148.018 55.3479 148.567 55.974 149.026 56.6356C149.631 57.3995 150.013 58.3152 150.131 59.2819C150.16 59.7144 150.105 60.1501 150.131 60.5729C150.174 61.1543 150.282 61.7292 150.454 62.2865C150.729 63.3279 151.018 64.3681 151.319 65.4073C151.81 67.0855 152.45 68.896 153.955 69.79C150.321 70.4064 146.491 71.0099 143.028 69.748C142.545 69.5834 142.087 69.3543 141.665 69.0671C140.415 68.1763 139.811 66.653 139.272 65.2137C138.671 63.6 138.061 61.9574 137.938 60.2405C137.939 59.6944 137.862 59.151 137.709 58.6268C137.356 57.6909 136.417 57.1261 135.564 56.6065C134.601 56.0793 133.729 55.4017 132.98 54.5992C132.608 54.195 132.324 53.7189 132.144 53.2004C131.964 52.682 131.892 52.1321 131.934 51.5849C131.998 51.0524 132.208 50.5392 132.227 50.0035C132.247 49.4678 132.008 48.8546 131.494 48.7126C128.849 47.9122 127.586 44.7818 126.998 42.0838C126.745 40.6893 126.631 39.273 126.659 37.856L126.624 35.1032C126.259 34.7713 125.965 34.3687 125.761 33.9199C125.556 33.471 125.445 32.9853 125.435 32.4923C125.47 32.2047 125.465 31.9135 125.419 31.6274C125.291 31.2776 125.083 30.9626 124.812 30.7076C124.228 30.1087 123.739 29.4241 123.361 28.6776Z" fill="#464353"/>
<path d="M115.225 37.4041C115.138 38.2561 115.332 39.1307 115.141 39.9666C115.067 40.2893 114.938 40.6121 114.844 40.9122C114.558 42.1153 114.682 43.3794 115.196 44.5042C115.71 45.6178 116.325 46.6819 117.034 47.683C117.274 48.0248 117.471 48.3943 117.622 48.7835C117.744 49.1922 117.82 49.6133 117.848 50.0389C118.035 51.748 118.335 53.4428 118.746 55.1122C119.108 56.5581 123.216 68.9185 124.172 70.0642C124.346 70.3179 124.609 70.4966 124.908 70.5644C125.125 70.5726 125.34 70.5283 125.535 70.4354L127.473 69.6931C127.638 69.6427 127.791 69.5592 127.922 69.4478C128.104 69.2358 128.202 68.9652 128.2 68.6862C128.339 67.1113 124.221 54.6636 123.697 53.1759C122.115 48.6835 120.009 44.3525 118.978 39.702C118.691 38.4111 118.539 36.423 117.593 35.3935C117.202 34.9675 117.334 35.1483 116.866 35.371C116.629 35.4736 116.401 35.5933 116.181 35.7292C115.907 35.9196 115.679 36.1688 115.514 36.4586C115.348 36.7484 115.25 37.0714 115.225 37.4041Z" fill="#464353"/>
<path d="M121.107 45.9275C121.627 48.6739 122.163 51.4139 122.696 54.1603L130.28 52.1755C130.341 51.3816 129.918 50.6458 129.634 49.9164C128.943 48.1834 128.927 46.2535 128.368 44.472C127.945 43.1166 127.208 41.8708 126.811 40.5057C126.582 39.7118 126.465 38.892 126.239 38.0885C125.997 37.2993 125.699 36.5282 125.348 35.781C124.922 34.6972 124.367 33.6688 123.694 32.7183C122.725 33.0797 121.692 33.4993 121.139 34.3739C120.856 34.8667 120.694 35.4198 120.668 35.9875C120.535 37.6883 121.152 39.3987 120.949 41.0898C120.739 42.7003 120.793 44.3341 121.107 45.9275Z" fill="#1B64AA"/>
<path d="M130.406 82.4602C130.832 84.0739 130.215 85.7714 129.711 87.3689C128.953 89.7752 128.435 92.2509 128.167 94.7594C128.135 95.3978 128.006 96.0277 127.786 96.628C127.547 97.167 127.14 97.622 126.863 98.1351C126.1 99.4841 126.12 101.13 126.284 102.673C126.394 103.689 126.559 104.703 126.762 105.703C127.011 106.926 127.318 108.204 126.959 109.398C127.56 109.266 127.967 110.044 127.928 110.654C127.89 111.264 127.693 111.945 127.987 112.471C128.729 112.742 128.736 113.762 128.713 114.552C128.726 115.923 128.899 117.288 129.23 118.619C130.354 124.019 131.547 129.404 132.809 134.774C135.538 135.62 138.726 136.501 141.329 135.33C141.814 135.113 142.298 134.768 142.408 134.245C142.436 133.963 142.401 133.679 142.304 133.413L141.071 128.927C140.77 127.842 140.47 126.722 140.628 125.609C140.748 124.78 141.109 123.886 140.702 123.153C140.564 122.901 140.344 122.704 140.182 122.466C139.537 121.52 139.876 120.255 139.927 119.109C139.947 118.852 139.93 118.593 139.876 118.341C139.787 118.047 139.664 117.764 139.507 117.499C138.488 115.521 137.998 113.313 138.086 111.089C138.125 110.806 138.086 110.517 137.973 110.254C137.895 110.145 137.825 110.031 137.763 109.911C137.715 109.704 137.739 109.487 137.831 109.295C137.461 109.014 137.127 108.689 136.836 108.327C137.015 108.216 137.167 108.065 137.279 107.887C137.392 107.708 137.462 107.507 137.485 107.297C137.508 107.088 137.483 106.876 137.412 106.677C137.341 106.479 137.226 106.299 137.075 106.152C137.207 106.125 137.329 106.063 137.427 105.971C137.526 105.88 137.597 105.763 137.632 105.633C137.668 105.504 137.667 105.367 137.63 105.238C137.593 105.109 137.52 104.993 137.421 104.903C137.263 104.793 137.053 104.745 136.94 104.58C136.765 104.341 136.907 104.009 137.05 103.754L137.802 102.395C138.364 101.385 138.49 100.136 139.094 99.1679C139.96 97.7575 140.525 96.1859 141.084 94.6303L143.257 88.6373L144.72 89.9056C145.208 90.2776 145.616 90.7427 145.922 91.2739C146.13 91.7989 146.262 92.3511 146.313 92.9134C146.849 96.1665 148.897 98.9871 149.656 102.192C149.824 102.905 149.937 103.654 150.347 104.264C150.494 104.451 150.625 104.65 150.741 104.858C150.848 105.175 150.903 105.507 150.906 105.842C150.973 106.497 151.181 107.131 151.516 107.699C151.85 108.267 152.303 108.756 152.844 109.134C153.564 109.627 154.458 109.966 154.849 110.747C154.927 110.989 155.036 111.22 155.172 111.435C155.521 111.854 156.274 111.903 156.422 112.429C156.506 112.722 156.351 113.074 156.516 113.332C156.61 113.452 156.733 113.544 156.874 113.6L158.977 114.649C161.328 115.824 162.53 118.522 164.264 120.487C164.863 121.127 165.394 121.828 165.847 122.579C166.596 123.918 166.942 125.599 168.208 126.451C168.548 126.628 168.858 126.858 169.125 127.132C169.523 127.655 169.377 128.388 169.413 129.046C169.448 129.704 169.952 130.489 170.579 130.289C170.359 131.086 170.359 131.928 170.579 132.725C173.33 132.584 175.953 131.522 178.027 129.711C178.64 129.175 179.232 128.491 179.238 127.678C179.247 127.537 179.216 127.397 179.148 127.274C179.023 127.115 178.86 126.992 178.673 126.916C176.706 125.851 176.115 123.382 175.12 121.378C174.251 119.609 172.966 118.086 171.89 116.444C169.552 112.91 167.956 108.633 164.419 106.3C163.641 105.787 162.737 105.332 162.346 104.483C162.129 104.009 162.104 103.467 161.932 102.976C161.761 102.486 161.351 102.008 160.828 102.008C161.118 101.298 161.06 100.433 161.08 99.6649C161.1 99.324 161.06 98.9822 160.963 98.6547C160.829 98.3024 160.655 97.9667 160.443 97.6543C159.521 96.0932 159.059 94.3029 159.113 92.4906C159.139 91.5579 159.303 90.5962 159.022 89.7055C158.88 89.2569 158.631 88.847 158.46 88.4146C158.202 87.631 158.066 86.8125 158.057 85.9877L157.863 82.8862C157.833 81.8534 157.699 80.8261 157.462 79.8203C156.816 77.4128 156.17 67.3275 153.958 66.1915C151.745 65.0555 147.944 72.8171 145.454 72.9688C144.352 73.0146 143.263 73.2246 142.224 73.5917C140.567 74.2113 139.178 75.3667 137.825 76.4962L133.245 80.3399C132.276 81.1371 131.475 81.8987 130.406 82.4602Z" fill="#464353"/>
<path d="M108.423 16.6173C109.431 15.2425 111.162 14.5131 112.868 14.4518C114.573 14.3905 116.252 14.9262 117.78 15.6846C118.231 15.9408 118.713 16.1382 119.214 16.272C120.022 16.4366 120.92 16.2171 121.65 16.5947C122.619 17.1078 122.806 18.4149 122.722 19.4993C122.638 20.5836 122.434 21.7874 123.013 22.7265C123.218 22.9944 123.404 23.2758 123.571 23.5689C123.82 24.1272 123.675 24.7726 123.526 25.3632C123.148 25.0405 122.935 24.5532 122.599 24.1788C122.263 23.8045 121.679 23.5527 121.262 23.8335C120.845 24.1143 120.852 24.6242 120.829 25.0825C120.807 25.5407 120.69 26.0894 120.258 26.2378C120.077 26.2789 119.888 26.2649 119.715 26.1976C119.542 26.1303 119.394 26.0128 119.289 25.8602C118.549 24.9566 118.846 23.514 118.113 22.6039C117.696 22.0875 117.002 21.8358 116.617 21.2936C116.314 20.8676 116.236 20.3254 115.971 19.8672C115.707 19.4089 115.09 19.0733 114.68 19.3895C114.54 19.5232 114.423 19.6791 114.334 19.851C114.078 20.2171 113.706 20.4863 113.278 20.6152C112.851 20.744 112.392 20.7249 111.976 20.561C111.659 20.3662 111.315 20.2174 110.956 20.1189C110.72 20.1071 110.486 20.1613 110.28 20.2754C110.074 20.3895 109.904 20.5588 109.79 20.7644C109.558 21.175 109.446 21.6424 109.467 22.1134C109.467 22.7588 109.583 23.4462 109.215 23.9626C109.075 24.157 108.899 24.3234 108.698 24.4531C108.158 24.7985 107.406 25.0308 106.908 24.6371C106.74 24.4802 106.614 24.2826 106.544 24.0633C106.474 23.844 106.462 23.6104 106.508 23.3849C106.605 22.9357 106.732 22.4936 106.889 22.0617C107.173 21.0613 106.802 19.9349 107.112 18.9926C107.437 18.1439 107.878 17.3445 108.423 16.6173Z" fill="#464353"/>
<path d="M112.516 39.3857C112.467 39.6209 112.492 39.8653 112.587 40.086C112.683 40.2363 112.813 40.3614 112.968 40.4507C114.054 41.1268 115.289 41.5268 116.566 41.6158C116.739 41.6188 116.91 41.663 117.063 41.7449C117.367 41.945 117.386 42.3903 117.273 42.7453C117.122 43.0802 117.044 43.4431 117.044 43.8103C117.137 44.4848 117.938 44.7785 118.614 44.8786C119.56 44.998 120.597 44.9366 121.346 44.346C121.854 43.8835 122.241 43.3041 122.473 42.6582C124.327 38.4014 124.976 33.696 126.853 29.4521C126.995 29.175 127.09 28.8762 127.134 28.5679C127.154 28.4135 127.132 28.2567 127.07 28.1137C127.009 27.9707 126.911 27.8467 126.785 27.7546C126.436 27.5384 125.894 27.661 125.658 27.3221C125.542 27.1511 125.554 26.9187 125.451 26.738C125.235 26.354 124.666 26.4153 124.279 26.1926C123.975 26.0312 123.765 25.6988 123.426 25.6343C123.26 25.6249 123.093 25.6544 122.94 25.7205C122.787 25.7866 122.651 25.8875 122.544 26.0151C121.443 27.0414 120.865 28.4969 120.251 29.8717C119.314 31.9791 118.217 34.0117 116.97 35.9519C117.115 35.726 116.272 34.0155 115.942 33.9413C115.364 33.8251 114.625 34.8385 114.311 35.2161C113.328 36.4071 112.705 37.8535 112.516 39.3857Z" fill="#1B64AA"/>
<path opacity="0.1" d="M124.25 26.4927C124.018 26.4965 123.789 26.5525 123.582 26.6564C123.375 26.7603 123.193 26.9095 123.051 27.0929C122.706 27.5415 122.638 28.1354 122.551 28.7066C122.257 30.5163 121.61 32.2509 120.648 33.8121" fill="black"/>
<path opacity="0.1" d="M125.897 27.7804C125.577 27.7875 125.264 27.8779 124.989 28.0425C124.714 28.2072 124.487 28.4405 124.33 28.7195C124.117 29.2272 123.984 29.7651 123.936 30.3138C123.659 31.5303 123.125 32.6736 122.37 33.667" fill="black"/>
<path d="M202.658 90.8738V86.8655C202.657 83.9148 201.483 81.0853 199.395 78.9992C197.306 76.913 194.474 75.7411 191.521 75.7411H33.0996C30.1465 75.7411 27.3144 76.913 25.226 78.9992C23.1376 81.0853 21.9639 83.9148 21.963 86.8655V94.256L202.658 90.8738Z" fill="#33323D"/>
<path d="M77.1711 71.0421C77.1711 71.0421 76.7189 99.0743 81.6929 108.298C86.6669 117.521 88.7986 157.646 88.7986 157.646C88.7986 157.646 140.942 163.036 177.277 151.192C213.613 139.348 290.93 134.503 290.93 134.503L277.901 46.7569C277.901 46.7569 213.533 42.6324 176.916 60.0823C140.299 77.5322 77.1711 71.0421 77.1711 71.0421Z" fill="#8DD070"/>
<path opacity="0.1" d="M77.1711 71.0421C77.1711 71.0421 76.7189 99.0743 81.6929 108.298C86.6669 117.521 88.7986 157.646 88.7986 157.646C88.7986 157.646 140.942 163.036 177.277 151.192C213.613 139.348 290.93 134.503 290.93 134.503L277.901 46.7569C277.901 46.7569 213.533 42.6324 176.916 60.0823C140.299 77.5322 77.1711 71.0421 77.1711 71.0421Z" fill="black"/>
<path d="M88.7114 81.2823C88.7114 81.2823 87.0803 104.412 91.1726 111.803C95.2648 119.193 95.4554 152.186 95.4554 152.186C95.4554 152.186 142.382 154.361 175.763 143.007C209.143 131.654 279.289 124.289 279.289 124.289L271.318 52.5305C271.318 52.5305 213.278 51.9334 179.403 67.9149C145.528 83.8964 88.7114 81.2823 88.7114 81.2823Z" fill="#8DD070"/>
<path opacity="0.1" d="M178.887 129.869C185.564 129.038 189.531 116.765 187.747 102.456C185.964 88.1469 179.105 77.2209 172.428 78.0519C165.751 78.8829 161.784 91.1561 163.568 105.465C165.352 119.774 172.21 130.7 178.887 129.869Z" fill="black"/>
<path opacity="0.2" d="M242.611 4.0116C242.611 4.0116 180.078 19.8253 150.589 47.6606C121.101 75.4958 59.0226 88.676 59.0226 88.676C59.0226 88.676 67.2006 115.492 74.7649 122.746C82.3293 130.001 96.6763 167.541 96.6763 167.541C96.6763 167.541 147.957 156.678 178.899 134.255C209.841 111.832 281.954 83.5124 281.954 83.5124L242.611 4.0116Z" fill="black"/>
<path d="M58.0826 84.6612C58.0826 84.6612 66.2574 111.48 73.8153 118.735C81.3732 125.99 95.7267 163.526 95.7267 163.526C95.7267 163.526 147.014 152.666 177.959 130.243C208.904 107.82 281.011 79.5105 281.011 79.5105L241.668 0C241.668 0 179.138 15.8137 149.649 43.649C120.161 71.4842 58.0826 84.6612 58.0826 84.6612Z" fill="#8DD070"/>
<path opacity="0.1" d="M58.0826 84.6612C58.0826 84.6612 66.2574 111.48 73.8153 118.735C81.3732 125.99 95.7267 163.526 95.7267 163.526C95.7267 163.526 147.014 152.666 177.959 130.243C208.904 107.82 281.011 79.5105 281.011 79.5105L241.668 0C241.668 0 179.138 15.8137 149.649 43.649C120.161 71.4842 58.0826 84.6612 58.0826 84.6612Z" fill="black"/>
<path d="M72.2004 90.8705C72.2004 90.8705 77.7526 113.387 83.9184 119.164C90.0842 124.941 100.391 156.278 100.391 156.278C100.391 156.278 145.719 143.956 174.003 122.914C202.286 101.872 266.793 73.3851 266.793 73.3851L237.172 7.50989C237.172 7.50989 181.751 24.7339 154.417 50.3327C127.082 75.9314 72.2004 90.8705 72.2004 90.8705Z" fill="#8DD070"/>
<path opacity="0.1" d="M172.957 109.462C179.056 106.624 179.063 93.7268 172.971 80.6552C166.879 67.5835 156.995 59.2876 150.896 62.1258C144.796 64.9639 144.79 77.8613 150.882 90.9329C156.974 104.005 166.857 112.3 172.957 109.462Z" fill="black"/>
<path opacity="0.1" d="M206.934 94.8079V206.149C206.934 207.414 206.685 208.666 206.2 209.834C205.716 211.002 205.006 212.063 204.111 212.957C203.216 213.851 202.154 214.561 200.984 215.044C199.815 215.528 198.562 215.776 197.296 215.776H31.6042C29.0495 215.775 26.5997 214.76 24.7936 212.955C22.9874 211.15 21.9728 208.702 21.9728 206.149V83.5834C26.7207 85.3455 26.7207 85.3455 31.6042 85.197H197.296C199.849 85.197 202.298 86.209 204.104 88.0108C205.911 89.8126 206.929 92.2571 206.934 94.8079Z" fill="black"/>
<path d="M206.934 96.2245V207.566C206.933 210.119 205.917 212.568 204.11 214.373C202.303 216.178 199.852 217.193 197.296 217.193H31.6042C29.0495 217.192 26.5997 216.177 24.7936 214.372C22.9874 212.567 21.9728 210.118 21.9728 207.566V84.9968C26.7207 86.7557 26.7207 86.7557 31.6042 86.6105H197.296C199.85 86.6105 202.299 87.6228 204.106 89.4254C205.913 91.2279 206.93 93.6732 206.934 96.2245Z" fill="#504F60"/>
<path opacity="0.1" d="M206.463 137.389V172.995H171.903C167.219 172.932 162.748 171.029 159.458 167.697C156.168 164.365 154.324 159.872 154.324 155.192C154.324 150.511 156.168 146.019 159.458 142.687C162.748 139.355 167.219 137.452 171.903 137.389H206.463Z" fill="black"/>
<path d="M206.934 136.44V172.053H172.375C167.691 171.99 163.22 170.086 159.93 166.754C156.64 163.422 154.795 158.93 154.795 154.249C154.795 149.569 156.64 145.076 159.93 141.745C163.22 138.413 167.691 136.509 172.375 136.446L206.934 136.44Z" fill="#33323D"/>
<path opacity="0.1" d="M174.032 162.135C177.869 162.135 180.979 159.027 180.979 155.193C180.979 151.359 177.869 148.251 174.032 148.251C170.195 148.251 167.084 151.359 167.084 155.193C167.084 159.027 170.195 162.135 174.032 162.135Z" fill="black"/>
<path d="M174.503 161.193C178.34 161.193 181.451 158.085 181.451 154.251C181.451 150.417 178.34 147.309 174.503 147.309C170.666 147.309 167.556 150.417 167.556 154.251C167.556 158.085 170.666 161.193 174.503 161.193Z" fill="#1B64AA"/>
<path d="M152.837 65.6558C152.207 66.2156 151.625 66.8265 151.096 67.4825C150.564 68.1475 150.281 68.9773 150.295 69.8287C150.298 70.0756 150.377 70.3157 150.521 70.5161C150.595 70.612 150.697 70.6826 150.813 70.7179C150.929 70.7532 151.052 70.7515 151.167 70.713C151.297 70.6469 151.408 70.5492 151.49 70.429C151.832 70.0191 152.194 69.627 152.575 69.2542C152.714 69.1155 152.898 68.9702 153.086 69.0219C153.17 69.0517 153.245 69.1015 153.305 69.1671C153.523 69.3548 153.681 69.6014 153.761 69.8771C153.874 70.3709 153.586 70.8647 153.26 71.2519C152.934 71.6392 152.55 72.0103 152.417 72.4977C152.367 72.6264 152.367 72.7691 152.417 72.8978C152.48 72.9909 152.567 73.0647 152.669 73.1108C153.132 73.3653 153.645 73.5151 154.171 73.5497C154.698 73.5842 155.226 73.5028 155.718 73.3109C156.364 73.0495 156.939 72.6009 157.604 72.3686C157.893 72.2898 158.172 72.1817 158.438 72.0458C158.628 71.9193 158.791 71.7563 158.918 71.5663C159.045 71.3763 159.133 71.1631 159.177 70.9389C159.261 70.4909 159.278 70.033 159.226 69.5802C159.145 67.827 158.77 66.0999 158.115 64.4714C158.077 64.3664 158.012 64.273 157.927 64.2003C157.83 64.1411 157.718 64.1109 157.604 64.1132C156.778 64.0261 155.421 63.6033 154.623 63.9099C154.344 64.0627 154.103 64.2768 153.919 64.536C153.771 64.7006 152.837 65.4396 152.837 65.6558Z" fill="#A1616A"/>
<path d="M152.576 64.9264C152.576 64.1389 151.607 62.2381 153.147 62.1122C153.147 61.2699 151.955 60.7471 152.178 59.8531C152.249 59.5562 152.501 59.3141 152.53 59.0108C152.627 58.1491 151.07 57.6811 151.329 56.855C151.426 56.5322 151.768 56.345 151.842 56.0255C152.017 55.28 150.683 54.9476 150.657 54.1828C150.657 53.9246 150.802 53.6825 150.789 53.4244C150.789 53.1016 150.508 52.8564 150.353 52.5756C149.95 51.8559 150.147 50.7425 149.41 50.3714C149.898 50.4133 150.056 49.6904 149.856 49.2483C149.656 48.8061 149.246 48.4221 149.242 47.9315C149.267 47.7538 149.267 47.5736 149.242 47.3958C149.107 46.9246 148.335 46.8859 148.206 46.4276C148.189 46.2517 148.183 46.0749 148.189 45.8983C148.138 45.5337 147.763 45.3013 147.411 45.198C147.045 45.136 146.693 45.0104 146.371 44.8269C146.145 44.6558 145.883 44.3718 145.641 44.5042C145.551 44.559 145.505 44.6623 145.438 44.7397C145.147 45.0786 144.591 44.9302 144.226 44.6817C143.148 43.9491 142.611 42.6356 142.382 41.3543C142.153 40.0731 142.159 38.7499 141.872 37.4816C141.784 37.0863 141.668 36.698 141.523 36.3198C141.4 35.9971 141.006 35.4904 140.98 35.1644C140.922 34.4221 142.46 34.9288 143.044 35.0031C143.612 35.0584 144.173 35.1665 144.721 35.3258C145.305 35.5464 145.877 35.7974 146.436 36.0777C148.768 37.1072 151.584 37.2331 153.457 38.9629C154.074 39.5309 154.594 40.2764 155.395 40.5346C155.763 40.605 156.125 40.6988 156.48 40.8154C157.369 41.2317 157.508 42.4097 157.992 43.2617C158.144 43.4867 158.277 43.7242 158.389 43.9717C158.483 44.2635 158.526 44.569 158.519 44.8753L158.586 47.1118C158.696 50.8587 158.806 54.6152 158.405 58.3395C158.276 59.5691 158.083 60.8342 158.447 62.0154C158.544 62.3381 158.68 62.6415 158.77 62.9674C158.85 63.3496 158.891 63.7388 158.893 64.1292L158.945 65.5783C158.963 65.691 158.937 65.8063 158.874 65.901C158.82 65.9448 158.757 65.976 158.689 65.9922C158.621 66.0084 158.551 66.0092 158.483 65.9946C156.464 65.8139 154.423 64.6779 152.517 65.3653" fill="#464353"/>
<path d="M274.298 218.427C273.878 216.629 273.616 215.051 273.616 215.051C273.616 215.051 273.713 213.095 272.835 211.627V211.136V207.522C273.085 206.865 273.391 206.231 273.749 205.627C274.395 204.491 273.749 200.328 273.749 200.328C273.749 200.328 271.336 194.458 271.921 190.733C272.505 187.009 266.966 174.197 266.966 174.197C267 172.961 267.175 171.733 267.486 170.537C267.545 170.285 267.569 170.027 267.557 169.769C267.557 169.737 267.557 169.708 267.557 169.675C267.557 169.643 267.557 169.695 267.557 169.704C267.473 167.248 265.529 162.646 265.529 162.646L265.79 153.875C265.79 153.875 267.031 148.711 265.009 141.756C264.301 139.332 263.849 137.393 263.562 135.895C263.529 135.728 263.497 135.573 263.471 135.408C267.635 134.763 270.816 134.246 270.816 134.246C270.816 134.246 268.4 124.148 266.769 122.379C265.138 120.611 263.833 115.057 263.833 115.057C263.833 115.057 262.984 107.928 264.356 105.843C265.729 103.758 265.923 100.163 265.923 100.163C265.923 100.163 269.053 97.9038 269.447 96.8808C269.841 95.8577 270.49 93.5986 270.49 92.4013C270.49 91.204 270.099 90.1422 270.228 89.4967C270.357 88.8513 269.314 86.4663 269.837 85.3303C269.973 84.9814 270.043 84.6105 270.044 84.2363C270.045 84.2256 270.045 84.2147 270.044 84.204C270.049 83.2099 269.957 82.2177 269.77 81.2414C268.864 80.4775 267.808 79.9133 266.669 79.5858L266.601 79.3147L266.423 78.6047C266.324 78.5392 266.222 78.4789 266.117 78.4239V78.1658L266.088 77.1395L266.578 74.8352C267.547 70.8269 262.189 70.2299 262.189 70.2299C261.864 69.615 261.324 69.1416 260.671 68.9002C259.595 68.5227 260.493 74.9288 260.994 75.3548C261.372 75.6775 262.541 77.672 263.106 78.6595L263.197 78.8209C263.108 78.9004 263.026 78.9867 262.951 79.0791L263.155 80.47L263.187 80.683C262.832 81.1237 262.544 81.6141 262.331 82.1385C262.331 82.1385 263.3 83.21 263.116 84.3976C262.932 85.5853 263.416 87.0924 263.439 87.1731C263.381 87.1053 262.693 86.3631 262.005 86.5438C261.317 86.7245 259.395 87.3022 259.395 87.3022C259.395 87.3022 257.961 87.5539 258.103 87.8702C258.245 88.1865 257.134 89.5742 257.134 89.5742L253.278 85.9209C253.239 85.8112 253.197 85.7015 253.165 85.5982C253.007 85.0714 252.899 84.5313 252.842 83.9845C253.262 83.8847 253.675 83.7542 254.076 83.594C254.481 83.455 254.847 83.2203 255.142 82.9099C255.532 82.4484 255.607 81.8223 255.765 81.2478C256.068 80.1247 256.734 79.1275 257.196 78.0593C257.978 76.2542 258.23 74.264 257.922 72.3212C257.863 71.7224 257.66 71.1468 257.331 70.643C256.702 69.7781 255.558 69.4263 254.728 68.7357C253.898 68.045 253.362 66.9897 252.393 66.4766C251.518 66.0086 250.455 66.0635 249.467 66.2248C247.536 66.5429 245.682 67.217 243.998 68.2128C243.436 68.5356 242.816 68.9325 242.17 68.8131C241.615 68.7131 241.201 68.2709 240.853 67.8449C240.857 67.8273 240.862 67.81 240.869 67.7933C240.853 67.7776 240.839 67.7603 240.827 67.7417C240.418 68.648 240.213 69.6328 240.226 70.6268C240.226 70.7817 240.226 70.9496 240.245 71.0883V71.2497C240.245 71.2949 240.245 71.3401 240.245 71.382C240.245 71.4508 240.235 71.5193 240.216 71.5853C240.135 71.7828 240.012 71.9601 239.855 72.1049C239.736 72.2395 239.628 72.383 239.532 72.5342C239.532 72.4825 239.564 72.4309 239.583 72.376C239.337 72.7354 239.198 73.1574 239.183 73.5927C239.165 73.9096 239.269 74.2214 239.473 74.4641C239.667 74.6517 239.878 74.8203 240.103 74.9675C240.027 75.3936 239.988 75.8256 239.987 76.2584C239.994 77.5418 240.333 78.8015 240.97 79.9158C241.607 81.0302 242.521 81.9614 243.624 82.6194C243.669 82.7259 243.711 82.8356 243.753 82.9421C244.247 84.233 244.619 85.7499 244.454 87.1376C244.454 87.2376 244.425 87.3409 244.409 87.441C244.393 87.541 244.312 87.5475 244.27 87.6023C244.27 87.6023 237.897 87.6669 236.399 86.3114C234.9 84.956 232.613 89.6258 232.613 89.6258C232.613 89.6258 230.33 90.068 229.871 89.6258C229.412 89.1837 226.741 89.5645 226.741 89.5645C225.647 88.5921 224.223 88.0727 222.759 88.1122C221.872 87.4387 220.893 86.8953 219.852 86.4986L219.781 86.4728C219.322 86.3054 218.83 86.2437 218.344 86.2921C218.344 86.2921 215.211 83.7102 214.297 82.316C213.383 80.9219 209.032 75.7743 209.013 75.7518V75.5033L208.964 74.7545C208.835 74.7748 208.704 74.7856 208.573 74.7868C208.551 74.7126 208.518 74.6254 208.486 74.5254C208.235 73.7951 207.927 73.086 207.562 72.4051C207.562 72.4051 207.562 71.4595 207.837 71.2207C208.111 70.9818 207.724 67.5125 207.724 67.5125C207.724 67.5125 204.901 60.9192 202.372 65.8408C202.372 65.8408 197.592 69.0261 201.603 72.7375C201.603 72.7375 203.218 73.512 203.431 74.1252C203.58 74.5222 204.123 75.6356 204.488 76.3843L204.652 76.707L204.607 76.7458L204.665 77.3654L204.691 77.6042C203.935 78.0334 203.422 78.4594 203.548 78.7789C203.77 79.3257 203.923 79.8982 204.003 80.4829C204.003 80.4829 209.552 87.4281 210.269 90.3939C210.269 90.3939 225.149 99.2302 230.042 99.8595L229.177 104.265C229.051 105.46 228.986 106.661 228.983 107.863C229.047 108.809 228.395 113.101 228.395 113.101C228.395 113.101 227.546 119.414 226.829 120.298C226.111 121.182 226.241 124.968 226.241 124.968C226.071 126.78 225.747 128.574 225.272 130.332C224.555 132.729 225.075 135.698 225.075 135.698C225.075 135.698 222.597 141.378 228.534 137.528C228.534 137.528 231.441 137.348 234.806 137.231C234.806 137.341 234.806 137.454 234.806 137.554C234.806 137.987 234.806 138.455 234.784 138.945C234.738 142.198 234.719 146.691 234.868 150.073C235.129 156.069 236.957 167.936 236.957 167.936V173.909C236.839 174.47 236.781 175.041 236.783 175.613C236.744 177.715 237.304 179.785 238.398 181.581L238.857 185.557C238.857 185.557 239.929 188.177 239.948 189.752C239.944 189.879 239.929 190.005 239.903 190.13C239.861 190.33 239.844 190.535 239.851 190.74C239.79 192.547 240.878 196.872 240.878 196.872C240.878 196.872 240.943 201.225 241.595 201.48C242.154 201.696 240.849 203.988 240.462 204.646C240.451 204.606 240.444 204.565 240.439 204.523L240.358 204.653C240.224 205.005 240.155 205.379 240.155 205.756C240.118 206.054 240.167 206.355 240.295 206.626C240.423 206.897 240.625 207.126 240.878 207.286C242.119 208.044 242.784 208.674 241.731 208.925C241.344 208.986 240.96 209.066 240.581 209.167C240.581 209.119 240.543 209.067 240.526 209.022C240.378 209.08 240.254 209.188 240.176 209.327C240.097 209.465 240.069 209.627 240.097 209.784C240.107 210.296 240.239 210.798 240.481 211.249C241.524 213.586 242.248 214.476 242.248 214.476L242.749 214.422C242.675 214.613 242.577 214.794 242.458 214.96C242.267 215.231 242.015 215.452 241.721 215.606C241.448 215.769 241.143 215.874 240.827 215.913C240.473 215.924 240.126 216.01 239.807 216.164C239.489 216.319 239.207 216.539 238.979 216.81C238.333 217.652 237.92 218.798 239.205 219.805L243.873 221.418C243.873 221.418 251.902 222.461 251.476 220.66C251.049 218.859 250.791 217.284 250.791 217.284C250.825 216.185 250.604 215.092 250.145 214.092C250.061 213.929 249.966 213.772 249.861 213.621L250.145 213.592C250.145 213.592 250.733 209.613 251.514 208.858C251.695 208.683 251.737 208.535 251.695 208.445C251.776 208.228 251.569 208.102 251.308 208.028L251.25 208.186C250.994 208.131 250.733 208.102 250.471 208.099C250.471 208.099 250.21 206.018 251.059 205.259C251.128 205.173 251.178 205.073 251.206 204.967C251.234 204.86 251.24 204.749 251.224 204.64C251.23 204.354 251.2 204.069 251.133 203.791C251.125 203.809 251.115 203.826 251.104 203.842C250.678 201.951 249.231 198.947 249.231 198.947C249.231 198.947 249.166 197.056 249.69 196.297C250.213 195.539 249.622 186.009 249.622 186.009C249.622 186.009 249.819 181.403 249.231 179.257C248.643 177.111 249.948 174.584 249.948 174.584C249.948 174.584 249.948 174.536 249.948 174.448V174.416L249.874 173.69C249.872 173.705 249.872 173.72 249.874 173.735C249.741 172.515 249.492 170.305 249.308 169.285C249.047 167.832 249.376 160.894 249.376 160.894L250.549 157.925L252.638 163.04L254.857 169.856C254.857 169.856 255.955 171.295 255.981 172.761C255.981 172.832 255.981 172.903 255.981 172.974C255.963 173.125 255.955 173.277 255.955 173.429C255.916 174.29 256.153 175.141 256.63 175.859C256.63 175.859 257.218 179.086 258.132 179.896C259.046 180.706 259.046 182.294 259.046 182.294C259.046 182.294 260.154 186.967 260.661 187.78C261.101 188.471 261.123 190.362 261.12 190.953C261.12 191.059 261.12 191.121 261.12 191.121C261.12 191.121 261.275 192.792 261.269 194.193C261.269 194.367 261.269 194.535 261.269 194.693C261.27 194.681 261.27 194.669 261.269 194.658C261.268 195.04 261.223 195.422 261.133 195.794L261.114 195.858C261.114 195.778 261.114 195.7 261.136 195.623C260.909 196.574 260.801 197.549 260.813 198.527C260.784 200.205 261.039 202.193 262.057 203.368C263.82 205.388 264.928 205.137 264.928 205.137C264.928 205.137 264.082 207.66 263.035 208.167C262.996 208.186 262.959 208.21 262.925 208.238C262.925 208.186 262.906 208.138 262.9 208.09C262.783 208.215 262.694 208.364 262.638 208.527C262.583 208.689 262.562 208.861 262.577 209.032C262.502 210.142 263.203 211.936 263.869 212.772C264.116 213.014 264.419 213.191 264.75 213.289C264.698 213.326 264.643 213.359 264.586 213.389C264.469 213.453 264.35 213.51 264.227 213.56C264.057 213.632 263.878 213.679 263.694 213.699C263.34 213.708 262.992 213.793 262.673 213.948C262.355 214.102 262.073 214.323 261.847 214.596C261.201 215.435 260.787 216.581 262.073 217.587L266.74 219.201C266.74 219.201 274.718 220.224 274.298 218.427Z" fill="url(#paint0_linear)"/>
<path d="M243.643 221.409L239.121 219.795C237.875 218.788 238.272 217.642 238.902 216.8C239.119 216.531 239.39 216.312 239.699 216.158C240.008 216.003 240.346 215.916 240.691 215.903C240.997 215.864 241.292 215.759 241.554 215.596C241.84 215.441 242.086 215.22 242.271 214.951C242.601 214.428 242.778 213.823 242.784 213.205C242.784 213.205 247.745 211.753 249.102 213.205C249.344 213.468 249.546 213.765 249.702 214.086C250.153 215.088 250.374 216.179 250.348 217.278C250.348 217.278 250.6 218.853 251.011 220.653C251.421 222.454 243.643 221.409 243.643 221.409Z" fill="#2D293D"/>
<path d="M265.748 219.182L261.227 217.568C259.98 216.561 260.377 215.416 261.007 214.576C261.222 214.307 261.493 214.087 261.801 213.932C262.11 213.777 262.448 213.691 262.793 213.679C262.972 213.661 263.146 213.614 263.31 213.541C263.429 213.49 263.546 213.433 263.659 213.369C264.922 212.676 264.889 210.972 264.889 210.972C264.889 210.972 269.847 209.519 271.207 210.972C271.389 211.168 271.548 211.385 271.682 211.617C272.531 213.085 272.437 215.044 272.437 215.044C272.437 215.044 272.689 216.623 273.083 218.42C273.477 220.218 265.748 219.182 265.748 219.182Z" fill="#2D293D"/>
<path opacity="0.1" d="M249.105 213.202C249.347 213.464 249.549 213.761 249.706 214.083L242.277 214.944C242.607 214.421 242.785 213.817 242.791 213.198C242.791 213.198 247.748 211.749 249.105 213.202Z" fill="black"/>
<path opacity="0.1" d="M271.688 211.623V213.014C270.532 214.915 264.941 214.499 263.316 213.547C263.436 213.497 263.552 213.439 263.665 213.376C264.928 212.682 264.896 210.978 264.896 210.978C264.896 210.978 269.854 209.526 271.213 210.978C271.395 211.175 271.555 211.391 271.688 211.623Z" fill="black"/>
<path d="M272.57 205.627C272.224 206.233 271.929 206.867 271.688 207.522V212.508C270.422 214.589 263.856 213.896 262.968 212.76C262.079 211.624 261.152 208.667 262.15 208.154C263.148 207.641 263.982 205.124 263.982 205.124C263.982 205.124 262.906 205.376 261.201 203.355C259.495 201.335 260.003 196.856 260.319 195.784C260.636 194.713 260.319 191.114 260.319 191.114C260.319 191.114 260.384 188.587 259.88 187.768C259.376 186.948 258.3 182.281 258.3 182.281C258.3 182.281 258.3 180.703 257.415 179.883C256.53 179.064 255.962 175.843 255.962 175.843C255.445 175.038 255.222 174.079 255.332 173.129C255.519 171.55 254.257 169.846 254.257 169.846L252.109 163.027L250.087 157.915L248.95 160.881C248.95 160.881 248.627 167.823 248.889 169.272C249.15 170.721 249.535 174.574 249.535 174.574C249.535 174.574 248.272 177.098 248.84 179.244C249.409 181.39 249.202 186.002 249.202 186.002C249.202 186.002 249.77 195.529 249.263 196.288C248.756 197.046 248.821 198.94 248.821 198.94C248.821 198.94 251.405 204.491 250.591 205.25C249.777 206.008 250.022 208.09 250.022 208.09C250.022 208.09 251.789 208.09 251.033 208.848C250.277 209.607 249.706 213.583 249.706 213.583L242.067 214.477C242.067 214.477 241.369 213.595 240.359 211.249C239.348 208.903 240.546 209.168 241.563 208.913C242.581 208.658 241.938 208.032 240.736 207.273C239.535 206.515 240.233 204.811 240.233 204.811C240.233 204.811 242.064 201.719 241.431 201.467C240.798 201.216 240.736 196.859 240.736 196.859C240.736 196.859 239.474 191.695 239.79 190.295C240.107 188.894 238.779 185.563 238.779 185.563L238.337 181.587C236.985 179.331 236.492 176.664 236.948 174.074V167.942C236.948 167.942 235.178 156.079 234.926 150.083C234.764 146.242 234.81 141.001 234.861 137.732C234.894 135.899 234.926 134.682 234.926 134.682L262.212 131.842C262.212 131.842 262.186 133.101 262.706 135.892C262.987 137.39 263.423 139.329 264.108 141.753C266.065 148.695 264.867 153.868 264.867 153.868L264.612 162.643C264.612 162.643 267.011 168.51 266.507 170.531C266.203 171.73 266.032 172.96 265.997 174.197C265.997 174.197 271.365 187.009 270.797 190.733C270.228 194.458 272.563 200.328 272.563 200.328C272.563 200.328 273.203 204.491 272.57 205.627Z" fill="#464353"/>
<path opacity="0.05" d="M256.97 172.748L265.277 171.641C265.277 171.641 260.571 176.44 256.97 172.748Z" fill="black"/>
<path opacity="0.1" d="M264.075 163.531C264.075 163.531 264.36 166.467 262.561 167.571C262.561 167.571 265.781 167.068 264.075 163.531Z" fill="black"/>
<path opacity="0.1" d="M263.565 154.191C263.565 154.191 256.621 159.903 254.095 159.429C251.569 158.954 263.565 154.191 263.565 154.191Z" fill="black"/>
<path opacity="0.1" d="M246.673 175.426C246.673 175.426 241.398 176.624 241.24 178.741C241.082 180.858 246.673 175.426 246.673 175.426Z" fill="black"/>
<path opacity="0.05" d="M247.832 201.748C247.832 201.748 240.381 203.136 242.497 204.081C244.612 205.027 248.087 205.785 248.087 205.785C248.087 205.785 250.494 205.911 247.832 201.748Z" fill="black"/>
<g opacity="0.05">
<path opacity="0.05" d="M240.991 205.585C240.804 205.468 240.646 205.311 240.528 205.124C240.41 204.938 240.335 204.727 240.31 204.507L240.232 204.64C240.232 204.64 239.538 206.344 240.74 207.099C240.875 207.186 241.008 207.273 241.127 207.357C241.35 207.315 241.589 207.283 241.818 207.225C242.836 206.973 242.193 206.344 240.991 205.585Z" fill="black"/>
<path opacity="0.05" d="M250.591 205.079C250.797 204.891 250.791 204.407 250.665 203.788C250.342 204.275 250.248 205.037 250.242 205.614C250.32 205.414 250.439 205.232 250.591 205.079Z" fill="black"/>
<path opacity="0.05" d="M249.444 173.68C249.17 174.427 249 175.208 248.94 176.001C249.084 175.453 249.278 174.919 249.518 174.407L249.444 173.68Z" fill="black"/>
<path opacity="0.05" d="M266.511 170.369C266.56 170.142 266.583 169.911 266.579 169.679C266.485 170.15 266.42 170.585 266.372 170.969C266.414 170.773 266.459 170.585 266.511 170.369Z" fill="black"/>
<path opacity="0.05" d="M249.266 196.12C249.37 195.965 249.428 195.442 249.454 194.716C249.22 195.278 249.096 195.879 249.089 196.488C249.133 196.358 249.193 196.235 249.266 196.12Z" fill="black"/>
<path opacity="0.05" d="M250.817 208.022C250.425 209.288 250.135 210.583 249.948 211.895L242.309 212.776C242.309 212.776 241.612 211.895 240.601 209.548C240.519 209.367 240.447 209.182 240.384 208.993C239.926 209.203 239.738 209.678 240.346 211.062C241.357 213.399 242.057 214.289 242.057 214.289L249.696 213.405C249.696 213.405 250.264 209.429 251.02 208.671C251.408 208.306 251.169 208.116 250.817 208.022Z" fill="black"/>
<path opacity="0.05" d="M240.74 196.688C240.74 196.688 240.801 201.041 241.434 201.293C241.757 200.573 241.967 199.889 241.683 199.776C241.037 199.524 240.988 195.168 240.988 195.168C240.988 195.168 239.725 190.004 240.042 188.603C240.358 187.203 239.031 183.872 239.031 183.872L238.589 179.896C237.237 177.64 236.744 174.973 237.2 172.383V166.251C237.2 166.251 235.43 154.388 235.178 148.391C235.016 144.551 235.061 139.31 235.113 136.041C235.113 135.45 235.133 134.927 235.142 134.485L234.926 134.508C234.926 134.508 234.89 135.721 234.861 137.557C234.81 140.827 234.761 146.068 234.926 149.905C235.178 155.901 236.944 167.768 236.944 167.768V173.9C236.491 176.489 236.985 179.155 238.337 181.41L238.776 185.386C238.776 185.386 240.103 188.729 239.787 190.12C239.47 191.511 240.74 196.688 240.74 196.688Z" fill="black"/>
<path opacity="0.05" d="M263.226 211.075C262.605 210.177 262.192 209.153 262.015 208.077C261.236 208.78 262.131 211.511 262.984 212.595C263.865 213.731 270.435 214.425 271.704 212.34V211.139C269.983 212.827 264.059 212.15 263.226 211.075Z" fill="black"/>
<path opacity="0.05" d="M272.825 203.943C272.479 204.549 272.183 205.182 271.94 205.837V206.731C272.085 206.408 272.289 205.976 272.586 205.466C272.786 204.969 272.881 204.436 272.864 203.901C272.864 203.901 272.835 203.93 272.825 203.943Z" fill="black"/>
<path opacity="0.05" d="M263.613 204.94C263.854 204.454 264.062 203.952 264.237 203.439C264.237 203.439 263.161 203.691 261.456 201.671C260.216 200.202 260.145 197.427 260.322 195.613C259.999 196.688 259.499 201.167 261.204 203.187C262.318 204.507 263.161 204.856 263.613 204.94Z" fill="black"/>
<path opacity="0.05" d="M260.319 190.943C260.43 192.187 260.473 193.435 260.445 194.684C260.477 194.486 260.52 194.291 260.574 194.099C260.897 193.025 260.574 189.43 260.574 189.43C260.574 189.43 260.639 186.903 260.132 186.083C259.625 185.263 258.568 180.59 258.568 180.59C258.568 180.59 258.568 179.012 257.683 178.192C256.798 177.372 256.23 174.152 256.23 174.152C255.708 173.348 255.48 172.39 255.584 171.437C255.775 169.859 254.512 168.155 254.512 168.155L252.364 161.339L250.342 156.227L249.202 159.196C249.202 159.196 249.202 159.571 249.163 160.165L250.087 157.754L252.109 162.856L254.257 169.672C254.257 169.672 255.519 171.376 255.329 172.954C255.225 173.906 255.453 174.865 255.975 175.668C255.975 175.668 256.543 178.896 257.428 179.709C258.313 180.522 258.31 182.107 258.31 182.107C258.31 182.107 259.386 186.777 259.889 187.593C260.393 188.41 260.319 190.943 260.319 190.943Z" fill="black"/>
</g>
<path d="M265.623 74.8256L265.148 77.1298L265.177 78.1561L265.196 78.9113L262.561 79.1824L262.267 78.637C261.721 77.6494 260.587 75.6421 260.222 75.3322C259.734 74.9256 258.866 68.5162 259.899 68.897C260.535 69.1426 261.058 69.6152 261.366 70.2235C261.366 70.2235 266.556 70.8173 265.623 74.8256Z" fill="#FFCDD3"/>
<path opacity="0.1" d="M265.196 78.9113L262.561 79.1824L262.267 78.637C262.621 78.2337 263.105 77.9657 263.635 77.8787C264.165 77.7916 264.708 77.8908 265.174 78.1593L265.196 78.9113Z" fill="black"/>
<path d="M265.861 80.1602L262.386 80.9638L262.312 80.4474L262.115 79.0565C262.115 79.0565 263.491 77.2234 265.48 78.5982L265.655 79.305L265.861 80.1602Z" fill="#45508C"/>
<path d="M209.565 75.0773L205.854 77.0653L205.531 76.3682C205.179 75.6291 204.652 74.5157 204.507 74.1091C204.287 73.4959 202.74 72.7214 202.74 72.7214C198.864 69.0132 203.483 65.8247 203.483 65.8247C205.931 60.9031 208.651 67.4964 208.651 67.4964C208.651 67.4964 209.032 70.9722 208.764 71.2045C208.496 71.4369 208.496 72.389 208.496 72.389C208.85 73.0711 209.149 73.78 209.391 74.5093C209.504 74.8611 209.565 75.0773 209.565 75.0773Z" fill="#FFCDD3"/>
<path opacity="0.1" d="M209.565 75.0773L205.854 77.0653L205.531 76.3682C206.054 75.9293 207.911 74.4318 208.522 74.4932C208.813 74.5295 209.107 74.5371 209.4 74.5158C209.504 74.8611 209.565 75.0773 209.565 75.0773Z" fill="black"/>
<path d="M209.943 76.1971L205.773 78.2496L205.689 77.3557L205.631 76.736C205.631 76.736 208.047 74.6673 208.761 74.748C209.122 74.8003 209.488 74.8003 209.849 74.748L209.898 75.4968L209.943 76.1971Z" fill="#45508C"/>
<path d="M255.516 90.1326C255.516 90.1326 237.339 92.1819 240.736 91.0782C243.101 90.3069 244.04 88.8191 244.238 87.1409C244.399 85.7435 244.037 84.2364 243.562 82.9455C243.135 81.8002 242.594 80.7007 241.948 79.6633C241.948 79.6633 255.836 72.0276 253.062 78.9694C252.634 80.0194 252.368 81.1283 252.273 82.258C252.19 83.3808 252.311 84.5093 252.632 85.5886C253.156 87.3399 254.154 88.9125 255.516 90.1326Z" fill="#FFCDD3"/>
<path opacity="0.1" d="M253.052 78.9597C252.624 80.0097 252.358 81.1185 252.264 82.2483C250.956 83.3488 249.522 83.2746 247.677 83.2746C246.263 83.2746 244.693 83.6166 243.562 82.9357C243.135 81.7905 242.594 80.6909 241.948 79.6535C241.948 79.6535 255.833 72.0178 253.052 78.9597Z" fill="black"/>
<path d="M247.432 83.7586C251.583 83.7586 254.948 80.3964 254.948 76.2488C254.948 72.1012 251.583 68.7389 247.432 68.7389C243.281 68.7389 239.916 72.1012 239.916 76.2488C239.916 80.3964 243.281 83.7586 247.432 83.7586Z" fill="#FFCDD3"/>
<path opacity="0.1" d="M255.516 90.1325C255.516 90.1325 237.339 92.1819 240.736 91.0781C243.101 90.3068 244.04 88.819 244.238 87.1408C245.142 86.1727 246.96 85.453 248.113 85.0786C249.179 84.7204 250.33 84.7012 251.408 85.0238C251.831 85.1513 252.235 85.3382 252.606 85.5788C253.136 87.3366 254.143 88.913 255.516 90.1325Z" fill="black"/>
<path opacity="0.1" d="M265.862 80.1603L262.386 80.9639L262.312 80.4475C262.684 79.9368 263.205 79.5531 263.803 79.3487C264.401 79.1443 265.048 79.129 265.655 79.3051L265.862 80.1603Z" fill="black"/>
<path opacity="0.1" d="M209.943 76.1971L205.773 78.2496L205.689 77.3557C207.04 76.6301 208.443 76.0076 209.888 75.4935L209.943 76.1971Z" fill="black"/>
<path opacity="0.1" d="M262.706 135.899C255.662 137.022 245.649 138.455 244.06 137.971C242.739 137.57 238.527 137.612 234.861 137.738C234.894 135.905 234.926 134.688 234.926 134.688L262.212 131.848C262.212 131.848 262.186 133.107 262.706 135.899Z" fill="black"/>
<path d="M269.728 134.246C269.728 134.246 246.547 138.222 244.06 137.473C241.573 136.725 228.799 137.535 228.799 137.535C223.05 141.385 225.449 135.705 225.449 135.705C225.449 135.705 224.946 132.739 225.64 130.341C226.106 128.581 226.425 126.784 226.593 124.971C226.593 124.971 226.467 121.182 227.161 120.298C227.856 119.414 228.679 113.104 228.679 113.104C228.679 113.104 229.309 108.812 229.248 107.866C229.186 106.921 229.435 104.268 229.435 104.268L230.259 99.8499C225.521 99.2205 211.119 90.3842 211.119 90.3842C210.424 87.4184 205.056 80.4765 205.056 80.4765C204.978 79.8927 204.829 79.3206 204.614 78.7725C204.236 77.7623 209.92 75.7421 209.92 75.7421C209.92 75.7421 214.151 80.9057 215.036 82.3064C215.921 83.707 218.951 86.2824 218.951 86.2824C219.422 86.234 219.897 86.2959 220.34 86.4631L220.414 86.4857C221.429 86.8839 222.381 87.4275 223.24 88.0993C224.665 88.0656 226.046 88.5863 227.093 89.5516C227.093 89.5516 229.677 89.1708 230.126 89.6129C230.575 90.0551 232.778 89.6129 232.778 89.6129C232.778 89.6129 234.987 84.943 236.441 86.2985C237.894 87.654 244.06 87.5894 244.06 87.5894C244.88 86.4986 246.88 85.7176 248.13 85.3303C249.196 84.9736 250.346 84.9544 251.424 85.2755C251.889 85.4141 252.326 85.6325 252.716 85.9209L256.466 89.5806C256.466 89.5806 257.538 88.1897 257.412 87.8766C257.286 87.5636 258.675 87.3086 258.675 87.3086C258.675 87.3086 260.506 86.7406 261.201 86.5502C261.895 86.3598 262.532 87.1118 262.59 87.1795C262.567 87.0989 262.092 85.5659 262.267 84.4041C262.441 83.2423 261.508 82.145 261.508 82.145C263.717 76.7167 268.707 81.2607 268.707 81.2607C268.707 81.2607 269.275 84.2266 268.772 85.3626C268.268 86.4986 269.275 88.8965 269.15 89.529C269.024 90.1616 269.405 91.233 269.405 92.4336C269.405 93.6341 268.759 95.9029 268.394 96.913C268.029 97.9232 264.983 100.195 264.983 100.195C264.983 100.195 264.792 103.794 263.465 105.875C262.137 107.957 262.971 115.076 262.971 115.076C262.971 115.076 264.234 120.63 265.813 122.399C267.392 124.167 269.728 134.246 269.728 134.246Z" fill="#3F3D56"/>
<path opacity="0.1" d="M235.937 92.7176C235.937 92.7176 235.242 90.636 234.609 90.4585C233.981 90.2275 233.369 89.9536 232.778 89.6387L233.185 88.861C233.185 88.861 235.556 89.5064 235.937 90.2067C236.318 90.9071 235.937 92.7176 235.937 92.7176Z" fill="black"/>
<path opacity="0.1" d="M223.24 88.1123C223.114 88.7577 217.491 89.3096 217.491 89.3096L220.333 86.4631L220.404 86.489C221.424 86.8894 222.379 87.4362 223.24 88.1123Z" fill="black"/>
<path d="M206.975 79.9537C207.253 79.9537 207.478 79.7283 207.478 79.4502C207.478 79.1722 207.253 78.9468 206.975 78.9468C206.696 78.9468 206.471 79.1722 206.471 79.4502C206.471 79.7283 206.696 79.9537 206.975 79.9537Z" fill="#575988"/>
<path d="M207.621 80.9638C207.899 80.9638 208.124 80.7384 208.124 80.4604C208.124 80.1823 207.899 79.9569 207.621 79.9569C207.342 79.9569 207.117 80.1823 207.117 80.4604C207.117 80.7384 207.342 80.9638 207.621 80.9638Z" fill="#575988"/>
<path d="M208.254 81.8966C208.532 81.8966 208.757 81.6712 208.757 81.3931C208.757 81.1151 208.532 80.8896 208.254 80.8896C207.975 80.8896 207.75 81.1151 207.75 81.3931C207.75 81.6712 207.975 81.8966 208.254 81.8966Z" fill="#575988"/>
<path d="M208.916 82.9034C209.194 82.9034 209.42 82.678 209.42 82.3999C209.42 82.1219 209.194 81.8965 208.916 81.8965C208.637 81.8965 208.412 82.1219 208.412 82.3999C208.412 82.678 208.637 82.9034 208.916 82.9034Z" fill="#575988"/>
<path d="M268.455 82.7549C268.682 82.7549 268.865 82.5714 268.865 82.345C268.865 82.1187 268.682 81.9352 268.455 81.9352C268.229 81.9352 268.045 82.1187 268.045 82.345C268.045 82.5714 268.229 82.7549 268.455 82.7549Z" fill="#575988"/>
<path d="M268.52 83.6877C268.746 83.6877 268.93 83.5042 268.93 83.2778C268.93 83.0514 268.746 82.8679 268.52 82.8679C268.293 82.8679 268.109 83.0514 268.109 83.2778C268.109 83.5042 268.293 83.6877 268.52 83.6877Z" fill="#575988"/>
<path d="M268.575 84.6171C268.801 84.6171 268.985 84.4336 268.985 84.2072C268.985 83.9809 268.801 83.7974 268.575 83.7974C268.348 83.7974 268.164 83.9809 268.164 84.2072C268.164 84.4336 268.348 84.6171 268.575 84.6171Z" fill="#575988"/>
<path opacity="0.1" d="M235.959 109.822C235.898 109.748 250.139 127.714 261.191 117.332C261.201 117.335 243.737 119.701 235.959 109.822Z" fill="black"/>
<path opacity="0.1" d="M227.788 119.162C227.788 119.162 236.308 119.394 237.2 121.844V124.393C236.957 124.528 236.684 124.598 236.407 124.598C236.129 124.598 235.856 124.528 235.614 124.393C234.755 123.929 229.603 121.315 227.788 122.573V119.162Z" fill="black"/>
<path d="M227.946 119.162C227.946 119.162 236.095 119.385 236.948 121.721V124.148C236.716 124.277 236.454 124.345 236.189 124.345C235.923 124.345 235.662 124.277 235.43 124.148C234.609 123.709 229.684 121.215 227.946 122.415V119.162Z" fill="#3F3D56"/>
<path opacity="0.1" d="M232.439 100.676C233.309 102.689 234.419 104.591 235.743 106.34C237.183 108.273 238.929 109.959 240.911 111.333C240.911 111.333 232.581 101.844 232.439 100.676Z" fill="black"/>
<path opacity="0.1" d="M229.651 90.7844C229.651 90.7844 231.073 96.9162 234.735 98.9978L229.651 90.7844Z" fill="black"/>
<path opacity="0.1" d="M227.471 91.4041C227.436 91.2912 226.208 96.245 232.193 98.9979C232.193 98.9979 229.652 98.1362 227.471 91.4041Z" fill="black"/>
<path opacity="0.1" d="M264.676 87.2925C264.583 87.2925 267.628 89.2289 268.458 90.1325C268.458 90.1325 266.475 87.1635 264.676 87.2925Z" fill="black"/>
<path d="M245.4 83.0551C245.401 83.2189 245.437 83.3807 245.503 83.5303C245.57 83.6799 245.668 83.814 245.789 83.9241C245.91 84.0342 246.053 84.1179 246.209 84.17C246.364 84.222 246.529 84.2413 246.692 84.2266C248.982 84.3686 251.369 84.4686 253.475 83.5811C253.87 83.4403 254.225 83.2054 254.508 82.8969C254.883 82.4354 254.957 81.8094 255.109 81.2349C255.406 80.1118 256.039 79.1146 256.495 78.0463C257.265 76.2416 257.523 74.2596 257.241 72.3179C257.181 71.7227 256.985 71.1494 256.666 70.643C256.059 69.7748 254.951 69.4231 254.147 68.7324C253.342 68.0418 252.826 66.9865 251.886 66.4733C251.04 66.0021 250.003 66.0602 249.05 66.2216C247.176 66.5396 245.38 67.2133 243.76 68.2064C243.214 68.5291 242.616 68.9261 241.99 68.8067C241.44 68.7034 241.04 68.2419 240.698 67.8094C240.257 68.8422 240.072 69.9658 240.158 71.0851C240.182 71.2494 240.177 71.4165 240.142 71.5789C240.063 71.7752 239.943 71.9523 239.79 72.0985C239.225 72.7439 238.873 73.7928 239.431 74.4576C239.674 74.7448 240.048 74.903 240.284 75.1967C240.707 75.7227 240.565 76.4876 240.555 77.1588C240.532 77.3932 240.592 77.6284 240.723 77.8237C240.846 77.9375 240.995 78.0178 241.158 78.0568C241.32 78.0958 241.49 78.0922 241.65 78.0463C241.97 77.95 242.306 77.9182 242.639 77.9528C242.989 78.0665 243.291 78.2936 243.498 78.5982C244.541 79.9569 244.955 81.435 245.4 83.0551Z" fill="#2D293D"/>
<g opacity="0.1">
<path opacity="0.1" d="M254.777 82.3258C254.493 82.6342 254.138 82.8691 253.743 83.0099C251.624 83.891 249.241 83.7909 246.96 83.6554C246.715 83.6578 246.473 83.6037 246.253 83.4973C245.904 83.2939 245.772 82.8679 245.665 82.4807C245.219 80.867 244.809 79.3857 243.75 78.0399C243.546 77.7295 243.243 77.4965 242.891 77.3783C242.558 77.347 242.223 77.3788 241.902 77.4719C241.742 77.5182 241.572 77.5223 241.41 77.4839C241.248 77.4454 241.098 77.3657 240.975 77.2525C240.844 77.0572 240.784 76.822 240.807 76.5876C240.807 75.9099 240.959 75.1515 240.536 74.6255C240.3 74.3318 239.926 74.1736 239.683 73.8832C239.525 73.669 239.428 73.4161 239.403 73.1513C239.377 72.8865 239.424 72.6197 239.538 72.3793C239.134 73.0247 238.963 73.8348 239.431 74.3899C239.674 74.6771 240.048 74.8352 240.284 75.1289C240.707 75.6582 240.565 76.4198 240.555 77.0911C240.531 77.3252 240.589 77.5605 240.72 77.7559C240.843 77.8703 240.993 77.9509 241.156 77.9899C241.319 78.029 241.489 78.0251 241.65 77.9786C241.97 77.8823 242.306 77.8505 242.639 77.885C242.989 77.9988 243.291 78.2259 243.498 78.5305C244.554 79.8762 244.967 81.3543 245.413 82.9744C245.465 83.3731 245.665 83.7379 245.972 83.9975C246.193 84.1041 246.437 84.1572 246.683 84.1524C248.973 84.2944 251.359 84.3977 253.465 83.5069C253.861 83.367 254.216 83.132 254.499 82.8228C254.641 82.641 254.751 82.4356 254.822 82.216C254.825 82.258 254.802 82.2935 254.777 82.3258Z" fill="black"/>
<path opacity="0.1" d="M240.158 71.3821C240.26 71.272 240.338 71.1424 240.388 71.0012C240.417 70.8379 240.417 70.6708 240.388 70.5075C240.325 69.5874 240.444 68.6639 240.74 67.7901L240.698 67.7417C240.256 68.7729 240.071 69.8958 240.158 71.0142C240.168 71.1366 240.168 71.2596 240.158 71.3821Z" fill="black"/>
</g>
<path opacity="0.1" d="M244.06 87.6056C244.06 87.6056 253.449 88.8514 254.292 87.441L244.06 87.6056Z" fill="black"/>
<path opacity="0.1" d="M262.312 83.7231C262.312 83.7231 267.531 83.7231 268.678 85.6853L262.312 83.7231Z" fill="black"/>
</g>
<defs>
<linearGradient id="paint0_linear" x1="237.148" y1="221.709" x2="237.148" y2="64.0045" gradientUnits="userSpaceOnUse">
<stop stop-color="#808080" stop-opacity="0.25"/>
<stop offset="0.54" stop-color="#808080" stop-opacity="0.12"/>
<stop offset="1" stop-color="#808080" stop-opacity="0.1"/>
</linearGradient>
<clipPath id="clip0">
<rect width="339" height="219" fill="white"/>
</clipPath>
</defs>
</svg>
