<svg width="424" height="274" viewBox="0 0 424 274" fill="none" xmlns="http://www.w3.org/2000/svg">
<path d="M424 270.903H0V274H424V270.903Z" fill="#85848B"/>
<path d="M335.918 216.219C335.918 218.602 322.026 225.547 305.523 225.547C289.021 225.547 276.163 218.602 276.163 216.219C276.163 213.837 289.538 214.604 306.057 214.604C322.575 214.604 335.918 213.833 335.918 216.219Z" fill="#504F60"/>
<path opacity="0.2" d="M335.918 216.219C335.918 218.602 322.026 225.547 305.523 225.547C289.021 225.547 276.163 218.602 276.163 216.219" fill="black"/>
<path d="M169.728 172.506C172.407 172.849 175.186 173.067 177.751 172.236C178.155 172.11 178.6 171.832 178.559 171.428C178.53 171.281 178.468 171.143 178.378 171.024C177.411 169.575 176.598 168.028 175.954 166.409C175.928 166.325 175.876 166.251 175.804 166.199C175.721 166.169 175.629 166.169 175.546 166.199C174.362 166.51 173.34 167.273 172.164 167.6C171.565 167.765 170.939 167.811 170.322 167.738C169.789 167.677 169.062 167.237 168.577 167.293C168.852 169.058 169.522 170.705 169.728 172.506Z" fill="#45508C"/>
<path d="M220.382 168.036C222.148 166.825 223.978 165.553 225.02 163.684C225.094 163.572 225.138 163.442 225.145 163.308C225.127 163.176 225.076 163.051 224.996 162.945C224.003 161.367 222.725 159.988 221.227 158.879C220.445 159.431 219.739 160.082 219.126 160.817C218.682 161.285 217.454 162.028 217.441 162.743C217.441 163.147 217.91 163.615 218.128 163.954C218.423 164.39 218.702 164.834 218.968 165.287C219.122 165.509 220.524 167.948 220.382 168.036Z" fill="#45508C"/>
<path d="M180.228 177.913C180.259 178.329 180.145 178.743 179.905 179.084C179.716 179.273 179.482 179.412 179.226 179.488C175.481 180.828 171.146 179.156 167.41 180.477C166.642 180.747 165.915 181.139 165.143 181.397C164.224 181.674 163.274 181.842 162.316 181.898C160.995 182.023 159.666 182.104 158.341 182.14C157.334 182.212 156.322 182.123 155.343 181.878C154.853 181.753 154.396 181.526 154 181.212C153.604 180.898 153.278 180.505 153.044 180.057C152.841 179.655 152.801 179.191 152.931 178.761C152.99 178.613 153.073 178.477 153.178 178.357C153.431 178.073 153.728 177.832 154.058 177.642L155.436 176.754C156.082 176.297 156.784 175.926 157.524 175.648C158.07 175.47 158.648 175.393 159.201 175.244C161.136 174.679 162.615 173.144 163.988 171.67L165.862 169.672C166.038 169.452 166.26 169.274 166.513 169.151C166.773 169.064 167.049 169.038 167.321 169.074C169.142 169.204 170.9 169.793 172.431 170.786C172.822 171.08 173.245 171.329 173.691 171.529C174.79 171.957 176.2 171.634 177.214 171.093C177.695 170.835 177.59 170.689 177.792 170.229C177.994 169.769 178.487 169.474 178.915 169.894C179.044 170.039 179.136 170.214 179.181 170.403C179.585 171.735 179.432 173.168 179.432 174.566C179.42 174.784 179.447 175.003 179.513 175.212C179.616 175.422 179.739 175.622 179.88 175.809C179.909 175.859 179.935 175.91 179.957 175.963C180.204 176.581 180.297 177.25 180.228 177.913Z" fill="#514E7F"/>
<path d="M180.228 177.913C180.259 178.329 180.145 178.743 179.904 179.084C179.716 179.273 179.482 179.412 179.226 179.488C175.481 180.828 171.146 179.157 167.41 180.477C166.642 180.747 165.915 181.139 165.143 181.398C164.224 181.674 163.274 181.842 162.316 181.898C160.995 182.023 159.666 182.104 158.341 182.14C157.334 182.212 156.322 182.123 155.343 181.878C154.853 181.753 154.396 181.526 154 181.212C153.604 180.898 153.278 180.505 153.044 180.057C152.841 179.656 152.801 179.191 152.931 178.761C152.99 178.613 153.073 178.477 153.178 178.357C153.396 178.813 153.553 179.419 153.691 179.637C153.876 179.96 154.129 180.24 154.431 180.458C154.733 180.676 155.079 180.827 155.444 180.901C155.991 180.934 156.539 180.865 157.06 180.695C160.453 179.855 164.061 179.843 167.321 178.571C168.44 178.131 169.506 177.545 170.682 177.279C171.857 177.013 173.106 177.085 174.318 176.984C176.232 176.831 178.087 176.253 179.973 175.951C180.217 176.574 180.304 177.248 180.228 177.913Z" fill="#464353"/>
<path d="M228.959 167.79C228.781 169.211 227.88 170.435 226.89 171.472C225.901 172.51 224.782 173.443 223.994 174.638C223.024 176.12 222.588 177.957 221.328 179.209C220.844 179.664 220.3 180.051 219.712 180.36C219.053 180.748 218.356 181.069 217.631 181.317C215.749 181.918 213.721 181.781 211.754 181.636C211.115 181.629 210.483 181.508 209.887 181.276C209.616 181.139 209.357 180.979 209.112 180.8C208.618 180.496 208.203 180.081 207.9 179.588C207.751 179.32 207.709 179.006 207.783 178.708C207.895 178.38 208.088 178.086 208.344 177.852C208.787 177.392 209.262 176.964 209.766 176.572C210.458 176.126 211.081 175.582 211.616 174.957C211.945 174.463 212.186 173.917 212.331 173.342C212.617 172.334 212.792 171.299 212.852 170.253C212.85 169.558 212.922 168.865 213.066 168.186C213.365 167.12 214.157 166.167 214.068 165.065C214.032 164.907 214.046 164.742 214.109 164.592C214.203 164.475 214.334 164.394 214.48 164.362C215.098 164.116 215.749 163.965 216.411 163.914C216.744 163.891 217.077 163.942 217.387 164.063C217.697 164.185 217.977 164.374 218.205 164.616C218.48 164.947 218.661 165.424 219.065 165.553C219.266 165.608 219.476 165.616 219.679 165.577C220.673 165.476 221.724 165.351 222.507 164.709C222.87 164.384 223.161 163.988 223.362 163.546C223.564 163.103 223.672 162.623 223.679 162.137C223.679 161.77 223.513 161.386 224.083 161.33C224.511 161.273 224.85 161.733 225.068 162.016C225.856 163.07 226.664 164.172 226.959 165.456C227.074 165.412 227.196 165.388 227.319 165.388C227.571 165.385 227.819 165.444 228.044 165.559C228.268 165.673 228.461 165.84 228.607 166.046C228.929 166.567 229.054 167.185 228.959 167.79Z" fill="#514E7F"/>
<path d="M228.959 167.79C228.781 169.211 227.88 170.435 226.89 171.473C225.901 172.51 224.782 173.443 223.994 174.638C223.024 176.12 222.588 177.957 221.328 179.209C220.844 179.664 220.3 180.051 219.712 180.36C219.053 180.748 218.356 181.069 217.631 181.317C215.749 181.918 213.721 181.781 211.754 181.636C211.115 181.63 210.483 181.508 209.887 181.276C209.616 181.139 209.357 180.979 209.112 180.8C208.618 180.496 208.203 180.081 207.9 179.589C208.278 179.407 208.692 179.307 209.112 179.298C209.984 179.346 210.622 180.17 211.459 180.424C212.65 180.784 213.838 179.944 215.046 179.657C215.834 179.471 216.662 179.52 217.441 179.253C218.091 179.002 218.692 178.639 219.215 178.179C219.932 177.667 220.571 177.052 221.11 176.354C221.557 175.657 221.93 174.914 222.22 174.138C222.858 172.65 223.609 171.214 224.467 169.841C224.593 169.624 224.747 169.423 224.923 169.244C225.113 169.07 225.327 168.949 225.541 168.796C226.349 168.186 226.684 167.18 226.967 166.195C227.044 165.896 227.151 165.605 227.286 165.327C227.538 165.325 227.787 165.384 228.011 165.498C228.236 165.613 228.429 165.78 228.575 165.985C228.923 166.518 229.059 167.162 228.959 167.79Z" fill="#464353"/>
<path d="M144.25 41.9001C145.256 42.6532 146.083 43.6182 146.674 44.7265C147.239 45.8329 150.499 54.4172 150.31 55.6649C151.372 54.5949 155.561 54.4213 156.636 53.3513C157.084 52.9031 159.504 50.6661 159.868 50.1453C160.231 49.6244 162.93 48.5301 163.225 47.981C164.327 46.0065 155.404 38.5245 156.547 36.5743C156.61 36.4847 156.643 36.377 156.64 36.2674C156.614 36.1753 156.562 36.0927 156.49 36.0292C155.759 35.2822 154.79 34.8178 153.909 34.2646C153.028 33.7115 152.18 32.9403 151.942 31.9227C151.102 32.3091 150.331 32.8301 149.659 33.4652C148.022 34.8676 146.413 36.2983 144.832 37.7573C144.214 38.3307 143.018 39.0938 142.731 39.9135C142.392 40.7937 143.66 41.4196 144.25 41.9001Z" fill="#A1616A"/>
<path d="M158.696 38.7224C157.327 39.642 156.047 40.6884 154.874 41.8477C153.768 42.9419 152.717 44.2098 152.451 45.7401C152.338 46.3417 152.354 46.9514 152.261 47.5611C151.857 50.2059 149.57 52.144 148.56 54.6192C148.268 55.3831 148.053 56.1744 147.918 56.9813C147.634 58.5108 147.479 60.0613 147.453 61.6166C147.429 63.1227 148.908 64.1604 149.449 65.5656C149.99 66.9707 150.136 68.4163 150.411 69.8578C150.928 72.5792 151.877 75.2038 152.834 77.8122C154.826 83.3117 161.281 98.5139 163.273 104.017C169.377 102.487 185.625 98.9702 191.03 95.744C192.832 94.6699 178.527 82.5525 180.454 81.7167C180.564 81.6996 180.669 81.6571 180.76 81.5926C180.851 81.5281 180.925 81.4433 180.978 81.345C181.03 81.2468 181.059 81.1376 181.062 81.0262C181.065 80.9148 181.042 80.8043 180.995 80.7033C179.068 72.2804 173.041 65.3597 170.306 57.1589C169.357 54.3123 167.652 51.8815 166.359 49.1762C165.188 46.7253 164.562 44.0159 163.16 41.6861C162.896 41.2061 162.55 40.7758 162.138 40.4142C161.788 40.1463 161.41 39.9175 161.011 39.7319C160.211 39.3442 159.468 39.1141 158.696 38.7224Z" fill="#1B64AA"/>
<path d="M144.573 40.9431C149.85 40.9431 154.127 36.6677 154.127 31.3937C154.127 26.1198 149.85 21.8444 144.573 21.8444C139.297 21.8444 135.019 26.1198 135.019 31.3937C135.019 36.6677 139.297 40.9431 144.573 40.9431Z" fill="#A1616A"/>
<path d="M154.293 35.8798C154.769 35.4408 155.367 35.1564 156.008 35.0642C156.649 34.9719 157.303 35.0761 157.884 35.3629C158.53 35.6981 159.096 36.3764 158.951 37.0871L163.689 37.1598C164.443 37.1391 165.197 37.2083 165.935 37.3657C166.678 37.5273 167.341 37.9428 167.81 38.5407C167.866 38.6174 167.931 38.7103 168.028 38.7224C168.107 38.7236 168.184 38.698 168.246 38.6497C168.975 38.2843 169.796 38.1437 170.605 38.2459C173.166 38.4115 175.534 39.6915 177.541 41.2904C177.903 41.5392 178.184 41.8888 178.349 42.2958C178.515 42.8328 178.317 43.5072 178.753 43.8907C178.753 48.3323 180.28 52.4832 181.298 56.8117C181.48 57.5829 182.219 58.2653 182.732 58.8709C183.366 59.5424 183.884 60.3148 184.263 61.1563C185.128 63.4013 183.936 66.042 184.776 68.2951C185.132 69.248 185.819 70.0314 186.392 70.8591C187.148 71.8149 187.627 72.9605 187.774 74.1701C187.81 74.7112 187.742 75.2563 187.774 75.7852C187.828 76.5127 187.964 77.2319 188.178 77.9293C188.523 79.2321 188.883 80.5336 189.261 81.8338C189.875 83.9335 190.674 86.1987 192.557 87.3171C188.012 88.0883 183.221 88.8434 178.891 87.2646C178.286 87.0587 177.713 86.7721 177.186 86.4127C175.622 85.2982 174.867 83.3924 174.192 81.5915C173.441 79.5726 172.677 77.5174 172.524 75.3693C172.525 74.6861 172.429 74.0062 172.237 73.3504C171.797 72.1795 170.621 71.4729 169.555 70.8228C168.35 70.1632 167.259 69.3153 166.323 68.3113C165.858 67.8056 165.502 67.21 165.277 66.5613C165.052 65.9126 164.963 65.2246 165.014 64.54C165.095 63.8737 165.358 63.2317 165.382 62.5615C165.406 61.8912 165.107 61.124 164.465 60.9464C161.156 59.945 159.577 56.0283 158.841 52.6527C158.524 50.9081 158.382 49.1361 158.417 47.3632L158.373 43.919C157.916 43.5038 157.549 43.0001 157.293 42.4385C157.038 41.877 156.899 41.2693 156.886 40.6524C156.93 40.2926 156.923 39.9283 156.866 39.5703C156.706 39.1327 156.446 38.7386 156.107 38.4196C155.376 37.6702 154.764 36.8138 154.293 35.8798Z" fill="#464353"/>
<path d="M144.117 46.7979C144.008 47.8638 144.25 48.9581 144.012 50.0039C143.919 50.4076 143.757 50.8114 143.64 51.1869C143.282 52.6922 143.437 54.2738 144.08 55.681C144.723 57.0743 145.492 58.4057 146.379 59.6582C146.679 60.0858 146.926 60.5481 147.114 61.0351C147.267 61.5464 147.362 62.0733 147.397 62.6058C147.631 64.744 148.006 66.8644 148.52 68.9532C148.972 70.7621 154.111 86.2268 155.307 87.6602C155.524 87.9776 155.853 88.2012 156.228 88.2861C156.498 88.2963 156.767 88.2409 157.011 88.1246L159.435 87.1959C159.641 87.1329 159.832 87.0285 159.997 86.889C160.224 86.6238 160.347 86.2853 160.344 85.9361C160.518 83.9657 155.367 68.3919 154.713 66.5305C152.733 60.9099 150.1 55.4912 148.811 49.6728C148.451 48.0577 148.261 45.5704 147.078 44.2823C146.589 43.7493 146.755 43.9755 146.169 44.2541C145.873 44.3824 145.587 44.5322 145.312 44.7023C144.97 44.9405 144.684 45.2523 144.477 45.6149C144.271 45.9774 144.147 46.3816 144.117 46.7979Z" fill="#464353"/>
<path d="M151.473 57.4617C152.123 60.8979 152.794 64.3259 153.461 67.7621L162.946 65.2789C163.023 64.2856 162.493 63.365 162.138 62.4524C161.273 60.2841 161.253 57.8695 160.554 55.6407C160.025 53.9448 159.104 52.3862 158.607 50.6782C158.32 49.6849 158.175 48.6593 157.892 47.6539C157.589 46.6666 157.216 45.7019 156.777 44.7669C156.245 43.411 155.55 42.1244 154.709 40.9351C153.497 41.3873 152.204 41.9122 151.513 43.0064C151.159 43.623 150.957 44.3151 150.924 45.0253C150.758 47.1533 151.53 49.2933 151.275 51.4091C151.013 53.424 151.08 55.4682 151.473 57.4617Z" fill="#1B64AA"/>
<path d="M163.103 103.169C163.637 105.188 162.865 107.312 162.235 109.311C161.286 112.321 160.639 115.419 160.304 118.557C160.263 119.356 160.102 120.144 159.827 120.895C159.528 121.57 159.019 122.139 158.672 122.781C157.718 124.469 157.743 126.528 157.949 128.458C158.086 129.73 158.292 130.998 158.547 132.249C158.858 133.78 159.241 135.379 158.793 136.873C159.544 136.707 160.053 137.68 160.005 138.443C159.956 139.207 159.71 140.059 160.078 140.717C161.007 141.056 161.015 142.332 160.987 143.321C161.002 145.036 161.219 146.744 161.633 148.409C163.039 155.165 164.531 161.903 166.109 168.622C169.522 169.68 173.51 170.782 176.766 169.316C177.372 169.046 177.978 168.614 178.115 167.96C178.15 167.607 178.106 167.251 177.986 166.918L176.442 161.305C176.067 159.949 175.691 158.548 175.889 157.155C176.038 156.117 176.491 154.998 175.982 154.082C175.808 153.767 175.534 153.521 175.332 153.222C174.524 152.039 174.948 150.456 175.012 149.022C175.038 148.701 175.016 148.377 174.948 148.061C174.837 147.693 174.682 147.339 174.487 147.008C173.212 144.533 172.6 141.77 172.71 138.989C172.758 138.634 172.709 138.272 172.568 137.943C172.47 137.807 172.383 137.664 172.306 137.515C172.246 137.255 172.275 136.983 172.391 136.744C171.928 136.392 171.51 135.986 171.146 135.532C171.37 135.393 171.56 135.205 171.701 134.982C171.841 134.758 171.929 134.506 171.958 134.244C171.987 133.982 171.956 133.717 171.867 133.468C171.778 133.22 171.634 132.995 171.445 132.811C171.61 132.778 171.762 132.699 171.885 132.585C172.008 132.47 172.097 132.324 172.142 132.162C172.187 132 172.186 131.829 172.139 131.668C172.092 131.506 172.002 131.361 171.878 131.248C171.68 131.111 171.417 131.05 171.276 130.844C171.058 130.546 171.235 130.13 171.413 129.811L172.354 128.111C173.057 126.847 173.215 125.284 173.97 124.073C175.053 122.308 175.76 120.342 176.459 118.396L179.177 110.898L181.007 112.485C181.617 112.95 182.128 113.532 182.51 114.197C182.77 114.853 182.935 115.544 182.999 116.248C183.67 120.318 186.231 123.847 187.18 127.856C187.39 128.749 187.531 129.685 188.045 130.449C188.228 130.683 188.393 130.931 188.537 131.192C188.671 131.589 188.741 132.004 188.743 132.423C188.828 133.243 189.088 134.036 189.507 134.746C189.925 135.457 190.491 136.069 191.167 136.542C192.068 137.159 193.187 137.583 193.676 138.561C193.774 138.863 193.909 139.152 194.08 139.421C194.516 139.945 195.457 140.006 195.643 140.664C195.748 141.032 195.554 141.472 195.76 141.795C195.877 141.944 196.032 142.06 196.209 142.13L198.839 143.442C201.78 144.912 203.282 148.288 205.452 150.747C206.201 151.547 206.864 152.424 207.431 153.363C208.368 155.039 208.801 157.142 210.384 158.208C210.81 158.429 211.197 158.717 211.531 159.06C212.028 159.714 211.846 160.631 211.891 161.455C211.935 162.278 212.566 163.26 213.349 163.009C213.075 164.007 213.075 165.06 213.349 166.058C216.79 165.881 220.071 164.553 222.665 162.287C223.432 161.616 224.172 160.76 224.18 159.743C224.192 159.567 224.152 159.392 224.067 159.238C223.911 159.039 223.707 158.885 223.473 158.79C221.013 157.457 220.273 154.368 219.029 151.861C217.942 149.648 216.335 147.742 214.989 145.687C212.065 141.266 210.069 135.916 205.646 132.996C204.672 132.354 203.541 131.785 203.052 130.723C202.781 130.13 202.749 129.451 202.535 128.838C202.321 128.224 201.808 127.626 201.153 127.626C201.517 126.738 201.444 125.656 201.468 124.695C201.493 124.268 201.444 123.841 201.323 123.431C201.155 122.99 200.937 122.57 200.673 122.179C199.519 120.226 198.941 117.986 199.008 115.719C199.041 114.552 199.247 113.349 198.895 112.234C198.717 111.673 198.406 111.16 198.192 110.619C197.87 109.639 197.699 108.615 197.687 107.583L197.445 103.702C197.408 102.41 197.24 101.125 196.944 99.8664C196.136 96.8542 195.328 84.2362 192.561 82.8149C189.794 81.3936 185.039 91.1044 181.924 91.2942C180.546 91.3515 179.185 91.6142 177.885 92.0735C175.812 92.8488 174.075 94.2943 172.383 95.7075L166.654 100.517C165.442 101.514 164.44 102.467 163.103 103.169Z" fill="#464353"/>
<path d="M135.609 20.7906C136.869 19.0706 139.035 18.158 141.168 18.0813C143.301 18.0046 145.401 18.6748 147.312 19.6237C147.876 19.9443 148.479 20.1913 149.106 20.3586C150.116 20.5645 151.239 20.29 152.152 20.7624C153.364 21.4044 153.598 23.0397 153.493 24.3964C153.388 25.7531 153.133 27.2592 153.856 28.4342C154.113 28.7693 154.346 29.1214 154.555 29.488C154.866 30.1866 154.685 30.9941 154.499 31.733C154.026 31.3293 153.759 30.7196 153.339 30.2512C152.919 29.7828 152.188 29.4678 151.667 29.8191C151.146 30.1704 151.154 30.8084 151.126 31.3818C151.097 31.9551 150.952 32.6415 150.411 32.8273C150.184 32.8787 149.948 32.8612 149.732 32.777C149.516 32.6928 149.33 32.5457 149.199 32.3549C148.274 31.2243 148.645 29.4194 147.728 28.2807C147.207 27.6347 146.339 27.3197 145.858 26.6414C145.478 26.1084 145.381 25.4301 145.05 24.8567C144.719 24.2833 143.947 23.8634 143.434 24.2591C143.259 24.4263 143.113 24.6214 143.002 24.8365C142.682 25.2945 142.217 25.6314 141.682 25.7925C141.146 25.9537 140.573 25.9299 140.053 25.7248C139.656 25.4811 139.226 25.2948 138.776 25.1716C138.482 25.1569 138.189 25.2247 137.932 25.3674C137.674 25.5101 137.461 25.7221 137.318 25.9792C137.028 26.493 136.888 27.0777 136.914 27.667C136.914 28.4746 137.059 29.3346 136.599 29.9806C136.424 30.2238 136.204 30.432 135.952 30.5944C135.278 31.0264 134.337 31.3172 133.714 30.8245C133.504 30.6282 133.347 30.381 133.259 30.1067C133.171 29.8323 133.156 29.54 133.214 29.2579C133.335 28.6959 133.494 28.1428 133.69 27.6024C134.046 26.3507 133.581 24.9415 133.969 23.7625C134.375 22.7006 134.927 21.7004 135.609 20.7906Z" fill="#464353"/>
<path d="M140.727 49.2771C140.667 49.5714 140.698 49.8772 140.816 50.1533C140.936 50.3413 141.1 50.4978 141.293 50.6096C142.651 51.4554 144.197 51.9559 145.793 52.0672C146.01 52.0709 146.224 52.1263 146.415 52.2287C146.795 52.479 146.819 53.0363 146.678 53.4804C146.489 53.8994 146.392 54.3535 146.391 54.8129C146.508 55.6568 147.51 56.0242 148.354 56.1494C149.538 56.2988 150.835 56.2221 151.772 55.4832C152.407 54.9044 152.891 54.1795 153.182 53.3714C155.501 48.0456 156.313 42.1585 158.66 36.8488C158.838 36.5021 158.956 36.1282 159.011 35.7424C159.036 35.5493 159.009 35.3531 158.932 35.1742C158.855 34.9953 158.732 34.8401 158.575 34.7249C158.139 34.4544 157.46 34.6078 157.165 34.1838C157.02 33.9698 157.036 33.6791 156.906 33.453C156.636 32.9725 155.925 33.0492 155.44 32.7706C155.06 32.5687 154.798 32.1528 154.374 32.0721C154.165 32.0603 153.957 32.0973 153.766 32.18C153.574 32.2627 153.405 32.3889 153.271 32.5485C151.893 33.8326 151.17 35.6536 150.402 37.3737C149.23 40.0103 147.858 42.5535 146.298 44.9809C146.48 44.6982 145.426 42.5582 145.014 42.4653C144.29 42.32 143.365 43.5878 142.973 44.0603C141.744 45.5504 140.965 47.3601 140.727 49.2771Z" fill="#1B64AA"/>
<path opacity="0.1" d="M155.404 33.1461C155.113 33.151 154.828 33.221 154.569 33.351C154.309 33.481 154.082 33.6676 153.905 33.8971C153.473 34.4584 153.388 35.2013 153.279 35.916C152.911 38.1803 152.103 40.3505 150.899 42.3038" fill="black"/>
<path opacity="0.1" d="M157.464 34.7572C157.063 34.7661 156.672 34.8792 156.328 35.0852C155.985 35.2912 155.701 35.5831 155.505 35.9322C155.237 36.5673 155.071 37.2403 155.012 37.9269C154.665 39.4489 153.997 40.8793 153.053 42.1221" fill="black"/>
<path d="M253.472 113.696V108.681C253.471 104.989 252.003 101.449 249.391 98.8391C246.778 96.2291 243.236 94.7628 239.543 94.7628H41.399C37.7055 94.7628 34.1632 96.2291 31.5512 98.8391C28.9391 101.449 27.4711 104.989 27.47 108.681V117.928L253.472 113.696Z" fill="#33323D"/>
<path d="M96.5208 88.8838C96.5208 88.8838 95.9553 123.956 102.176 135.496C108.398 147.036 111.064 197.238 111.064 197.238C111.064 197.238 176.281 203.981 221.728 189.162C267.174 174.343 363.877 168.283 363.877 168.283L347.581 58.4994C347.581 58.4994 267.073 53.3392 221.275 75.1715C175.477 97.0038 96.5208 88.8838 96.5208 88.8838Z" fill="#8DD070"/>
<path opacity="0.1" d="M96.5208 88.8838C96.5208 88.8838 95.9553 123.956 102.176 135.496C108.398 147.036 111.064 197.238 111.064 197.238C111.064 197.238 176.281 203.981 221.728 189.162C267.174 174.343 363.877 168.283 363.877 168.283L347.581 58.4994C347.581 58.4994 267.073 53.3392 221.275 75.1715C175.477 97.0038 96.5208 88.8838 96.5208 88.8838Z" fill="black"/>
<path d="M110.955 101.696C110.955 101.696 108.915 130.635 114.033 139.881C119.151 149.128 119.39 190.406 119.39 190.406C119.39 190.406 178.083 193.127 219.833 178.922C261.583 164.717 349.318 155.503 349.318 155.503L339.348 65.7231C339.348 65.7231 266.754 64.9761 224.386 84.9712C182.017 104.966 110.955 101.696 110.955 101.696Z" fill="#8DD070"/>
<path opacity="0.1" d="M223.741 162.484C232.092 161.445 237.054 146.089 234.823 128.187C232.592 110.284 224.013 96.6143 215.662 97.654C207.311 98.6937 202.35 114.049 204.581 131.952C206.812 149.854 215.39 163.524 223.741 162.484Z" fill="black"/>
<path opacity="0.2" d="M303.443 5.01904C303.443 5.01904 225.23 24.8042 188.348 59.6301C151.465 94.456 73.8217 110.946 73.8217 110.946C73.8217 110.946 84.0502 144.496 93.5112 153.573C102.972 162.65 120.917 209.618 120.917 209.618C120.917 209.618 185.055 196.026 223.756 167.972C262.456 139.917 352.651 104.486 352.651 104.486L303.443 5.01904Z" fill="black"/>
<path d="M72.6461 105.923C72.6461 105.923 82.8706 139.477 92.3236 148.554C101.776 157.631 119.729 204.595 119.729 204.595C119.729 204.595 183.876 191.007 222.58 162.953C261.284 134.898 351.471 99.4789 351.471 99.4789L302.263 0C302.263 0 224.054 19.7851 187.172 54.611C150.289 89.4369 72.6461 105.923 72.6461 105.923Z" fill="#8DD070"/>
<path opacity="0.1" d="M72.6461 105.923C72.6461 105.923 82.8706 139.477 92.3236 148.554C101.776 157.631 119.729 204.595 119.729 204.595C119.729 204.595 183.876 191.007 222.58 162.953C261.284 134.898 351.471 99.4789 351.471 99.4789L302.263 0C302.263 0 224.054 19.7851 187.172 54.611C150.289 89.4369 72.6461 105.923 72.6461 105.923Z" fill="black"/>
<path d="M90.3037 113.692C90.3037 113.692 97.248 141.864 104.96 149.091C112.672 156.319 125.562 195.526 125.562 195.526C125.562 195.526 182.256 180.109 217.631 153.783C253.007 127.457 333.688 91.8152 333.688 91.8152L296.64 9.396C296.64 9.396 227.323 30.9456 193.135 62.9734C158.947 95.0011 90.3037 113.692 90.3037 113.692Z" fill="#8DD070"/>
<path opacity="0.1" d="M216.324 136.953C223.952 133.402 223.96 117.266 216.341 100.911C208.721 84.5566 196.36 74.1772 188.731 77.7281C181.102 81.279 181.094 97.4155 188.714 113.77C196.333 130.124 208.695 140.504 216.324 136.953Z" fill="black"/>
<path opacity="0.1" d="M258.82 118.618V257.922C258.82 259.504 258.508 261.07 257.903 262.532C257.297 263.993 256.409 265.321 255.289 266.44C254.17 267.558 252.841 268.445 251.379 269.051C249.916 269.656 248.349 269.967 246.766 269.966H39.5286C36.3333 269.965 33.2693 268.696 31.0102 266.437C28.7512 264.178 27.4822 261.115 27.4822 257.922V104.575C33.4205 106.779 33.4205 106.779 39.5286 106.593H246.766C249.959 106.593 253.021 107.86 255.281 110.114C257.541 112.368 258.814 115.427 258.82 118.618Z" fill="black"/>
<path d="M258.82 120.391V259.694C258.819 262.889 257.549 265.953 255.288 268.211C253.028 270.47 249.962 271.739 246.766 271.739H39.5286C36.3333 271.738 33.2693 270.468 31.0102 268.21C28.7512 265.951 27.4822 262.888 27.4822 259.694V106.343C33.4205 108.544 33.4205 108.544 39.5286 108.362H246.766C249.959 108.362 253.022 109.629 255.282 111.884C257.543 114.139 258.815 117.199 258.82 120.391Z" fill="#504F60"/>
<path opacity="0.1" d="M258.23 171.893V216.441H215.006C209.147 216.363 203.555 213.981 199.441 209.812C195.326 205.644 193.019 200.023 193.019 194.167C193.019 188.311 195.326 182.69 199.441 178.522C203.555 174.353 209.147 171.971 215.006 171.893H258.23Z" fill="black"/>
<path d="M258.82 170.705V215.262H215.595C209.737 215.183 204.145 212.802 200.03 208.633C195.915 204.465 193.608 198.844 193.608 192.988C193.608 187.132 195.915 181.511 200.03 177.342C204.145 173.174 209.737 170.792 215.595 170.713L258.82 170.705Z" fill="#33323D"/>
<path opacity="0.1" d="M217.668 202.854C222.467 202.854 226.357 198.966 226.357 194.169C226.357 189.372 222.467 185.484 217.668 185.484C212.869 185.484 208.978 189.372 208.978 194.169C208.978 198.966 212.869 202.854 217.668 202.854Z" fill="black"/>
<path d="M218.258 201.675C223.057 201.675 226.947 197.787 226.947 192.99C226.947 188.193 223.057 184.305 218.258 184.305C213.459 184.305 209.568 188.193 209.568 192.99C209.568 197.787 213.459 201.675 218.258 201.675Z" fill="#1B64AA"/>
<path d="M333.85 170.322C334.193 174.041 331.378 177.65 332.198 181.293C332.375 182.072 332.711 182.807 332.832 183.594C333.171 185.758 331.882 187.806 330.65 189.614L320.066 205.136C319.642 205.818 319.135 206.445 318.555 207.001C316.536 208.802 313.498 208.616 310.84 209.153C308.971 209.532 307.207 210.312 305.669 211.439C305.604 211.494 305.564 211.571 305.555 211.655C305.546 211.739 305.569 211.824 305.62 211.891C306.06 212.489 306.642 212.967 307.313 213.283C307.985 213.598 308.725 213.74 309.466 213.696C309.745 214.063 309.466 214.6 309.062 214.863C308.493 215.266 307.713 215.363 307.6 216.324C307.56 216.66 307.628 216.999 307.794 217.293C308.22 217.946 308.883 218.408 309.644 218.582C313.308 219.7 317.267 217.734 320.01 215.057C322.753 212.379 324.72 209 327.411 206.274C328.901 204.768 330.594 203.476 332.129 202.014C335.191 199.099 337.57 195.554 339.869 192.005C340.56 190.935 341.255 189.837 341.545 188.597C341.836 187.357 341.699 186.106 342.026 184.906C342.454 183.332 343.606 182.08 344.563 180.76C346.442 178.175 347.694 175.014 347.447 171.832C347.201 168.65 345.226 165.505 342.22 164.423C341.289 164.049 340.261 163.986 339.291 164.245C338.059 164.625 337.15 165.642 336.31 166.615L334.29 168.937C333.786 169.446 333.388 170.05 333.119 170.714C332.989 171.047 332.959 171.41 333.03 171.76C333.102 172.11 333.273 172.432 333.523 172.688" fill="#FBBEBE"/>
<path opacity="0.05" d="M333.85 170.322C334.193 174.041 331.378 177.65 332.198 181.293C332.375 182.072 332.711 182.807 332.832 183.594C333.171 185.758 331.882 187.806 330.65 189.614L320.066 205.136C319.642 205.818 319.135 206.445 318.555 207.001C316.536 208.802 313.498 208.616 310.84 209.153C308.971 209.532 307.207 210.312 305.669 211.439C305.604 211.494 305.564 211.571 305.555 211.655C305.546 211.739 305.569 211.824 305.62 211.891C306.06 212.489 306.642 212.967 307.313 213.283C307.985 213.598 308.725 213.74 309.466 213.696C309.745 214.063 309.466 214.6 309.062 214.863C308.493 215.266 307.713 215.363 307.6 216.324C307.56 216.66 307.628 216.999 307.794 217.293C308.22 217.946 308.883 218.408 309.644 218.582C313.308 219.7 317.267 217.734 320.01 215.057C322.753 212.379 324.72 209 327.411 206.274C328.901 204.768 330.594 203.476 332.129 202.014C335.191 199.099 337.57 195.554 339.869 192.005C340.56 190.935 341.255 189.837 341.545 188.597C341.836 187.357 341.699 186.106 342.026 184.906C342.454 183.332 343.606 182.08 344.563 180.76C346.442 178.175 347.694 175.014 347.447 171.832C347.201 168.65 345.226 165.505 342.22 164.423C341.289 164.049 340.261 163.986 339.291 164.245C338.059 164.625 337.15 165.642 336.31 166.615L334.29 168.937C333.786 169.446 333.388 170.05 333.119 170.714C332.989 171.047 332.959 171.41 333.03 171.76C333.102 172.11 333.273 172.432 333.523 172.688" fill="black"/>
<path d="M341.861 266.058C339.55 267.467 336.67 267.552 333.983 267.224C333.551 267.172 333.038 267.14 332.771 267.475C332.367 267.959 332.844 268.686 333.337 269.062C334.921 270.251 336.783 271.017 338.746 271.286C340.499 271.535 342.268 271.652 344.038 271.638C348.886 271.723 353.733 271.803 358.504 271.109C358.787 271.087 359.062 271.008 359.312 270.875C359.62 270.659 359.833 270.334 359.91 269.966C360.237 268.723 359.607 267.39 358.654 266.526C357.7 265.662 356.476 265.181 355.28 264.717L351.079 263.082C350.094 262.698 348.514 261.681 347.443 261.761C345.432 261.907 343.529 265.08 341.861 266.058Z" fill="#3F3D56"/>
<path opacity="0.05" d="M341.861 266.058C339.55 267.467 336.67 267.552 333.983 267.224C333.551 267.172 333.038 267.14 332.771 267.475C332.367 267.959 332.844 268.686 333.337 269.062C334.921 270.251 336.783 271.017 338.746 271.286C340.499 271.535 342.268 271.652 344.038 271.638C348.886 271.723 353.733 271.803 358.504 271.109C358.787 271.087 359.062 271.008 359.312 270.875C359.62 270.659 359.833 270.334 359.91 269.966C360.237 268.723 359.607 267.39 358.654 266.526C357.7 265.662 356.476 265.181 355.28 264.717L351.079 263.082C350.094 262.698 348.514 261.681 347.443 261.761C345.432 261.907 343.529 265.08 341.861 266.058Z" fill="black"/>
<path d="M344.806 210.312C343.056 212.638 341.247 215.323 341.679 218.202C341.913 219.752 342.782 221.121 343.42 222.555C344.284 224.501 344.737 226.592 345.181 228.676C345.836 231.72 346.494 234.773 346.894 237.866C347.351 241.358 345.205 251.465 345.007 254.982C344.959 255.83 344.858 256.746 344.268 257.356C344.038 257.598 343.731 257.792 343.626 258.107C343.564 258.411 343.615 258.726 343.767 258.995C344.753 261.216 346.769 262.872 349.019 263.817C351.269 264.761 356.694 266.393 359.146 266.478C359.47 266.513 359.797 266.47 360.1 266.352C360.426 266.153 360.683 265.859 360.835 265.508C362.592 262.149 360.904 250.205 360.928 246.414C360.952 243.252 361.7 240.111 361.562 236.953C361.449 234.418 360.754 231.938 360.524 229.411C360.12 225.268 360.88 221.105 361.643 217.011C362.225 213.869 362.81 210.728 363.558 207.627C364.014 205.733 364.544 203.823 365.578 202.18C366.386 200.876 367.521 199.785 368.462 198.546C371.075 195.122 372.235 190.809 371.694 186.538C371.637 186.134 365.634 188.06 365.105 188.29C362.946 189.204 360.959 190.481 359.231 192.065C357.842 193.39 356.747 195.158 355.531 196.64C353.81 198.737 352.111 200.849 350.433 202.975C348.518 205.406 346.642 207.852 344.806 210.312Z" fill="#464353"/>
<path opacity="0.05" d="M344.806 210.171C343.056 212.496 341.247 215.186 341.679 218.061C341.913 219.615 342.782 220.984 343.42 222.417C344.284 224.359 344.737 226.455 345.181 228.535C345.836 231.583 346.494 234.636 346.894 237.725C347.351 241.221 345.205 251.324 345.007 254.841C344.959 255.689 344.858 256.609 344.268 257.219C344.038 257.457 343.731 257.651 343.626 257.966C343.564 258.269 343.614 258.585 343.767 258.854C344.753 261.079 346.769 262.731 349.019 263.7C351.269 264.669 356.694 265.513 359.146 265.593C359.47 265.629 359.797 265.586 360.1 265.468C360.427 265.272 360.684 264.978 360.835 264.628C362.592 261.269 360.904 250.092 360.928 246.297C360.952 243.131 361.7 239.994 361.562 236.832C361.449 234.296 360.754 231.817 360.524 229.294C360.12 225.147 360.88 220.984 361.643 216.89C362.225 213.752 362.811 210.611 363.558 207.506C364.014 205.612 364.544 203.702 365.578 202.059C366.386 200.755 367.521 199.664 368.462 198.425C371.075 195.002 372.236 190.688 371.694 186.416C371.637 186.013 365.634 187.939 365.105 188.169C362.946 189.086 360.96 190.364 359.231 191.948C357.842 193.269 356.747 195.037 355.531 196.519C353.81 198.616 352.111 200.729 350.433 202.858C348.518 205.27 346.642 207.708 344.806 210.171Z" fill="black"/>
<path d="M325.342 159.089C330.757 159.089 335.147 154.701 335.147 149.289C335.147 143.877 330.757 139.489 325.342 139.489C319.927 139.489 315.538 143.877 315.538 149.289C315.538 154.701 319.927 159.089 325.342 159.089Z" fill="#FBBEBE"/>
<path d="M334.173 148.877C335.079 150.321 336.266 151.568 337.665 152.544C339.063 153.519 340.644 154.203 342.313 154.554L341.574 157.239C340.297 161.85 338.863 166.728 335.3 169.926C335.704 168.363 335.187 166.696 334.306 165.339C333.426 163.982 332.189 162.916 330.978 161.863L325.334 156.977C325.171 156.844 325.034 156.683 324.93 156.5C324.791 156.156 324.791 155.771 324.93 155.426C325.649 153.189 327.701 151.792 329.374 150.282C330.213 149.501 330.962 148.629 331.608 147.682C332.735 146.075 333.434 147.69 334.173 148.877Z" fill="#FBBEBE"/>
<path d="M312.427 139.437L312.205 137.596C313.752 137.999 315.223 136.683 316.212 135.322C317.202 133.962 318.119 132.359 319.626 131.789C321.456 131.103 323.395 132.193 325.144 133.114C327.103 134.2 329.252 134.899 331.474 135.173C331.829 135.185 332.181 135.242 332.521 135.343C333.66 135.746 334.201 137.176 334.367 138.472C334.533 139.768 334.488 141.145 335.05 142.3C335.454 143.176 336.205 143.826 336.666 144.69C337.877 147.008 336.706 150.177 337.97 152.451L334.827 149.572C334.541 149.309 334.137 149.035 333.818 149.257C333.567 149.434 333.547 149.818 333.446 150.125C333.143 151.021 332.02 151.288 331.208 150.932C330.396 150.577 329.802 149.806 329.188 149.103C327.798 147.464 326.142 146.022 324.203 145.324C323.353 145.006 322.445 144.873 321.54 144.933C320.634 144.993 319.752 145.244 318.951 145.671C317.485 146.499 316.41 148.429 314.613 148.498C312.148 148.591 311.122 144.004 309.983 142.191C310.4 141.877 310.693 141.427 310.811 140.919C310.93 140.411 310.865 139.878 310.63 139.413C310.795 139.344 312.391 139.154 312.427 139.437Z" fill="#464353"/>
<path d="M191.159 82.1446C190.371 82.845 189.643 83.6094 188.982 84.43C188.316 85.262 187.962 86.3002 187.98 87.3655C187.983 87.6744 188.082 87.9747 188.263 88.2255C188.355 88.3456 188.482 88.4338 188.627 88.478C188.772 88.5221 188.927 88.52 189.071 88.4718C189.233 88.3891 189.372 88.2669 189.475 88.1165C189.902 87.6037 190.355 87.1131 190.832 86.6468C191.006 86.4731 191.236 86.2914 191.47 86.356C191.575 86.3933 191.67 86.4557 191.745 86.5377C192.017 86.7726 192.215 87.0811 192.315 87.426C192.456 88.0438 192.096 88.6616 191.688 89.1461C191.28 89.6307 190.8 90.095 190.634 90.7047C190.571 90.8657 190.571 91.0444 190.634 91.2054C190.712 91.3219 190.821 91.4142 190.949 91.4719C191.528 91.7903 192.169 91.9777 192.828 92.021C193.487 92.0642 194.147 91.9622 194.763 91.7223C195.571 91.3952 196.29 90.8339 197.122 90.5432C197.482 90.4447 197.831 90.3094 198.164 90.1394C198.402 89.9811 198.606 89.7772 198.765 89.5395C198.924 89.3017 199.034 89.035 199.089 88.7545C199.194 88.194 199.215 87.621 199.15 87.0546C199.049 84.8611 198.579 82.7002 197.76 80.6628C197.713 80.5313 197.632 80.4145 197.526 80.3236C197.404 80.2495 197.264 80.2117 197.122 80.2146C196.088 80.1056 194.391 79.5766 193.393 79.9602C193.044 80.1514 192.743 80.4193 192.512 80.7435C192.327 80.9494 191.159 81.8741 191.159 82.1446Z" fill="#A1616A"/>
<path d="M190.832 81.2321C190.832 80.2469 189.62 77.8687 191.547 77.7112C191.547 76.6573 190.056 76.0032 190.335 74.8848C190.424 74.5133 190.739 74.2104 190.775 73.8309C190.897 72.7528 188.949 72.1673 189.273 71.1336C189.394 70.7299 189.822 70.4957 189.915 70.0959C190.133 69.1632 188.465 68.7473 188.432 67.7904C188.432 67.4673 188.614 67.1645 188.598 66.8415C188.598 66.4377 188.247 66.1308 188.053 65.7796C187.548 64.8791 187.794 63.4861 186.873 63.0217C187.483 63.0742 187.681 62.1698 187.431 61.6166C187.18 61.0634 186.667 60.5829 186.663 59.9692C186.693 59.7468 186.693 59.5213 186.663 59.2989C186.493 58.7094 185.528 58.6609 185.366 58.0876C185.345 57.8675 185.339 57.6463 185.346 57.4254C185.281 56.9691 184.813 56.6784 184.372 56.5492C183.915 56.4715 183.475 56.3144 183.072 56.0848C182.789 55.8708 182.462 55.5155 182.159 55.6811C182.046 55.7497 181.989 55.8789 181.904 55.9758C181.541 56.3998 180.846 56.214 180.389 55.9031C179.04 54.9865 178.369 53.3432 178.083 51.7402C177.796 50.1372 177.804 48.4817 177.444 46.8948C177.335 46.4003 177.189 45.9144 177.008 45.4412C176.855 45.0375 176.362 44.4035 176.329 43.9957C176.257 43.067 178.18 43.7009 178.911 43.7938C179.621 43.8631 180.323 43.9983 181.007 44.1976C181.738 44.4736 182.454 44.7876 183.152 45.1384C186.069 46.4265 189.592 46.5839 191.935 48.7482C192.706 49.4588 193.357 50.3916 194.359 50.7146C194.818 50.8026 195.271 50.92 195.716 51.0659C196.827 51.5867 197.001 53.0605 197.607 54.1265C197.797 54.408 197.963 54.7052 198.103 55.0148C198.22 55.38 198.275 55.7622 198.265 56.1454L198.35 58.9436C198.487 63.6314 198.625 68.3314 198.124 72.991C197.962 74.5294 197.72 76.1122 198.176 77.5901C198.297 77.9938 198.467 78.3734 198.58 78.7812C198.68 79.2594 198.731 79.7464 198.734 80.2348L198.798 82.0478C198.821 82.1888 198.789 82.333 198.709 82.4515C198.642 82.5064 198.563 82.5453 198.478 82.5656C198.394 82.5859 198.306 82.5869 198.221 82.5686C195.696 82.3425 193.143 80.9212 190.759 81.7813" fill="#464353"/>
<path d="M306.053 220.536C322.554 220.536 335.93 218.603 335.93 216.219C335.93 213.835 322.554 211.903 306.053 211.903C289.552 211.903 276.175 213.835 276.175 216.219C276.175 218.603 289.552 220.536 306.053 220.536Z" fill="#504F60"/>
<path d="M331.757 216.429C331.232 214.18 330.905 212.206 330.905 212.206C330.905 212.206 331.026 209.759 329.927 207.922V207.308V202.786C330.24 201.964 330.623 201.171 331.07 200.415C331.878 198.994 331.07 193.785 331.07 193.785C331.07 193.785 328.053 186.441 328.784 181.781C329.515 177.121 322.587 161.091 322.587 161.091C322.63 159.545 322.848 158.009 323.237 156.513C323.311 156.198 323.341 155.874 323.326 155.552C323.326 155.511 323.326 155.475 323.326 155.434C323.326 155.394 323.326 155.459 323.326 155.471C323.221 152.398 320.789 146.64 320.789 146.64L321.117 135.665C321.117 135.665 322.668 129.205 320.139 120.504C319.254 117.471 318.689 115.044 318.329 113.171C318.289 112.961 318.248 112.767 318.216 112.561C323.423 111.754 327.402 111.108 327.402 111.108C327.402 111.108 324.381 98.4734 322.341 96.2607C320.301 94.048 318.669 87.099 318.669 87.099C318.669 87.099 317.606 78.1795 319.323 75.5711C321.04 72.9627 321.282 68.4646 321.282 68.4646C321.282 68.4646 325.197 65.6382 325.69 64.3582C326.182 63.0782 326.994 60.2518 326.994 58.7537C326.994 57.2557 326.506 55.9273 326.667 55.1197C326.829 54.3122 325.524 51.3283 326.178 49.907C326.348 49.4704 326.435 49.0064 326.437 48.5382C326.438 48.5247 326.438 48.5112 326.437 48.4978C326.443 47.254 326.328 46.0126 326.094 44.7911C324.961 43.8354 323.64 43.1295 322.215 42.7197L322.131 42.3805L321.908 41.4922C321.784 41.4103 321.656 41.3348 321.525 41.2661V40.9431L321.488 39.6591L322.102 36.7761C323.314 31.7612 316.612 31.0142 316.612 31.0142C316.206 30.2449 315.53 29.6526 314.714 29.3506C313.368 28.8782 314.492 36.8932 315.118 37.4262C315.59 37.83 317.053 40.3253 317.76 41.5609L317.873 41.7628C317.762 41.8622 317.659 41.9702 317.566 42.0858L317.82 43.8261L317.861 44.0926C317.416 44.6439 317.056 45.2574 316.79 45.9136C316.79 45.9136 318.002 47.2541 317.772 48.74C317.541 50.226 318.147 52.1116 318.176 52.2125C318.103 52.1277 317.243 51.1991 316.382 51.4252C315.522 51.6513 313.118 52.3741 313.118 52.3741C313.118 52.3741 311.324 52.689 311.502 53.0847C311.68 53.4804 310.29 55.2166 310.29 55.2166L305.467 50.6459C305.418 50.5086 305.366 50.3713 305.325 50.2421C305.129 49.5831 304.993 48.9072 304.921 48.2232C305.447 48.0983 305.963 47.935 306.465 47.7346C306.971 47.5607 307.429 47.2671 307.798 46.8786C308.287 46.3012 308.379 45.5179 308.577 44.7992C308.957 43.394 309.789 42.1463 310.367 40.8098C311.345 38.5514 311.661 36.0614 311.276 33.6307C311.202 32.8816 310.948 32.1614 310.537 31.531C309.749 30.4489 308.319 30.0088 307.281 29.1447C306.242 28.2806 305.572 26.9602 304.36 26.3182C303.265 25.7328 301.936 25.8014 300.7 26.0033C298.286 26.4012 295.966 27.2446 293.861 28.4906C293.158 28.8943 292.382 29.391 291.574 29.2416C290.879 29.1164 290.362 28.5632 289.926 28.0302C289.931 28.0082 289.938 27.9866 289.946 27.9656C289.927 27.946 289.909 27.9243 289.894 27.901C289.383 29.035 289.126 30.2672 289.142 31.5108C289.142 31.7046 289.142 31.9146 289.167 32.0882V32.2901C289.167 32.3466 289.167 32.4032 289.167 32.4557C289.166 32.5417 289.154 32.6274 289.13 32.71C289.028 32.957 288.874 33.1789 288.678 33.3601C288.529 33.5285 288.394 33.708 288.274 33.8971C288.274 33.8325 288.314 33.7679 288.338 33.6993C288.03 34.1489 287.857 34.6769 287.837 35.2215C287.815 35.618 287.945 36.0081 288.201 36.3117C288.443 36.5465 288.707 36.7574 288.989 36.9416C288.893 37.4747 288.844 38.0152 288.843 38.5568C288.852 40.1624 289.276 41.7385 290.073 43.1327C290.87 44.5269 292.013 45.6919 293.392 46.5152C293.449 46.6485 293.501 46.7858 293.554 46.919C294.172 48.5341 294.636 50.4319 294.43 52.1681C294.43 52.2933 294.394 52.4225 294.374 52.5477C294.354 52.6728 294.253 52.6809 294.2 52.7496C294.2 52.7496 286.23 52.8303 284.355 51.1344C282.481 49.4386 279.621 55.2813 279.621 55.2813C279.621 55.2813 276.765 55.8344 276.191 55.2813C275.617 54.7281 272.277 55.2045 272.277 55.2045C270.908 53.9879 269.127 53.3381 267.296 53.3875C266.186 52.5448 264.962 51.865 263.66 51.3686L263.571 51.3363C262.996 51.127 262.382 51.0497 261.773 51.1102C261.773 51.1102 257.855 47.88 256.712 46.1357C255.568 44.3914 250.127 37.9511 250.103 37.9228V37.6119L250.042 36.6751C249.88 36.7005 249.717 36.714 249.553 36.7155C249.525 36.6227 249.484 36.5136 249.444 36.3885C249.131 35.4747 248.744 34.5876 248.289 33.7356C248.289 33.7356 248.289 32.5526 248.632 32.2538C248.975 31.955 248.491 27.6144 248.491 27.6144C248.491 27.6144 244.96 19.3652 241.797 25.5228C241.797 25.5228 235.818 29.5081 240.835 34.1515C240.835 34.1515 242.855 35.1206 243.122 35.8878C243.308 36.3844 243.986 37.7775 244.443 38.7142L244.649 39.118L244.592 39.1665L244.665 39.9417L244.697 40.2405C243.752 40.7775 243.11 41.3105 243.267 41.7103C243.546 42.3943 243.737 43.1106 243.837 43.8422C243.837 43.8422 250.777 52.5315 251.674 56.2422C251.674 56.2422 270.285 67.2977 276.405 68.0851L275.322 73.5966C275.165 75.0922 275.084 76.5949 275.08 78.0988C275.161 79.2818 274.345 84.6521 274.345 84.6521C274.345 84.6521 273.282 92.55 272.386 93.6563C271.489 94.7627 271.65 99.499 271.65 99.499C271.439 101.766 271.033 104.012 270.438 106.21C269.542 109.21 270.192 112.925 270.192 112.925C270.192 112.925 267.094 120.031 274.519 115.214C274.519 115.214 278.154 114.988 282.364 114.843C282.364 114.98 282.364 115.121 282.364 115.246C282.364 115.787 282.364 116.373 282.335 116.987C282.279 121.057 282.255 126.677 282.44 130.909C282.768 138.411 285.054 153.258 285.054 153.258V160.732C284.907 161.433 284.833 162.148 284.836 162.864C284.788 165.494 285.488 168.083 286.856 170.33L287.429 175.304C287.429 175.304 288.771 178.583 288.795 180.553C288.79 180.712 288.771 180.87 288.738 181.026C288.686 181.277 288.664 181.533 288.674 181.789C288.597 184.05 289.958 189.461 289.958 189.461C289.958 189.461 290.039 194.908 290.855 195.227C291.554 195.497 289.922 198.364 289.437 199.188C289.424 199.137 289.415 199.086 289.409 199.034L289.308 199.196C289.14 199.637 289.053 200.105 289.053 200.577C289.007 200.949 289.068 201.326 289.228 201.665C289.388 202.004 289.642 202.29 289.958 202.491C291.51 203.44 292.342 204.227 291.025 204.542C290.54 204.617 290.06 204.718 289.587 204.845C289.587 204.784 289.538 204.72 289.518 204.663C289.332 204.736 289.177 204.87 289.079 205.044C288.981 205.217 288.947 205.42 288.981 205.616C288.993 206.257 289.158 206.885 289.461 207.449C290.766 210.373 291.671 211.487 291.671 211.487L292.297 211.418C292.205 211.657 292.083 211.884 291.934 212.093C291.695 212.431 291.38 212.708 291.013 212.9C290.671 213.105 290.289 213.235 289.894 213.284C289.451 213.298 289.017 213.406 288.619 213.599C288.221 213.792 287.868 214.067 287.583 214.406C286.775 215.46 286.258 216.894 287.866 218.153L293.703 220.172C293.703 220.172 303.746 221.476 303.213 219.223C302.679 216.97 302.356 215 302.356 215C302.399 213.624 302.123 212.257 301.548 211.006C301.443 210.802 301.324 210.605 301.193 210.417L301.548 210.381C301.548 210.381 302.283 205.402 303.261 204.457C303.487 204.239 303.54 204.053 303.487 203.94C303.588 203.67 303.33 203.512 303.003 203.419L302.93 203.617C302.61 203.548 302.284 203.511 301.956 203.508C301.956 203.508 301.629 200.904 302.692 199.955C302.777 199.847 302.84 199.722 302.875 199.589C302.911 199.455 302.918 199.316 302.898 199.18C302.906 198.822 302.868 198.466 302.784 198.118C302.774 198.14 302.762 198.162 302.748 198.182C302.215 195.816 300.405 192.057 300.405 192.057C300.405 192.057 300.324 189.691 300.979 188.742C301.633 187.793 300.894 175.87 300.894 175.87C300.894 175.87 301.14 170.108 300.405 167.423C299.67 164.738 301.302 161.576 301.302 161.576C301.302 161.576 301.302 161.515 301.302 161.406V161.366L301.209 160.457C301.207 160.476 301.207 160.495 301.209 160.514C301.043 158.988 300.732 156.222 300.502 154.946C300.175 153.129 300.587 144.448 300.587 144.448L302.053 140.733L304.667 147.133L307.442 155.661C307.442 155.661 308.816 157.461 308.848 159.295C308.848 159.383 308.848 159.472 308.848 159.561C308.826 159.75 308.815 159.94 308.816 160.13C308.767 161.208 309.062 162.273 309.66 163.171C309.66 163.171 310.395 167.209 311.538 168.222C312.682 169.236 312.682 171.222 312.682 171.222C312.682 171.222 314.067 177.069 314.702 178.086C315.251 178.951 315.279 181.317 315.275 182.056C315.275 182.189 315.275 182.266 315.275 182.266C315.275 182.266 315.469 184.357 315.461 186.109C315.461 186.328 315.461 186.537 315.461 186.735C315.463 186.721 315.463 186.706 315.461 186.691C315.461 187.17 315.404 187.647 315.291 188.112L315.267 188.193C315.267 188.092 315.267 187.995 315.295 187.898C315.011 189.088 314.876 190.309 314.891 191.532C314.855 193.632 315.174 196.119 316.447 197.589C318.652 200.117 320.038 199.802 320.038 199.802C320.038 199.802 318.98 202.959 317.671 203.593C317.621 203.616 317.575 203.646 317.533 203.682C317.533 203.617 317.509 203.557 317.501 203.496C317.355 203.654 317.244 203.84 317.174 204.043C317.105 204.246 317.078 204.461 317.097 204.675C317.004 206.064 317.881 208.309 318.713 209.355C319.022 209.657 319.401 209.879 319.816 210.001C319.75 210.047 319.681 210.089 319.61 210.126C319.465 210.206 319.315 210.277 319.161 210.34C318.949 210.43 318.724 210.489 318.495 210.514C318.052 210.526 317.617 210.632 317.218 210.826C316.82 211.019 316.467 211.296 316.184 211.636C315.376 212.686 314.859 214.12 316.467 215.379L322.304 217.398C322.304 217.398 332.282 218.678 331.757 216.429Z" fill="url(#paint0_linear)"/>
<path d="M293.416 220.16L287.761 218.141C286.201 216.882 286.698 215.448 287.486 214.394C287.757 214.058 288.097 213.784 288.483 213.59C288.869 213.397 289.292 213.288 289.724 213.272C290.107 213.223 290.475 213.092 290.803 212.888C291.161 212.693 291.468 212.417 291.699 212.081C292.112 211.426 292.335 210.67 292.342 209.896C292.342 209.896 298.547 208.079 300.243 209.896C300.546 210.225 300.799 210.596 300.995 210.998C301.558 212.253 301.835 213.617 301.803 214.992C301.803 214.992 302.118 216.962 302.631 219.215C303.144 221.469 293.416 220.16 293.416 220.16Z" fill="#2D293D"/>
<path d="M321.064 217.374L315.409 215.355C313.849 214.095 314.346 212.662 315.134 211.612C315.403 211.275 315.742 211 316.128 210.806C316.513 210.612 316.936 210.504 317.368 210.49C317.591 210.467 317.809 210.408 318.014 210.316C318.164 210.253 318.309 210.182 318.45 210.102C320.03 209.234 319.99 207.102 319.99 207.102C319.99 207.102 326.191 205.285 327.891 207.102C328.119 207.348 328.318 207.619 328.485 207.91C329.548 209.747 329.43 212.198 329.43 212.198C329.43 212.198 329.745 214.172 330.238 216.421C330.731 218.67 321.064 217.374 321.064 217.374Z" fill="#2D293D"/>
<path opacity="0.1" d="M300.247 209.892C300.55 210.221 300.803 210.592 300.999 210.994L291.708 212.073C292.12 211.418 292.343 210.662 292.35 209.888C292.35 209.888 298.551 208.075 300.247 209.892Z" fill="black"/>
<path opacity="0.1" d="M328.493 207.918V209.658C327.047 212.036 320.054 211.515 318.022 210.324C318.172 210.261 318.317 210.19 318.459 210.11C320.038 209.242 319.998 207.11 319.998 207.11C319.998 207.11 326.199 205.293 327.899 207.11C328.127 207.356 328.326 207.627 328.493 207.918Z" fill="black"/>
<path d="M329.596 200.415C329.164 201.174 328.795 201.967 328.493 202.786V209.024C326.91 211.628 318.697 210.76 317.586 209.339C316.475 207.918 315.316 204.219 316.564 203.577C317.812 202.935 318.854 199.786 318.854 199.786C318.854 199.786 317.509 200.101 315.376 197.573C313.243 195.045 313.877 189.441 314.273 188.1C314.669 186.76 314.273 182.258 314.273 182.258C314.273 182.258 314.354 179.096 313.724 178.07C313.094 177.045 311.749 171.206 311.749 171.206C311.749 171.206 311.749 169.232 310.642 168.206C309.535 167.18 308.824 163.151 308.824 163.151C308.177 162.144 307.898 160.944 308.036 159.755C308.27 157.78 306.691 155.649 306.691 155.649L304.004 147.117L301.476 140.721L300.054 144.432C300.054 144.432 299.65 153.117 299.977 154.93C300.304 156.743 300.785 161.564 300.785 161.564C300.785 161.564 299.205 164.721 299.916 167.407C300.627 170.092 300.369 175.862 300.369 175.862C300.369 175.862 301.08 187.781 300.445 188.73C299.811 189.679 299.892 192.049 299.892 192.049C299.892 192.049 303.124 198.994 302.106 199.943C301.088 200.892 301.395 203.496 301.395 203.496C301.395 203.496 303.604 203.496 302.659 204.445C301.714 205.394 300.999 210.369 300.999 210.369L291.445 211.487C291.445 211.487 290.572 210.385 289.308 207.449C288.044 204.514 289.542 204.845 290.815 204.526C292.087 204.207 291.283 203.424 289.781 202.475C288.278 201.526 289.15 199.394 289.15 199.394C289.15 199.394 291.441 195.526 290.649 195.211C289.857 194.896 289.781 189.445 289.781 189.445C289.781 189.445 288.201 182.984 288.597 181.232C288.993 179.48 287.333 175.313 287.333 175.313L286.779 170.338C285.089 167.515 284.472 164.178 285.042 160.938V153.266C285.042 153.266 282.828 138.423 282.513 130.921C282.311 126.116 282.368 119.559 282.432 115.469C282.473 113.175 282.513 111.653 282.513 111.653L316.641 108.1C316.641 108.1 316.608 109.674 317.259 113.167C317.61 115.041 318.156 117.467 319.012 120.5C321.46 129.185 319.961 135.657 319.961 135.657L319.642 146.636C319.642 146.636 322.644 153.977 322.013 156.505C321.633 158.005 321.418 159.544 321.375 161.091C321.375 161.091 328.089 177.121 327.378 181.781C326.667 186.441 329.588 193.785 329.588 193.785C329.588 193.785 330.388 198.994 329.596 200.415Z" fill="#464353"/>
<path opacity="0.05" d="M310.084 159.278L320.474 157.893C320.474 157.893 314.588 163.898 310.084 159.278Z" fill="black"/>
<path opacity="0.1" d="M318.972 147.747C318.972 147.747 319.327 151.421 317.077 152.802C317.077 152.802 321.104 152.172 318.972 147.747Z" fill="black"/>
<path opacity="0.1" d="M318.333 136.061C318.333 136.061 309.648 143.208 306.489 142.615C303.33 142.021 318.333 136.061 318.333 136.061Z" fill="black"/>
<path opacity="0.1" d="M297.206 162.63C297.206 162.63 290.609 164.128 290.411 166.777C290.213 169.425 297.206 162.63 297.206 162.63Z" fill="black"/>
<path opacity="0.05" d="M298.656 195.562C298.656 195.562 289.336 197.298 291.982 198.481C294.628 199.664 298.975 200.613 298.975 200.613C298.975 200.613 301.985 200.771 298.656 195.562Z" fill="black"/>
<g opacity="0.05">
<path opacity="0.05" d="M290.1 200.363C289.865 200.217 289.667 200.019 289.519 199.786C289.372 199.552 289.279 199.289 289.247 199.014L289.15 199.18C289.15 199.18 288.282 201.312 289.785 202.257C289.954 202.366 290.12 202.475 290.269 202.58C290.548 202.527 290.847 202.487 291.134 202.414C292.406 202.099 291.603 201.312 290.1 200.363Z" fill="black"/>
<path opacity="0.05" d="M302.106 199.729C302.364 199.495 302.356 198.889 302.199 198.114C301.795 198.724 301.678 199.677 301.669 200.399C301.768 200.148 301.916 199.92 302.106 199.729Z" fill="black"/>
<path opacity="0.05" d="M300.672 160.445C300.328 161.379 300.116 162.356 300.041 163.349C300.222 162.663 300.464 161.996 300.765 161.354L300.672 160.445Z" fill="black"/>
<path opacity="0.05" d="M322.018 156.303C322.08 156.019 322.108 155.729 322.102 155.438C321.985 156.028 321.904 156.573 321.844 157.054C321.896 156.807 321.953 156.573 322.018 156.303Z" fill="black"/>
<path opacity="0.05" d="M300.449 188.52C300.579 188.326 300.651 187.672 300.684 186.764C300.391 187.467 300.237 188.219 300.227 188.98C300.283 188.819 300.357 188.664 300.449 188.52Z" fill="black"/>
<path opacity="0.05" d="M302.389 203.411C301.899 204.995 301.535 206.616 301.302 208.257L291.748 209.359C291.748 209.359 290.875 208.257 289.611 205.321C289.509 205.095 289.419 204.863 289.34 204.627C288.767 204.889 288.532 205.483 289.292 207.215C290.556 210.138 291.433 211.253 291.433 211.253L300.987 210.147C300.987 210.147 301.698 205.172 302.643 204.223C303.128 203.767 302.829 203.529 302.389 203.411Z" fill="black"/>
<path opacity="0.05" d="M289.785 189.231C289.785 189.231 289.861 194.678 290.653 194.993C291.057 194.092 291.32 193.236 290.964 193.095C290.156 192.78 290.096 187.329 290.096 187.329C290.096 187.329 288.516 180.869 288.912 179.116C289.308 177.364 287.648 173.197 287.648 173.197L287.094 168.222C285.404 165.399 284.787 162.062 285.357 158.822V151.15C285.357 151.15 283.143 136.308 282.828 128.805C282.626 124 282.683 117.443 282.747 113.353C282.747 112.614 282.772 111.96 282.784 111.406L282.513 111.435C282.513 111.435 282.469 112.953 282.432 115.25C282.368 119.341 282.307 125.898 282.513 130.699C282.828 138.201 285.038 153.048 285.038 153.048V160.72C284.471 163.959 285.089 167.294 286.779 170.116L287.328 175.09C287.328 175.09 288.989 179.274 288.593 181.014C288.197 182.754 289.785 189.231 289.785 189.231Z" fill="black"/>
<path opacity="0.05" d="M317.909 207.231C317.133 206.108 316.616 204.827 316.394 203.48C315.421 204.36 316.54 207.776 317.606 209.133C318.709 210.554 326.926 211.422 328.513 208.814V207.312C326.36 209.424 318.951 208.576 317.909 207.231Z" fill="black"/>
<path opacity="0.05" d="M329.915 198.308C329.482 199.066 329.112 199.859 328.808 200.678V201.796C328.99 201.393 329.245 200.851 329.616 200.213C329.866 199.592 329.985 198.925 329.964 198.255C329.964 198.255 329.927 198.291 329.915 198.308Z" fill="black"/>
<path opacity="0.05" d="M318.394 199.555C318.694 198.947 318.955 198.32 319.174 197.678C319.174 197.678 317.828 197.993 315.695 195.465C314.144 193.628 314.055 190.155 314.277 187.886C313.873 189.231 313.247 194.835 315.38 197.363C316.774 199.014 317.828 199.45 318.394 199.555Z" fill="black"/>
<path opacity="0.05" d="M314.273 182.044C314.413 183.599 314.465 185.162 314.431 186.723C314.47 186.477 314.524 186.233 314.593 185.993C314.996 184.648 314.593 180.15 314.593 180.15C314.593 180.15 314.673 176.988 314.039 175.963C313.405 174.937 312.084 169.09 312.084 169.09C312.084 169.09 312.084 167.116 310.977 166.09C309.87 165.065 309.159 161.035 309.159 161.035C308.506 160.03 308.221 158.83 308.351 157.639C308.59 155.665 307.01 153.533 307.01 153.533L304.324 145.005L301.795 138.609L300.369 142.324C300.369 142.324 300.369 142.792 300.32 143.535L301.476 140.519L304.004 146.903L306.691 155.431C306.691 155.431 308.27 157.562 308.032 159.537C307.902 160.728 308.187 161.928 308.84 162.933C308.84 162.933 309.551 166.971 310.658 167.988C311.765 169.006 311.761 170.988 311.761 170.988C311.761 170.988 313.106 176.831 313.736 177.852C314.366 178.874 314.273 182.044 314.273 182.044Z" fill="black"/>
</g>
<path d="M320.907 36.7641L320.313 39.6471L320.349 40.9311L320.373 41.8759L317.077 42.2151L316.709 41.5327C316.027 40.2972 314.609 37.7857 314.152 37.398C313.542 36.8893 312.455 28.8702 313.748 29.3467C314.544 29.6539 315.197 30.2452 315.582 31.0062C315.582 31.0062 322.074 31.7492 320.907 36.7641Z" fill="#FFCDD3"/>
<path opacity="0.1" d="M320.373 41.8759L317.077 42.215L316.709 41.5327C317.153 41.0281 317.757 40.6929 318.42 40.5839C319.083 40.4749 319.763 40.599 320.345 40.9351L320.373 41.8759Z" fill="black"/>
<path d="M321.206 43.4385L316.859 44.4439L316.766 43.7978L316.519 42.0576C316.519 42.0576 318.24 39.7641 320.729 41.4842L320.947 42.3685L321.206 43.4385Z" fill="#45508C"/>
<path d="M250.793 37.079L246.152 39.5662L245.748 38.6941C245.307 37.7694 244.649 36.3764 244.467 35.8676C244.192 35.1005 242.257 34.1314 242.257 34.1314C237.41 29.492 243.187 25.5026 243.187 25.5026C246.249 19.345 249.65 27.5942 249.65 27.5942C249.65 27.5942 250.127 31.9429 249.792 32.2336C249.456 32.5244 249.456 33.7155 249.456 33.7155C249.899 34.5689 250.273 35.4559 250.575 36.3683C250.717 36.8084 250.793 37.079 250.793 37.079Z" fill="#FFCDD3"/>
<path opacity="0.1" d="M250.793 37.0789L246.152 39.5662L245.748 38.6941C246.402 38.1449 248.725 36.2714 249.489 36.3481C249.853 36.3936 250.221 36.4031 250.587 36.3764C250.717 36.8084 250.793 37.0789 250.793 37.0789Z" fill="black"/>
<path d="M251.266 38.48L246.051 41.0481L245.946 39.9296L245.873 39.1543C245.873 39.1543 248.895 36.5661 249.787 36.6671C250.239 36.7324 250.697 36.7324 251.149 36.6671L251.209 37.6038L251.266 38.48Z" fill="#45508C"/>
<path d="M308.266 55.9153C308.266 55.9153 285.531 58.4793 289.781 57.0984C292.738 56.1334 293.913 54.2719 294.16 52.1723C294.362 50.4239 293.909 48.5383 293.315 46.9232C292.781 45.4904 292.104 44.1147 291.295 42.8167C291.295 42.8167 308.666 33.2633 305.196 41.9486C304.661 43.2623 304.329 44.6496 304.21 46.0631C304.106 47.4678 304.258 48.8797 304.659 50.2301C305.314 52.4213 306.563 54.3888 308.266 55.9153Z" fill="#FFCDD3"/>
<path opacity="0.1" d="M305.184 41.9364C304.649 43.2501 304.317 44.6374 304.198 46.0509C302.562 47.4278 300.769 47.3349 298.462 47.3349C296.693 47.3349 294.729 47.7629 293.315 46.911C292.781 45.4781 292.104 44.1025 291.296 42.8045C291.296 42.8045 308.662 33.2511 305.184 41.9364Z" fill="black"/>
<path d="M298.155 47.9407C303.347 47.9407 307.555 43.734 307.555 38.5447C307.555 33.3555 303.347 29.1488 298.155 29.1488C292.963 29.1488 288.755 33.3555 288.755 38.5447C288.755 43.734 292.963 47.9407 298.155 47.9407Z" fill="#FFCDD3"/>
<path opacity="0.1" d="M308.266 55.9152C308.266 55.9152 285.531 58.4792 289.781 57.0983C292.738 56.1333 293.913 54.2719 294.16 52.1722C295.291 50.9609 297.565 50.0604 299.007 49.5921C300.341 49.1439 301.78 49.1199 303.128 49.5234C303.658 49.683 304.162 49.9168 304.627 50.2179C305.289 52.4171 306.549 54.3894 308.266 55.9152Z" fill="black"/>
<path opacity="0.1" d="M321.206 43.4385L316.859 44.4439L316.766 43.7979C317.231 43.1589 317.882 42.6788 318.631 42.423C319.379 42.1673 320.188 42.1482 320.947 42.3685L321.206 43.4385Z" fill="black"/>
<path opacity="0.1" d="M251.266 38.4801L246.051 41.0481L245.946 39.9296C247.635 39.0218 249.391 38.243 251.197 37.5999L251.266 38.4801Z" fill="black"/>
<path opacity="0.1" d="M317.259 113.175C308.448 114.58 295.925 116.373 293.937 115.767C292.285 115.267 287.017 115.319 282.432 115.477C282.473 113.183 282.513 111.661 282.513 111.661L316.641 108.108C316.641 108.108 316.608 109.682 317.259 113.175Z" fill="black"/>
<path d="M326.041 111.108C326.041 111.108 297.048 116.082 293.937 115.146C290.827 114.209 274.85 115.222 274.85 115.222C267.659 120.039 270.661 112.933 270.661 112.933C270.661 112.933 270.03 109.222 270.899 106.222C271.482 104.019 271.881 101.772 272.091 99.5031C272.091 99.5031 271.933 94.7628 272.802 93.6564C273.67 92.5501 274.7 84.6562 274.7 84.6562C274.7 84.6562 275.488 79.2859 275.411 78.1029C275.335 76.9198 275.646 73.6007 275.646 73.6007L276.676 68.073C270.75 67.2857 252.736 56.2302 252.736 56.2302C251.868 52.5195 245.154 43.8342 245.154 43.8342C245.056 43.1038 244.87 42.388 244.6 41.7022C244.128 40.4384 251.238 37.9108 251.238 37.9108C251.238 37.9108 256.53 44.3712 257.637 46.1236C258.743 47.876 262.533 51.0982 262.533 51.0982C263.121 51.0376 263.716 51.1151 264.27 51.3243L264.363 51.3526C265.633 51.8508 266.823 52.5309 267.897 53.3714C269.679 53.3292 271.407 53.9808 272.717 55.1884C272.717 55.1884 275.949 54.712 276.51 55.2652C277.072 55.8183 279.827 55.2652 279.827 55.2652C279.827 55.2652 282.59 49.4225 284.408 51.1184C286.226 52.8142 293.937 52.7335 293.937 52.7335C294.964 51.3687 297.464 50.3916 299.028 49.907C300.361 49.4607 301.8 49.4367 303.148 49.8384C303.729 50.0118 304.276 50.2851 304.764 50.6459L309.454 55.2248C309.454 55.2248 310.795 53.4845 310.638 53.0928C310.48 52.7012 312.217 52.3822 312.217 52.3822C312.217 52.3822 314.508 51.6715 315.376 51.4333C316.245 51.1951 317.041 52.1359 317.113 52.2207C317.085 52.1197 316.491 50.2018 316.709 48.7482C316.927 47.2946 315.76 45.9217 315.76 45.9217C318.523 39.1302 324.765 44.8154 324.765 44.8154C324.765 44.8154 325.476 48.5261 324.845 49.9474C324.215 51.3687 325.476 54.3688 325.318 55.1602C325.16 55.9516 325.637 57.2921 325.637 58.7942C325.637 60.2962 324.829 63.1348 324.373 64.3986C323.916 65.6625 320.107 68.5051 320.107 68.5051C320.107 68.5051 319.868 73.0072 318.208 75.6116C316.548 78.2159 317.59 87.1233 317.59 87.1233C317.59 87.1233 319.17 94.0723 321.145 96.285C323.12 98.4977 326.041 111.108 326.041 111.108Z" fill="#3F3D56"/>
<path opacity="0.1" d="M283.778 59.1495C283.778 59.1495 282.909 56.5451 282.117 56.323C281.331 56.034 280.566 55.6914 279.827 55.2974L280.336 54.3243C280.336 54.3243 283.301 55.1319 283.778 56.0081C284.254 56.8843 283.778 59.1495 283.778 59.1495Z" fill="black"/>
<path opacity="0.1" d="M267.897 53.3875C267.74 54.1951 260.707 54.8855 260.707 54.8855L264.262 51.3242L264.351 51.3565C265.625 51.8575 266.82 52.5417 267.897 53.3875Z" fill="black"/>
<path d="M247.553 43.1799C247.902 43.1799 248.184 42.8979 248.184 42.5501C248.184 42.2022 247.902 41.9202 247.553 41.9202C247.205 41.9202 246.923 42.2022 246.923 42.5501C246.923 42.8979 247.205 43.1799 247.553 43.1799Z" fill="#575988"/>
<path d="M248.361 44.444C248.709 44.444 248.992 44.162 248.992 43.8141C248.992 43.4662 248.709 43.1842 248.361 43.1842C248.013 43.1842 247.731 43.4662 247.731 43.8141C247.731 44.162 248.013 44.444 248.361 44.444Z" fill="#575988"/>
<path d="M249.153 45.6109C249.501 45.6109 249.783 45.3289 249.783 44.981C249.783 44.6331 249.501 44.3511 249.153 44.3511C248.805 44.3511 248.523 44.6331 248.523 44.981C248.523 45.3289 248.805 45.6109 249.153 45.6109Z" fill="#575988"/>
<path d="M249.981 46.8706C250.329 46.8706 250.612 46.5886 250.612 46.2407C250.612 45.8929 250.329 45.6108 249.981 45.6108C249.633 45.6108 249.351 45.8929 249.351 46.2407C249.351 46.5886 249.633 46.8706 249.981 46.8706Z" fill="#575988"/>
<path d="M324.449 46.6849C324.733 46.6849 324.962 46.4553 324.962 46.1721C324.962 45.8889 324.733 45.6593 324.449 45.6593C324.166 45.6593 323.936 45.8889 323.936 46.1721C323.936 46.4553 324.166 46.6849 324.449 46.6849Z" fill="#575988"/>
<path d="M324.53 47.8518C324.814 47.8518 325.043 47.6222 325.043 47.339C325.043 47.0558 324.814 46.8262 324.53 46.8262C324.247 46.8262 324.017 47.0558 324.017 47.339C324.017 47.6222 324.247 47.8518 324.53 47.8518Z" fill="#575988"/>
<path d="M324.599 49.0146C324.882 49.0146 325.112 48.785 325.112 48.5018C325.112 48.2186 324.882 47.989 324.599 47.989C324.316 47.989 324.086 48.2186 324.086 48.5018C324.086 48.785 324.316 49.0146 324.599 49.0146Z" fill="#575988"/>
<path opacity="0.1" d="M283.806 80.5498C283.729 80.457 301.54 102.935 315.364 89.9458C315.376 89.9498 293.534 92.9095 283.806 80.5498Z" fill="black"/>
<path opacity="0.1" d="M273.585 92.2351C273.585 92.2351 284.242 92.5258 285.357 95.5905V98.7803C285.054 98.9486 284.712 99.0369 284.365 99.0369C284.018 99.0369 283.677 98.9486 283.374 98.7803C282.299 98.1989 275.856 94.9283 273.585 96.503V92.2351Z" fill="black"/>
<path d="M273.783 92.2351C273.783 92.2351 283.976 92.5137 285.042 95.4371V98.4735C284.752 98.6347 284.425 98.7193 284.093 98.7193C283.761 98.7193 283.434 98.6347 283.143 98.4735C282.117 97.9243 275.957 94.8031 273.783 96.3052V92.2351Z" fill="#3F3D56"/>
<path opacity="0.1" d="M279.403 69.1067C280.491 71.6256 281.879 74.0048 283.535 76.193C285.337 78.6117 287.52 80.7214 289.999 82.4394C289.999 82.4394 279.58 70.5684 279.403 69.1067Z" fill="black"/>
<path opacity="0.1" d="M275.916 56.731C275.916 56.731 277.694 64.4027 282.275 67.0071L275.916 56.731Z" fill="black"/>
<path opacity="0.1" d="M273.189 57.5062C273.145 57.3648 271.61 63.5628 279.096 67.0071C279.096 67.0071 275.916 65.929 273.189 57.5062Z" fill="black"/>
<path opacity="0.1" d="M319.723 52.3621C319.606 52.3621 323.415 54.7847 324.453 55.9153C324.453 55.9153 321.973 52.2005 319.723 52.3621Z" fill="black"/>
<path d="M295.614 47.0604C295.615 47.2654 295.659 47.4678 295.743 47.655C295.827 47.8421 295.948 48.0098 296.1 48.1476C296.252 48.2854 296.431 48.3901 296.625 48.4553C296.82 48.5204 297.026 48.5445 297.23 48.5261C300.094 48.7038 303.079 48.8289 305.713 47.7185C306.207 47.5423 306.651 47.2485 307.006 46.8625C307.475 46.2851 307.567 45.5018 307.757 44.7831C308.129 43.3779 308.921 42.1302 309.49 40.7937C310.454 38.5357 310.777 36.056 310.424 33.6267C310.349 32.882 310.103 32.1647 309.704 31.5311C308.945 30.4449 307.559 30.0048 306.553 29.1407C305.548 28.2766 304.901 26.9563 303.726 26.3142C302.667 25.7247 301.371 25.7974 300.179 25.9993C297.835 26.3972 295.589 27.2401 293.562 28.4825C292.879 28.8863 292.132 29.383 291.348 29.2336C290.661 29.1044 290.16 28.527 289.732 27.9859C289.181 29.278 288.95 30.6838 289.057 32.0842C289.087 32.2897 289.08 32.4989 289.037 32.702C288.939 32.9476 288.788 33.1692 288.597 33.3521C287.89 34.1597 287.45 35.4719 288.149 36.3037C288.452 36.6631 288.92 36.8609 289.215 37.2284C289.744 37.8865 289.566 38.8435 289.554 39.6833C289.525 39.9766 289.6 40.2708 289.764 40.5151C289.917 40.6575 290.104 40.758 290.307 40.8068C290.511 40.8556 290.723 40.8511 290.924 40.7937C291.324 40.6732 291.744 40.6334 292.16 40.6766C292.598 40.819 292.976 41.1031 293.235 41.4842C294.539 43.1841 295.056 45.0334 295.614 47.0604Z" fill="#2D293D"/>
<g opacity="0.1">
<path opacity="0.1" d="M307.341 46.1477C306.986 46.5337 306.543 46.8275 306.049 47.0037C303.398 48.106 300.417 47.9808 297.565 47.8113C297.259 47.8143 296.956 47.7466 296.68 47.6134C296.244 47.359 296.079 46.826 295.945 46.3415C295.388 44.3226 294.875 42.4693 293.55 40.7855C293.294 40.3971 292.916 40.1057 292.475 39.9578C292.059 39.9186 291.64 39.9583 291.239 40.0749C291.038 40.1328 290.826 40.1379 290.623 40.0898C290.42 40.0417 290.233 39.942 290.08 39.8003C289.915 39.556 289.84 39.2618 289.869 38.9685C289.869 38.1206 290.059 37.1717 289.53 36.5135C289.235 36.1461 288.767 35.9483 288.464 35.5849C288.266 35.3169 288.145 35.0005 288.113 34.6692C288.081 34.3378 288.139 34.004 288.282 33.7032C287.777 34.5108 287.563 35.5243 288.149 36.2188C288.452 36.5781 288.92 36.776 289.215 37.1434C289.744 37.8056 289.567 38.7586 289.554 39.5984C289.523 39.8912 289.596 40.1857 289.76 40.4302C289.914 40.5733 290.101 40.6742 290.305 40.723C290.509 40.7718 290.722 40.7669 290.924 40.7088C291.324 40.5883 291.744 40.5485 292.16 40.5917C292.598 40.7341 292.976 41.0182 293.235 41.3993C294.556 43.083 295.073 44.9323 295.63 46.9593C295.695 47.4581 295.945 47.9145 296.329 48.2393C296.606 48.3727 296.91 48.4391 297.218 48.4331C300.082 48.6107 303.067 48.7399 305.701 47.6255C306.196 47.4505 306.64 47.1565 306.994 46.7695C307.172 46.5421 307.309 46.2851 307.398 46.0104C307.402 46.0629 307.374 46.1073 307.341 46.1477Z" fill="black"/>
<path opacity="0.1" d="M289.057 32.4556C289.184 32.3179 289.282 32.1558 289.344 31.9792C289.381 31.7748 289.381 31.5657 289.344 31.3614C289.266 30.2102 289.415 29.0548 289.785 27.9616L289.732 27.901C289.179 29.1912 288.948 30.5961 289.057 31.9953C289.07 32.1485 289.07 32.3024 289.057 32.4556Z" fill="black"/>
</g>
<path opacity="0.1" d="M293.937 52.7537C293.937 52.7537 305.681 54.3123 306.735 52.5477L293.937 52.7537Z" fill="black"/>
<path opacity="0.1" d="M316.766 47.8961C316.766 47.8961 323.294 47.8961 324.728 50.3511L316.766 47.8961Z" fill="black"/>
<path d="M353.289 265.997C351.353 267.727 348.837 268.667 346.24 268.63C345.577 268.63 344.66 268.755 344.656 269.417C344.672 269.611 344.739 269.798 344.85 269.958C345.67 271.324 346.964 272.34 348.486 272.813C349.9 273.241 351.41 273.168 352.885 273.092L357.187 272.87C357.995 272.825 358.803 272.785 359.611 272.684C360.419 272.583 361.3 272.417 362.144 272.28C364.219 271.985 366.316 271.888 368.41 271.989C368.967 272.009 369.621 271.989 369.953 271.586C370.284 271.182 370.114 270.411 369.989 269.805C369.731 268.557 369.989 267.249 369.751 265.997C369.347 263.801 367.444 262.117 365.36 261.321C363.42 260.587 359.987 259.743 358.153 260.97C356.218 262.258 355.034 264.41 353.289 265.997Z" fill="#3F3D56"/>
<path d="M357.563 192.404C357.943 194.209 359.692 195.59 359.74 197.432C359.785 198.909 358.73 200.149 357.971 201.413C357.255 202.722 356.651 204.089 356.165 205.499C354.735 209.171 352.961 212.7 350.865 216.038C349.855 217.653 348.724 219.377 348.954 221.254C349.115 222.132 349.425 222.976 349.871 223.75L352.901 229.766C353.565 230.967 354.084 232.243 354.448 233.566C354.711 234.708 354.735 235.891 354.889 237.054C355.365 240.745 357.098 244.46 356.072 248.037C355.983 248.344 355.668 248.715 355.422 248.501C356.424 250.371 357.228 252.253 357.151 254.372C357.11 255.483 356.771 256.642 357.179 257.675C357.353 258.107 357.656 258.511 357.652 258.975C357.652 259.282 357.51 259.569 357.478 259.868C357.393 260.72 358.177 261.43 358.989 261.701C359.801 261.971 360.686 261.951 361.506 262.198C363.081 262.67 364.208 264.027 365.545 264.968C366.917 265.912 368.534 266.438 370.199 266.482C370.437 266.507 370.676 266.459 370.886 266.344C371.005 266.241 371.1 266.113 371.165 265.969C371.231 265.826 371.265 265.67 371.266 265.513C371.339 264.758 371.225 263.998 370.935 263.298C370.645 262.598 370.187 261.98 369.601 261.499C369.345 261.338 369.132 261.116 368.983 260.853C368.908 260.62 368.888 260.372 368.927 260.13C369.17 256.821 369.111 253.496 368.749 250.197C368.586 249.152 368.533 248.092 368.591 247.036C368.676 246.155 368.943 245.283 368.846 244.407C368.749 243.531 368.3 242.731 368.038 241.888C367.569 240.385 367.699 238.77 367.634 237.2C367.553 234.47 366.927 231.789 366.305 229.124C366.058 228.078 365.788 226.984 365.048 226.209C364.418 225.551 363.4 224.921 363.639 224.045C363.771 223.722 363.967 223.429 364.216 223.184C364.509 222.818 364.724 222.395 364.847 221.942C364.971 221.49 365.001 221.016 364.935 220.552C365.201 220.62 365.482 220.593 365.73 220.477C365.979 220.36 366.179 220.161 366.297 219.914C371.217 217.592 375.184 212.949 376.954 207.801C377.058 207.418 377.219 207.054 377.43 206.718C377.887 206.08 378.678 205.806 379.381 205.455C381.587 204.344 383.11 202.265 384.508 200.23C385.316 199.051 386.124 197.831 386.487 196.442C386.678 195.544 386.769 194.627 386.758 193.709L386.883 188.964C386.911 188.652 386.88 188.337 386.794 188.036C386.674 187.754 386.5 187.499 386.281 187.285C384.938 185.864 383.173 184.913 381.248 184.571C379.955 184.341 378.634 184.385 377.325 184.276C374.788 184.066 372.284 183.279 369.747 183.469C365.759 183.764 362.209 186.525 360.33 190.054C359.672 191.298 358.977 192.38 357.563 192.404Z" fill="#464353"/>
<path d="M335.425 161.556C335.479 162.288 335.38 163.024 335.134 163.716C334.823 164.378 334.044 164.895 333.361 164.625C333.567 164.16 333.022 163.631 332.513 163.688C332.262 163.745 332.03 163.863 331.835 164.03C331.64 164.198 331.488 164.41 331.394 164.649C331.056 165.327 330.943 166.095 331.07 166.841C331.232 167.77 331.769 168.662 331.628 169.595C331.515 170.37 330.945 171.141 331.248 171.86C331.445 172.189 331.691 172.484 331.979 172.736C332.379 173.228 332.574 173.854 332.525 174.485C332.476 175.116 332.187 175.704 331.717 176.128L339.36 176.282C339.081 177.558 339.655 178.862 340.309 179.996C342.142 183.116 344.673 185.768 347.704 187.746C350.735 189.724 354.182 190.973 357.777 191.395C357.583 191.508 357.416 191.664 357.289 191.849C357.162 192.035 357.078 192.247 357.043 192.469C357.007 192.691 357.022 192.918 357.086 193.134C357.149 193.35 357.26 193.549 357.409 193.717C358.032 194.334 359.086 194.258 359.866 193.858C360.645 193.458 361.255 192.796 361.966 192.283C363.221 191.394 364.753 190.982 366.285 191.12C367.242 191.213 368.171 191.524 369.133 191.573C371.96 191.722 374.384 189.687 377.107 188.855C379.091 188.246 381.341 188.246 383.005 187.006C383.724 186.473 384.314 185.597 384.104 184.733C383.93 184.236 383.655 183.781 383.296 183.396C382.339 182.157 381.773 180.667 381.086 179.257C379.726 176.467 377.852 173.958 375.564 171.86C373.837 170.351 372.006 168.964 370.086 167.709C369.622 167.367 369.127 167.068 368.608 166.817C367.937 166.522 367.194 166.381 366.588 166.009C365.691 165.444 365.174 164.447 364.483 163.643C362.968 161.875 360.641 161.063 358.775 159.674C357.523 158.741 356.416 157.514 354.921 157.066C354.194 156.844 353.422 156.828 352.695 156.61C351.043 156.109 349.839 154.643 348.219 154.05C346.938 153.581 345.525 153.702 344.179 153.537C342.663 153.35 341.214 152.798 339.958 151.93C339.553 151.6 339.099 151.336 338.613 151.146C336.564 150.525 336.399 154.336 336.189 155.657C335.918 157.619 335.425 159.569 335.425 161.556Z" fill="#1B64AA"/>
<path d="M337.421 174.339C337.764 178.062 334.953 181.668 335.773 185.314C335.946 186.089 336.282 186.828 336.403 187.616C336.746 189.776 335.454 191.823 334.221 193.632L323.637 209.157C323.212 209.839 322.705 210.465 322.127 211.023C320.107 212.82 317.069 212.638 314.411 213.171C312.543 213.554 310.78 214.334 309.24 215.456C309.171 215.51 309.125 215.588 309.113 215.675C309.101 215.762 309.123 215.85 309.175 215.921C309.614 216.518 310.196 216.996 310.867 217.311C311.538 217.626 312.277 217.769 313.017 217.725C313.296 218.089 313.017 218.63 312.633 218.892C312.068 219.296 311.284 219.389 311.171 220.354C311.133 220.689 311.2 221.028 311.365 221.323C311.793 221.974 312.456 222.434 313.215 222.607C316.879 223.73 320.838 221.759 323.581 219.082C326.324 216.405 328.291 213.025 330.982 210.304C332.472 208.794 334.165 207.506 335.7 206.044C338.762 203.125 341.146 199.584 343.44 196.034C344.131 194.964 344.83 193.866 345.117 192.627C345.403 191.387 345.27 190.131 345.597 188.932C346.026 187.361 347.177 186.106 348.134 184.789C350.013 182.205 351.269 179.043 351.019 175.858C350.768 172.672 348.797 169.53 345.791 168.448C344.859 168.078 343.833 168.016 342.862 168.271C341.63 168.65 340.721 169.668 339.881 170.645L337.861 172.963C337.369 173.476 336.984 174.081 336.726 174.743C336.596 175.077 336.565 175.441 336.636 175.792C336.708 176.143 336.879 176.466 337.13 176.722" fill="#FBBEBE"/>
<path d="M342.786 159.069C341.396 159.149 339.865 159.287 338.883 160.28C338.472 160.736 338.139 161.257 337.898 161.822C336.944 163.765 336.015 165.796 335.946 167.96C335.89 169.688 336.391 171.38 336.653 173.088C336.872 174.509 336.318 175.959 336.213 177.396C337.938 176.867 340.216 176.148 341.78 175.256C342.846 174.646 343.876 173.952 345.04 173.564C346.7 173.011 349.484 173.968 351.063 174.735C351.148 173.629 350.316 171.699 350.405 170.588C350.417 170.121 350.5 169.658 350.651 169.216C350.887 168.747 351.167 168.303 351.487 167.887C352.089 166.91 352.365 165.768 352.277 164.624C352.189 163.48 351.742 162.393 350.998 161.52C349.597 159.945 347.403 159.355 345.311 159.097C343.993 158.944 342.665 158.898 341.339 158.96" fill="#1B64AA"/>
<defs>
<linearGradient id="paint0_linear" x1="285.292" y1="220.536" x2="285.292" y2="23.2253" gradientUnits="userSpaceOnUse">
<stop stop-color="#808080" stop-opacity="0.25"/>
<stop offset="0.54" stop-color="#808080" stop-opacity="0.12"/>
<stop offset="1" stop-color="#808080" stop-opacity="0.1"/>
</linearGradient>
</defs>
</svg>
