<svg width="363" height="336" viewBox="0 0 363 336" fill="none" xmlns="http://www.w3.org/2000/svg">
<g opacity="0.5">
<path opacity="0.5" d="M253.492 20.2198L100.709 20.5921C99.8838 20.5939 99.0676 20.7582 98.3065 21.0757C97.5453 21.3932 96.8542 21.8576 96.2726 22.4424C95.6909 23.0272 95.2302 23.721 94.9167 24.484C94.6032 25.247 94.4431 26.0643 94.4455 26.8892L95.1394 312.737C95.1412 313.562 95.3055 314.379 95.6229 315.14C95.9403 315.902 96.4045 316.593 96.9892 317.175C97.5738 317.757 98.2673 318.217 99.03 318.531C99.7928 318.845 100.61 319.005 101.435 319.002L254.218 318.63C255.043 318.628 255.86 318.464 256.621 318.146C257.383 317.828 258.074 317.363 258.656 316.778C259.237 316.193 259.698 315.498 260.011 314.735C260.324 313.971 260.484 313.154 260.481 312.328L259.787 26.4801C259.785 25.6556 259.62 24.8396 259.302 24.0787C258.985 23.3179 258.52 22.6271 257.936 22.0457C257.351 21.4644 256.658 21.004 255.896 20.6906C255.133 20.3773 254.316 20.2173 253.492 20.2198Z" fill="url(#paint0_linear)"/>
</g>
<path d="M251.279 24.1224L102.939 24.485C99.4776 24.4934 96.6784 27.3073 96.6869 30.7698L97.3658 308.702C97.3742 312.165 100.187 314.965 103.649 314.956L251.988 314.594C255.45 314.585 258.249 311.771 258.241 308.309L257.562 30.3766C257.553 26.9141 254.74 24.1139 251.279 24.1224Z" fill="white"/>
<path opacity="0.4" d="M217.541 31.4856C217.083 34.5666 215.539 37.3822 213.187 39.4232C210.835 41.4641 207.83 42.5959 204.716 42.6136L149.149 42.7469C146.038 42.7414 143.031 41.6232 140.671 39.5943C138.312 37.5654 136.755 34.7595 136.283 31.6833L106.852 31.7568C106.049 31.7586 105.255 31.9186 104.514 32.2275C103.774 32.5363 103.101 32.9882 102.535 33.5571C101.968 34.1261 101.52 34.801 101.214 35.5434C100.909 36.2858 100.753 37.0811 100.754 37.8839L101.393 301.568C101.395 302.371 101.555 303.166 101.864 303.908C102.173 304.649 102.625 305.322 103.195 305.888C103.764 306.455 104.439 306.903 105.182 307.209C105.924 307.514 106.72 307.67 107.523 307.668L248.13 307.327C248.932 307.326 249.727 307.166 250.467 306.857C251.208 306.548 251.881 306.096 252.447 305.527C253.013 304.958 253.462 304.283 253.767 303.541C254.073 302.798 254.229 302.003 254.227 301.2L253.589 37.5162C253.587 36.7134 253.427 35.9188 253.118 35.1778C252.809 34.4368 252.358 33.7639 251.789 33.1975C251.22 32.6311 250.545 32.1823 249.803 31.8768C249.061 31.5712 248.266 31.4149 247.463 31.4167L217.541 31.4856Z" fill="#45508C"/>
<path d="M192.67 34.8277L158.661 35.3383C158.154 35.3459 157.749 35.7636 157.756 36.2713L157.762 36.6757C157.77 37.1834 158.188 37.5888 158.695 37.5811L192.703 37.0705C193.211 37.0629 193.616 36.6451 193.608 36.1375L193.602 35.733C193.595 35.2254 193.177 34.82 192.67 34.8277Z" fill="#DBDBDB"/>
<path d="M201.234 36.9379C201.978 36.9267 202.571 36.3148 202.56 35.5711C202.549 34.8274 201.937 34.2335 201.194 34.2447C200.45 34.2558 199.857 34.8678 199.868 35.6115C199.879 36.3552 200.491 36.949 201.234 36.9379Z" fill="#DBDBDB"/>
<g opacity="0.5">
<path opacity="0.5" d="M196.238 231.95C196.241 224.105 194.213 216.394 190.353 209.565C186.492 202.737 180.929 197.025 174.206 192.985C167.483 188.946 159.83 186.716 151.99 186.513C144.15 186.311 136.391 188.142 129.469 191.829C122.547 195.516 116.697 200.933 112.489 207.553C108.28 214.173 105.857 221.77 105.455 229.605C105.053 237.439 106.686 245.244 110.194 252.26C113.702 259.276 118.967 265.264 125.476 269.641L125.503 269.843C126.987 271.266 128.737 272.379 130.654 273.121L130.714 272.918C132.841 274.757 141.797 277.667 152.085 277.639H152.31C158.826 277.639 165.902 276.49 172.124 273.121C172.124 273.121 172.179 273.001 172.262 272.776C173.838 272.035 175.284 271.045 176.544 269.843C176.569 269.669 176.593 269.497 176.618 269.329C182.671 265.155 187.62 259.572 191.037 253.061C194.455 246.549 196.24 239.305 196.238 231.95Z" fill="url(#paint1_linear)"/>
</g>
<path d="M150.812 276.03C175.147 276.03 194.874 256.297 194.874 231.955C194.874 207.613 175.147 187.88 150.812 187.88C126.478 187.88 106.751 207.613 106.751 231.955C106.751 256.297 126.478 276.03 150.812 276.03Z" fill="#F5F5F5"/>
<path d="M133.981 250.079C133.981 250.079 123.481 250.938 126.261 270.069C127.699 271.452 129.397 272.536 131.256 273.259L137.161 253.269L133.981 250.079Z" fill="#FDA57D"/>
<path d="M168.048 250.079C168.048 250.079 178.548 250.938 175.768 270.069C174.33 271.452 172.632 272.536 170.773 273.259L164.868 253.259L168.048 250.079Z" fill="#FDA57D"/>
<path d="M134.436 218.726C134.436 218.726 129.441 233.269 126.716 231.891C126.716 231.891 153.009 254.611 176.227 231.891C176.227 231.891 172.138 224.619 166.233 218.713L134.436 218.726Z" fill="#333333"/>
<path d="M151.29 236.901C162.078 236.901 170.824 228.153 170.824 217.361C170.824 206.57 162.078 197.822 151.29 197.822C140.502 197.822 131.757 206.57 131.757 217.361C131.757 228.153 140.502 236.901 151.29 236.901Z" fill="#333333"/>
<path opacity="0.1" d="M167.846 250.079H133.783L130.604 263.712C130.604 263.712 128.738 270.023 131.063 272.799C133.388 275.575 155.086 281.886 171.04 273.259C172.431 269.625 172.592 265.635 171.499 261.901C169.661 255.539 171.04 261.441 171.04 261.441L167.846 250.079Z" fill="black"/>
<path opacity="0.1" d="M168.301 250.079H134.234L131.054 263.712C131.054 263.712 129.188 270.023 131.513 272.799C133.838 275.575 155.536 281.886 171.49 273.259C172.881 269.625 173.043 265.635 171.949 261.901C170.111 255.539 171.49 261.441 171.49 261.441L168.301 250.079Z" fill="black"/>
<path d="M168.048 250.079H133.981L130.801 263.712C130.801 263.712 128.936 270.023 131.261 272.799C133.586 275.575 155.283 281.886 171.237 273.259C172.629 269.625 172.79 265.635 171.697 261.901C169.859 255.539 171.237 261.441 171.237 261.441L168.048 250.079Z" fill="#1B64AA"/>
<path opacity="0.1" d="M144.43 238.767H158.068V251.959C158.068 252.553 157.951 253.142 157.723 253.691C157.496 254.241 157.162 254.74 156.742 255.16C156.322 255.58 155.823 255.914 155.274 256.141C154.725 256.369 154.136 256.486 153.542 256.486H148.947C147.746 256.486 146.595 256.009 145.746 255.16C144.898 254.311 144.421 253.159 144.421 251.959V238.767H144.43Z" fill="black"/>
<path d="M144.43 238.266H158.068V251.458C158.068 252.052 157.951 252.641 157.723 253.19C157.496 253.74 157.162 254.239 156.742 254.659C156.322 255.079 155.823 255.413 155.274 255.641C154.725 255.868 154.136 255.985 153.542 255.985H148.947C147.746 255.985 146.595 255.508 145.746 254.659C144.898 253.81 144.421 252.658 144.421 251.458V238.266H144.43Z" fill="#FDA57D"/>
<path opacity="0.1" d="M144.457 240.229C148.85 241.87 153.685 241.883 158.086 240.265V238.592H144.457V240.229Z" fill="black"/>
<path d="M151.29 241.143C162.078 241.143 170.824 232.395 170.824 221.604C170.824 210.812 162.078 202.064 151.29 202.064C140.502 202.064 131.757 210.812 131.757 221.604C131.757 232.395 140.502 241.143 151.29 241.143Z" fill="#FDA57D"/>
<path d="M132.621 214.18H169.868C169.868 214.18 166.688 199.136 152.609 200.097C138.53 201.058 132.621 214.18 132.621 214.18Z" fill="#333333"/>
<path d="M132.166 224.178C133.168 224.178 133.981 222.653 133.981 220.772C133.981 218.891 133.168 217.366 132.166 217.366C131.163 217.366 130.351 218.891 130.351 220.772C130.351 222.653 131.163 224.178 132.166 224.178Z" fill="#FDA57D"/>
<path d="M170.318 224.178C171.32 224.178 172.133 222.653 172.133 220.772C172.133 218.891 171.32 217.366 170.318 217.366C169.316 217.366 168.503 218.891 168.503 220.772C168.503 222.653 169.316 224.178 170.318 224.178Z" fill="#FDA57D"/>
<path opacity="0.1" d="M132.621 214.686H169.868C169.868 214.686 166.688 199.642 152.609 200.603C138.53 201.563 132.621 214.686 132.621 214.686Z" fill="black"/>
<g opacity="0.5">
<path opacity="0.5" d="M159.419 112.084C159.416 104.239 161.444 96.5274 165.305 89.6991C169.166 82.8708 174.728 77.1588 181.451 73.1192C188.174 69.0796 195.828 66.8499 203.667 66.6474C211.507 66.4448 219.266 68.2762 226.188 71.9632C233.11 75.6502 238.96 81.0673 243.169 87.6871C247.377 94.3069 249.8 101.904 250.202 109.738C250.604 117.573 248.972 125.378 245.463 132.394C241.955 139.41 236.69 145.398 230.182 149.775L230.154 149.977C228.674 151.413 226.923 152.539 225.003 153.291L224.943 153.089C222.816 154.928 213.86 157.837 203.572 157.81H203.347C196.831 157.81 189.755 156.661 183.533 153.291C183.533 153.291 183.478 153.172 183.395 152.947C181.819 152.206 180.373 151.216 179.113 150.014C179.088 149.839 179.064 149.668 179.039 149.499C172.981 145.322 168.029 139.733 164.611 133.215C161.193 126.697 159.411 119.445 159.419 112.084Z" fill="url(#paint2_linear)"/>
</g>
<path d="M204.84 156.164C229.175 156.164 248.902 136.431 248.902 112.089C248.902 87.7468 229.175 68.0136 204.84 68.0136C180.506 68.0136 160.779 87.7468 160.779 112.089C160.779 136.431 180.506 156.164 204.84 156.164Z" fill="#F5F5F5"/>
<path d="M187.568 128.875C187.568 128.875 177.068 129.735 179.848 148.865C181.287 150.245 182.984 151.326 184.843 152.046L190.747 132.056L187.568 128.875Z" fill="#BE7C5E"/>
<path d="M221.63 128.875C221.63 128.875 232.13 129.735 229.35 148.865C227.912 150.245 226.214 151.326 224.355 152.046L218.451 132.056L221.63 128.875Z" fill="#BE7C5E"/>
<path d="M188.018 97.5227C188.018 97.5227 187.209 99.8761 186.065 102.579C183.565 108.554 186.419 131.403 192.397 133.835C199.106 136.593 207.928 138.321 217.095 134.979C225.058 132.074 227.517 106.022 221.883 99.7015C221.221 98.9568 220.532 98.2168 219.811 97.4998L188.018 97.5227Z" fill="#333333"/>
<path d="M204.872 115.702C215.66 115.702 224.406 106.954 224.406 96.1622C224.406 85.3708 215.66 76.6227 204.872 76.6227C194.085 76.6227 185.339 85.3708 185.339 96.1622C185.339 106.954 194.085 115.702 204.872 115.702Z" fill="#333333"/>
<path opacity="0.1" d="M221.433 128.875H187.366L184.186 142.508C184.186 142.508 182.32 148.819 184.645 151.595C186.97 154.372 208.668 160.682 224.622 152.055C226.013 148.421 226.175 144.431 225.081 140.697C223.243 134.336 224.622 140.237 224.622 140.237L221.433 128.875Z" fill="black"/>
<path opacity="0.1" d="M221.883 128.875H187.816L184.636 142.508C184.636 142.508 182.771 148.819 185.096 151.595C187.421 154.372 209.118 160.682 225.072 152.055C226.464 148.421 226.625 144.431 225.532 140.697C223.694 134.336 225.072 140.237 225.072 140.237L221.883 128.875Z" fill="black"/>
<path d="M221.63 128.875H187.568L184.388 142.508C184.388 142.508 182.522 148.819 184.847 151.595C187.173 154.372 208.87 160.682 224.824 152.055C226.215 148.421 226.377 144.431 225.283 140.697C223.445 134.336 224.824 140.237 224.824 140.237L221.63 128.875Z" fill="#F09A24"/>
<path opacity="0.1" d="M198.012 117.568H211.641V130.76C211.641 131.96 211.164 133.112 210.315 133.961C209.466 134.81 208.315 135.287 207.115 135.287H202.52C201.319 135.287 200.168 134.81 199.319 133.961C198.471 133.112 197.994 131.96 197.994 130.76V117.568H198.012Z" fill="black"/>
<path d="M198.012 117.062H211.641V130.254C211.641 131.455 211.164 132.606 210.315 133.455C209.466 134.305 208.315 134.782 207.115 134.782H202.52C201.319 134.782 200.168 134.305 199.319 133.455C198.471 132.606 197.994 131.455 197.994 130.254V117.062H198.012Z" fill="#BE7C5E"/>
<path opacity="0.1" d="M198.044 119.025C202.437 120.667 207.272 120.68 211.673 119.062V117.389H198.044V119.025Z" fill="black"/>
<path d="M204.872 119.94C215.66 119.94 224.406 111.191 224.406 100.4C224.406 89.6088 215.66 80.8607 204.872 80.8607C194.085 80.8607 185.339 89.6088 185.339 100.4C185.339 111.191 194.085 119.94 204.872 119.94Z" fill="#BE7C5E"/>
<path d="M186.203 92.9815H223.45C223.45 92.9815 220.27 77.9373 206.191 78.8979C192.112 79.8586 186.203 92.9815 186.203 92.9815Z" fill="#333333"/>
<path d="M185.748 102.974C186.75 102.974 187.563 101.449 187.563 99.5681C187.563 97.6871 186.75 96.1622 185.748 96.1622C184.746 96.1622 183.933 97.6871 183.933 99.5681C183.933 101.449 184.746 102.974 185.748 102.974Z" fill="#BE7C5E"/>
<path d="M223.9 102.974C224.903 102.974 225.715 101.449 225.715 99.5681C225.715 97.6871 224.903 96.1622 223.9 96.1622C222.898 96.1622 222.085 97.6871 222.085 99.5681C222.085 101.449 222.898 102.974 223.9 102.974Z" fill="#BE7C5E"/>
<path opacity="0.1" d="M186.203 93.4871H223.45C223.45 93.4871 220.27 78.4429 206.191 79.4036C192.112 80.3642 186.203 93.4871 186.203 93.4871Z" fill="black"/>
<g opacity="0.5">
<path opacity="0.5" d="M2.2975 72.6744V138.275H105.621C105.621 138.275 113.248 153.291 126.362 157.658C126.362 157.658 122.176 147.022 126.546 138.275H155.311V72.6744H2.2975Z" fill="url(#paint3_linear)"/>
</g>
<path d="M6.43299 74.922V136.974H109.82C109.82 136.974 109.82 149.384 122.227 153.521C122.227 153.521 118.091 145.248 122.227 136.974H151.175V74.922H6.43299Z" fill="white"/>
<path d="M101.549 87.3324H18.8395V95.606H101.549V87.3324Z" fill="#45508C"/>
<path d="M130.498 99.7428H18.8395V108.016H130.498V99.7428Z" fill="#45508C"/>
<path d="M118.091 112.153H18.8395V120.427H118.091V112.153Z" fill="#45508C"/>
<g opacity="0.5">
<path opacity="0.5" d="M353.815 199.077V264.677H250.496C250.496 264.677 242.868 279.694 229.75 284.06C229.75 284.06 233.936 273.424 229.566 264.677H200.801V199.077H353.815Z" fill="url(#paint4_linear)"/>
</g>
<path d="M349.679 201.324V263.376H246.292C246.292 263.376 246.292 275.787 233.885 279.923C233.885 279.923 238.021 271.65 233.885 263.376H204.937V201.324H349.679Z" fill="white"/>
<path d="M304.648 213.735H221.938V222.008H304.648V213.735Z" fill="#45508C"/>
<path d="M333.597 226.145H221.938V234.419H333.597V226.145Z" fill="#45508C"/>
<path d="M321.19 238.555H221.938V246.829H321.19V238.555Z" fill="#45508C"/>
<defs>
<linearGradient id="paint0_linear" x1="112.47" y1="324.178" x2="242.531" y2="15.0628" gradientUnits="userSpaceOnUse">
<stop stop-color="#808080" stop-opacity="0.25"/>
<stop offset="0.54" stop-color="#808080" stop-opacity="0.12"/>
<stop offset="1" stop-color="#808080" stop-opacity="0.1"/>
</linearGradient>
<linearGradient id="paint1_linear" x1="48543.8" y1="62944.3" x2="48543.8" y2="44871.1" gradientUnits="userSpaceOnUse">
<stop stop-color="#808080" stop-opacity="0.25"/>
<stop offset="0.54" stop-color="#808080" stop-opacity="0.12"/>
<stop offset="1" stop-color="#808080" stop-opacity="0.1"/>
</linearGradient>
<linearGradient id="paint2_linear" x1="54433.6" y1="39072.5" x2="54433.6" y2="20991.9" gradientUnits="userSpaceOnUse">
<stop stop-color="#808080" stop-opacity="0.25"/>
<stop offset="0.54" stop-color="#808080" stop-opacity="0.12"/>
<stop offset="1" stop-color="#808080" stop-opacity="0.1"/>
</linearGradient>
<linearGradient id="paint3_linear" x1="57611.8" y1="36403.2" x2="57611.8" y2="20690.6" gradientUnits="userSpaceOnUse">
<stop stop-color="#808080" stop-opacity="0.25"/>
<stop offset="0.54" stop-color="#808080" stop-opacity="0.12"/>
<stop offset="1" stop-color="#808080" stop-opacity="0.1"/>
</linearGradient>
<linearGradient id="paint4_linear" x1="-505505" y1="59900.1" x2="-505505" y2="44187.5" gradientUnits="userSpaceOnUse">
<stop stop-color="#808080" stop-opacity="0.25"/>
<stop offset="0.54" stop-color="#808080" stop-opacity="0.12"/>
<stop offset="1" stop-color="#808080" stop-opacity="0.1"/>
</linearGradient>
</defs>
</svg>
