<svg width="270" height="250" viewBox="0 0 270 250" fill="none" xmlns="http://www.w3.org/2000/svg">
<g opacity="0.5">
<path opacity="0.5" d="M188.548 15.0445L74.9071 15.3215C74.2937 15.3228 73.6866 15.4451 73.1205 15.6813C72.5543 15.9176 72.0402 16.2631 71.6076 16.6982C71.175 17.1334 70.8323 17.6495 70.5991 18.2172C70.366 18.7849 70.2469 19.3931 70.2487 20.0068L70.7648 232.692C70.7661 233.305 70.8883 233.913 71.1244 234.479C71.3605 235.046 71.7058 235.56 72.1406 235.993C72.5755 236.426 73.0913 236.769 73.6586 237.002C74.226 237.236 74.8337 237.355 75.4471 237.353L189.088 237.076C189.701 237.075 190.309 236.952 190.875 236.716C191.442 236.479 191.956 236.133 192.388 235.698C192.821 235.262 193.164 234.746 193.397 234.178C193.63 233.61 193.748 233.001 193.746 232.387L193.23 19.7025C193.228 19.089 193.106 18.4818 192.87 17.9157C192.633 17.3496 192.288 16.8356 191.853 16.4031C191.418 15.9705 190.903 15.6279 190.335 15.3948C189.768 15.1617 189.161 15.0427 188.548 15.0445Z" fill="url(#paint0_linear)"/>
</g>
<path d="M186.902 17.9482L76.5662 18.218C73.9916 18.2243 71.9095 20.3179 71.9158 22.8942L72.4208 229.689C72.4271 232.265 74.5193 234.349 77.094 234.342L187.429 234.073C190.004 234.066 192.086 231.973 192.08 229.396L191.575 22.6016C191.569 20.0253 189.476 17.9419 186.902 17.9482Z" fill="white"/>
<path opacity="0.4" d="M161.807 23.4268C161.467 25.7192 160.318 27.8141 158.569 29.3327C156.819 30.8513 154.584 31.6933 152.268 31.7066L110.937 31.8057C108.623 31.8016 106.386 30.9696 104.632 29.46C102.877 27.9504 101.719 25.8627 101.367 23.5739L79.4767 23.6286C78.8797 23.6299 78.2889 23.7489 77.7379 23.9787C77.1869 24.2086 76.6866 24.5447 76.2654 24.9681C75.8443 25.3914 75.5106 25.8936 75.2834 26.446C75.0562 26.9983 74.9399 27.5901 74.9413 28.1874L75.4164 224.381C75.4177 224.979 75.5367 225.57 75.7666 226.122C75.9965 226.673 76.3328 227.174 76.7562 227.595C77.1796 228.017 77.6819 228.351 78.2343 228.578C78.7867 228.805 79.3784 228.921 79.9757 228.919L184.559 228.666C185.156 228.665 185.747 228.546 186.298 228.316C186.849 228.086 187.349 227.75 187.771 227.327C188.192 226.903 188.525 226.401 188.753 225.849C188.98 225.296 189.096 224.705 189.095 224.107L188.62 27.9138C188.618 27.3165 188.499 26.7253 188.27 26.1739C188.04 25.6226 187.704 25.1219 187.281 24.7005C186.858 24.2791 186.356 23.9451 185.804 23.7178C185.252 23.4905 184.661 23.3742 184.064 23.3755L161.807 23.4268Z" fill="#45508C"/>
<path d="M143.308 25.9134L118.013 26.2934C117.635 26.2991 117.334 26.6099 117.339 26.9876L117.344 27.2885C117.35 27.6662 117.66 27.9678 118.038 27.9621L143.333 27.5822C143.71 27.5765 144.012 27.2657 144.006 26.888L144.002 26.5871C143.996 26.2094 143.685 25.9078 143.308 25.9134Z" fill="#DBDBDB"/>
<path d="M149.678 27.4835C150.231 27.4752 150.673 27.0199 150.665 26.4665C150.656 25.9132 150.201 25.4713 149.648 25.4796C149.095 25.488 148.654 25.9433 148.662 26.4966C148.67 27.05 149.125 27.4918 149.678 27.4835Z" fill="#DBDBDB"/>
<g opacity="0.5">
<path opacity="0.5" d="M145.963 172.582C145.965 166.745 144.456 161.007 141.585 155.926C138.713 150.846 134.575 146.596 129.575 143.59C124.575 140.585 118.882 138.926 113.05 138.775C107.219 138.624 101.448 139.987 96.2994 142.73C91.1506 145.473 86.7994 149.504 83.6693 154.429C80.5392 159.355 78.7368 165.007 78.4378 170.837C78.1387 176.666 79.353 182.473 81.9626 187.694C84.5721 192.914 88.488 197.369 93.3289 200.626L93.3494 200.776C94.453 201.834 95.7552 202.663 97.1808 203.215L97.2252 203.064C98.8076 204.432 105.469 206.597 113.121 206.577H113.289C118.135 206.577 123.398 205.722 128.026 203.215C128.026 203.215 128.067 203.126 128.129 202.958C129.301 202.407 130.376 201.67 131.314 200.776C131.332 200.646 131.35 200.519 131.369 200.393C135.871 197.288 139.552 193.134 142.094 188.289C144.636 183.444 145.964 178.054 145.963 172.582Z" fill="url(#paint1_linear)"/>
</g>
<path d="M112.174 205.38C130.274 205.38 144.947 190.697 144.947 172.585C144.947 154.474 130.274 139.791 112.174 139.791C94.0744 139.791 79.4015 154.474 79.4015 172.585C79.4015 190.697 94.0744 205.38 112.174 205.38Z" fill="#F5F5F5"/>
<path d="M99.6551 186.07C99.6551 186.07 91.8455 186.71 93.9133 200.944C94.9826 201.973 96.2454 202.78 97.6284 203.317L102.02 188.444L99.6551 186.07Z" fill="#FDA57D"/>
<path d="M124.994 186.07C124.994 186.07 132.804 186.71 130.736 200.944C129.667 201.973 128.404 202.78 127.021 203.317L122.629 188.437L124.994 186.07Z" fill="#FDA57D"/>
<path d="M99.9936 162.743C99.9936 162.743 96.2784 173.564 94.2517 172.538C94.2517 172.538 113.808 189.442 131.078 172.538C131.078 172.538 128.036 167.127 123.644 162.733L99.9936 162.743Z" fill="#333333"/>
<path d="M112.53 176.265C120.554 176.265 127.059 169.756 127.059 161.727C127.059 153.698 120.554 147.189 112.53 147.189C104.506 147.189 98.001 153.698 98.001 161.727C98.001 169.756 104.506 176.265 112.53 176.265Z" fill="#333333"/>
<path opacity="0.1" d="M124.844 186.07H99.5082L97.1431 196.214C97.1431 196.214 95.7555 200.91 97.4849 202.975C99.2143 205.041 115.353 209.737 127.219 203.317C128.254 200.614 128.375 197.645 127.561 194.867C126.194 190.133 127.219 194.525 127.219 194.525L124.844 186.07Z" fill="black"/>
<path opacity="0.1" d="M125.182 186.07H99.8432L97.4781 196.214C97.4781 196.214 96.0905 200.91 97.8199 202.975C99.5493 205.041 115.688 209.737 127.554 203.317C128.589 200.614 128.71 197.645 127.896 194.867C126.529 190.133 127.554 194.525 127.554 194.525L125.182 186.07Z" fill="black"/>
<path d="M124.994 186.07H99.6552L97.2901 196.214C97.2901 196.214 95.9025 200.91 97.6319 202.975C99.3613 205.041 115.5 209.737 127.366 203.317C128.401 200.614 128.522 197.645 127.708 194.867C126.341 190.133 127.366 194.525 127.366 194.525L124.994 186.07Z" fill="#1B64AA"/>
<path opacity="0.1" d="M107.427 177.654H117.571V187.469C117.571 187.912 117.484 188.35 117.315 188.758C117.146 189.167 116.898 189.538 116.585 189.851C116.273 190.164 115.901 190.412 115.493 190.581C115.085 190.751 114.647 190.838 114.205 190.838H110.787C109.894 190.838 109.038 190.483 108.406 189.851C107.775 189.219 107.42 188.363 107.42 187.469V177.654H107.427Z" fill="black"/>
<path d="M107.427 177.281H117.571V187.096C117.571 187.539 117.484 187.977 117.315 188.386C117.146 188.794 116.898 189.166 116.585 189.478C116.273 189.791 115.901 190.039 115.493 190.209C115.085 190.378 114.647 190.465 114.205 190.465H110.787C109.894 190.465 109.038 190.11 108.406 189.478C107.775 188.847 107.42 187.99 107.42 187.096V177.281H107.427Z" fill="#FDA57D"/>
<path opacity="0.1" d="M107.448 178.741C110.715 179.963 114.311 179.973 117.585 178.769V177.524H107.448V178.741Z" fill="black"/>
<path d="M112.53 179.422C120.554 179.422 127.059 172.913 127.059 164.884C127.059 156.854 120.554 150.345 112.53 150.345C104.506 150.345 98.001 156.854 98.001 164.884C98.001 172.913 104.506 179.422 112.53 179.422Z" fill="#FDA57D"/>
<path d="M98.6436 159.36H126.348C126.348 159.36 123.983 148.167 113.511 148.882C103.039 149.596 98.6436 159.36 98.6436 159.36Z" fill="#333333"/>
<path d="M98.3052 166.799C99.0508 166.799 99.6552 165.664 99.6552 164.265C99.6552 162.865 99.0508 161.73 98.3052 161.73C97.5596 161.73 96.9552 162.865 96.9552 164.265C96.9552 165.664 97.5596 166.799 98.3052 166.799Z" fill="#FDA57D"/>
<path d="M126.683 166.799C127.429 166.799 128.033 165.664 128.033 164.265C128.033 162.865 127.429 161.73 126.683 161.73C125.937 161.73 125.333 162.865 125.333 164.265C125.333 165.664 125.937 166.799 126.683 166.799Z" fill="#FDA57D"/>
<path opacity="0.1" d="M98.6436 159.737H126.348C126.348 159.737 123.983 148.543 113.511 149.258C103.039 149.973 98.6436 159.737 98.6436 159.737Z" fill="black"/>
<g opacity="0.5">
<path opacity="0.5" d="M118.576 83.396C118.574 77.5591 120.082 71.821 122.954 66.7404C125.826 61.6598 129.963 57.4098 134.964 54.4042C139.964 51.3985 145.657 49.7395 151.488 49.5888C157.319 49.4381 163.09 50.8007 168.239 53.544C173.388 56.2874 177.739 60.3179 180.869 65.2434C183.999 70.1688 185.802 75.8213 186.101 81.6506C186.4 87.4799 185.185 93.2874 182.576 98.5077C179.966 103.728 176.051 108.183 171.21 111.44L171.189 111.59C170.088 112.658 168.786 113.496 167.358 114.056L167.313 113.906C165.731 115.274 159.07 117.438 151.417 117.418H151.25C146.403 117.418 141.14 116.563 136.512 114.056C136.512 114.056 136.471 113.967 136.41 113.8C135.238 113.249 134.162 112.512 133.224 111.618C133.206 111.488 133.188 111.36 133.17 111.235C128.664 108.126 124.981 103.968 122.438 99.1183C119.896 94.2684 118.57 88.8726 118.576 83.396Z" fill="url(#paint2_linear)"/>
</g>
<path d="M152.361 116.194C170.461 116.194 185.134 101.511 185.134 83.3995C185.134 65.2878 170.461 50.6053 152.361 50.6053C134.261 50.6053 119.588 65.2878 119.588 83.3995C119.588 101.511 134.261 116.194 152.361 116.194Z" fill="#F5F5F5"/>
<path d="M139.513 95.8892C139.513 95.8892 131.704 96.5288 133.771 110.763C134.841 111.789 136.104 112.594 137.486 113.129L141.878 98.2558L139.513 95.8892Z" fill="#BE7C5E"/>
<path d="M164.849 95.8892C164.849 95.8892 172.659 96.5288 170.591 110.763C169.521 111.789 168.258 112.594 166.876 113.129L162.484 98.2558L164.849 95.8892Z" fill="#BE7C5E"/>
<path d="M139.848 72.5615C139.848 72.5615 139.247 74.3126 138.396 76.3235C136.536 80.7695 138.659 97.7702 143.105 99.5793C148.095 101.631 154.657 102.917 161.476 100.431C167.399 98.2695 169.227 78.8851 165.037 74.1826C164.545 73.6286 164.032 73.0779 163.496 72.5444L139.848 72.5615Z" fill="#333333"/>
<path d="M152.385 86.0875C160.409 86.0875 166.913 79.5785 166.913 71.5492C166.913 63.5199 160.409 57.0109 152.385 57.0109C144.36 57.0109 137.856 63.5199 137.856 71.5492C137.856 79.5785 144.36 86.0875 152.385 86.0875Z" fill="#333333"/>
<path opacity="0.1" d="M164.702 95.8892H139.363L136.998 106.033C136.998 106.033 135.61 110.728 137.34 112.794C139.069 114.86 155.208 119.555 167.074 113.136C168.109 110.433 168.229 107.464 167.416 104.685C166.049 99.9522 167.074 104.343 167.074 104.343L164.702 95.8892Z" fill="black"/>
<path opacity="0.1" d="M165.037 95.8892H139.698L137.333 106.033C137.333 106.033 135.945 110.728 137.674 112.794C139.404 114.86 155.542 119.555 167.409 113.136C168.444 110.433 168.564 107.464 167.751 104.685C166.384 99.9522 167.409 104.343 167.409 104.343L165.037 95.8892Z" fill="black"/>
<path d="M164.849 95.8892H139.513L137.148 106.033C137.148 106.033 135.76 110.728 137.49 112.794C139.219 114.86 155.358 119.555 167.224 113.136C168.259 110.433 168.379 107.464 167.566 104.685C166.199 99.9522 167.224 104.343 167.224 104.343L164.849 95.8892Z" fill="#F09A24"/>
<path opacity="0.1" d="M147.282 87.4761H157.419V97.2914C157.419 98.1848 157.064 99.0417 156.433 99.6734C155.801 100.305 154.945 100.66 154.052 100.66H150.635C149.742 100.66 148.885 100.305 148.254 99.6734C147.623 99.0417 147.268 98.1848 147.268 97.2914V87.4761H147.282Z" fill="black"/>
<path d="M147.282 87.0999H157.419V96.9152C157.419 97.8086 157.064 98.6654 156.433 99.2972C155.801 99.9289 154.945 100.284 154.052 100.284H150.635C149.742 100.284 148.885 99.9289 148.254 99.2972C147.623 98.6654 147.268 97.8086 147.268 96.9152V87.0999H147.282Z" fill="#BE7C5E"/>
<path opacity="0.1" d="M147.306 88.5602C150.573 89.7817 154.169 89.7914 157.443 88.5876V87.3427H147.306V88.5602Z" fill="black"/>
<path d="M152.385 89.2408C160.409 89.2408 166.913 82.7318 166.913 74.7025C166.913 66.6732 160.409 60.1642 152.385 60.1642C144.36 60.1642 137.856 66.6732 137.856 74.7025C137.856 82.7318 144.36 89.2408 152.385 89.2408Z" fill="#BE7C5E"/>
<path d="M138.498 69.1826H166.202C166.202 69.1826 163.837 57.9891 153.365 58.7039C142.893 59.4186 138.498 69.1826 138.498 69.1826Z" fill="#333333"/>
<path d="M138.16 76.6176C138.905 76.6176 139.51 75.483 139.51 74.0834C139.51 72.6838 138.905 71.5493 138.16 71.5493C137.414 71.5493 136.81 72.6838 136.81 74.0834C136.81 75.483 137.414 76.6176 138.16 76.6176Z" fill="#BE7C5E"/>
<path d="M166.537 76.6176C167.283 76.6176 167.887 75.483 167.887 74.0834C167.887 72.6838 167.283 71.5493 166.537 71.5493C165.792 71.5493 165.187 72.6838 165.187 74.0834C165.187 75.483 165.792 76.6176 166.537 76.6176Z" fill="#BE7C5E"/>
<path opacity="0.1" d="M138.498 69.5588H166.202C166.202 69.5588 163.837 58.3652 153.365 59.08C142.893 59.7948 138.498 69.5588 138.498 69.5588Z" fill="black"/>
<g opacity="0.5">
<path opacity="0.5" d="M1.70886 54.0732V102.883H78.5607C78.5607 102.883 84.2342 114.056 93.9885 117.305C93.9885 117.305 90.8749 109.391 94.1252 102.883H115.52V54.0732H1.70886Z" fill="url(#paint3_linear)"/>
</g>
<path d="M4.78491 55.7455V101.915H81.6846C81.6846 101.915 81.6846 111.149 90.9126 114.227C90.9126 114.227 87.8366 108.071 90.9126 101.915H112.444V55.7455H4.78491Z" fill="white"/>
<path d="M75.5326 64.9795H14.0128V71.1354H75.5326V64.9795Z" fill="#45508C"/>
<path d="M97.0645 74.2134H14.0128V80.3694H97.0645V74.2134Z" fill="#45508C"/>
<path d="M87.8365 83.4473H14.0128V89.6033H87.8365V83.4473Z" fill="#45508C"/>
<g opacity="0.5">
<path opacity="0.5" d="M263.168 148.122V196.932H186.319C186.319 196.932 180.646 208.105 170.888 211.354C170.888 211.354 174.002 203.441 170.752 196.932H149.356V148.122H263.168Z" fill="url(#paint4_linear)"/>
</g>
<path d="M260.092 149.795V195.964H183.192C183.192 195.964 183.192 205.198 173.964 208.276C173.964 208.276 177.04 202.12 173.964 195.964H152.432V149.795H260.092Z" fill="white"/>
<path d="M226.598 159.029H165.078V165.185H226.598V159.029Z" fill="#45508C"/>
<path d="M248.13 168.263H165.078V174.419H248.13V168.263Z" fill="#45508C"/>
<path d="M238.902 177.497H165.078V183.653H238.902V177.497Z" fill="#45508C"/>
<defs>
<linearGradient id="paint0_linear" x1="83.6553" y1="241.204" x2="180.449" y2="11.2303" gradientUnits="userSpaceOnUse">
<stop stop-color="#808080" stop-opacity="0.25"/>
<stop offset="0.54" stop-color="#808080" stop-opacity="0.12"/>
<stop offset="1" stop-color="#808080" stop-opacity="0.1"/>
</linearGradient>
<linearGradient id="paint1_linear" x1="36107" y1="46833.6" x2="36107" y2="33386.2" gradientUnits="userSpaceOnUse">
<stop stop-color="#808080" stop-opacity="0.25"/>
<stop offset="0.54" stop-color="#808080" stop-opacity="0.12"/>
<stop offset="1" stop-color="#808080" stop-opacity="0.1"/>
</linearGradient>
<linearGradient id="paint2_linear" x1="40487.8" y1="29071.8" x2="40487.8" y2="15619" gradientUnits="userSpaceOnUse">
<stop stop-color="#808080" stop-opacity="0.25"/>
<stop offset="0.54" stop-color="#808080" stop-opacity="0.12"/>
<stop offset="1" stop-color="#808080" stop-opacity="0.1"/>
</linearGradient>
<linearGradient id="paint3_linear" x1="42851.8" y1="27085.7" x2="42851.8" y2="15394.8" gradientUnits="userSpaceOnUse">
<stop stop-color="#808080" stop-opacity="0.25"/>
<stop offset="0.54" stop-color="#808080" stop-opacity="0.12"/>
<stop offset="1" stop-color="#808080" stop-opacity="0.1"/>
</linearGradient>
<linearGradient id="paint4_linear" x1="-375995" y1="44568.5" x2="-375995" y2="32877.6" gradientUnits="userSpaceOnUse">
<stop stop-color="#808080" stop-opacity="0.25"/>
<stop offset="0.54" stop-color="#808080" stop-opacity="0.12"/>
<stop offset="1" stop-color="#808080" stop-opacity="0.1"/>
</linearGradient>
</defs>
</svg>
