<svg width="436" height="742" viewBox="0 0 436 742" fill="none" xmlns="http://www.w3.org/2000/svg">
<g id="Logo">
<path id="sand-bottom" d="M311.897 627.398V602.633C311.897 598.642 310.306 594.815 307.477 592L214.603 499.595C213.972 498.967 212.897 499.414 212.897 500.304V627.398C212.897 630.159 215.136 632.398 217.897 632.398H306.897C309.659 632.398 311.897 630.159 311.897 627.398Z" fill="#F09A24"/>
<path id="sand-top" d="M112.58 115V139.765C112.58 143.756 114.171 147.583 117 150.398L209.874 242.803C210.505 243.431 211.58 242.984 211.58 242.094V115C211.58 112.239 209.341 110 206.58 110H117.58C114.818 110 112.58 112.239 112.58 115Z" fill="#F09A24"/>
<g id="bottom">
<mask id="path-3-inside-1" fill="white">
<path d="M436 525.713V727C436 735.284 429.284 742 421 742H105V677.5H371V546.5L241.5 417L287.5 371L431.607 515.107C434.42 517.92 436 521.735 436 525.713Z"/>
</mask>
<path d="M287.5 371L373.06 285.44L287.5 199.88L201.94 285.44L287.5 371ZM105 677.5V556.5H-16V677.5H105ZM105 742H-16V863H105V742ZM371 677.5V798.5H492V677.5H371ZM371 546.5H492V496.38L456.56 460.94L371 546.5ZM241.5 417L155.94 331.44L70.3802 417L155.94 502.56L241.5 417ZM-16 677.5V742H226V677.5H-16ZM105 798.5H371V556.5H105V798.5ZM492 677.5V546.5H250V677.5H492ZM456.56 460.94L327.06 331.44L155.94 502.56L285.44 632.06L456.56 460.94ZM327.06 502.56L373.06 456.56L201.94 285.44L155.94 331.44L327.06 502.56ZM557 727V525.713H315V727H557ZM517.167 429.547L373.06 285.44L201.94 456.56L346.047 600.667L517.167 429.547ZM105 863H421V621H105V863ZM557 525.713C557 489.644 542.671 455.052 517.167 429.547L346.047 600.667C326.168 580.788 315 553.826 315 525.713H557ZM315 727C315 668.458 362.458 621 421 621V863C496.111 863 557 802.111 557 727H315Z" fill="#1B64AA" mask="url(#path-3-inside-1)"/>
</g>
<g id="top">
<mask id="path-5-inside-2" fill="white">
<path d="M0 216.56V15C0 6.71573 6.71572 0 15 0H322V65H65V204L185.5 324.5L139.25 370.75L4.06672 226.83C1.45426 224.048 0 220.376 0 216.56Z"/>
</mask>
<path d="M322 65V186H443V65H322ZM322 0H443V-121H322V0ZM65 65V-56H-56V65H65ZM65 204H-56V254.12L-20.5599 289.56L65 204ZM185.5 324.5L271.06 410.06L356.62 324.5L271.06 238.94L185.5 324.5ZM139.25 370.75L51.0549 453.591L136.53 544.59L224.81 456.31L139.25 370.75ZM4.06672 226.83L-84.1285 309.67L-84.1284 309.671L4.06672 226.83ZM443 65V0H201V65H443ZM322 -56H65V186H322V-56ZM-56 65V204H186V65H-56ZM-20.5599 289.56L99.9401 410.06L271.06 238.94L150.56 118.44L-20.5599 289.56ZM99.9401 238.94L53.6901 285.19L224.81 456.31L271.06 410.06L99.9401 238.94ZM-121 15V216.56H121V15H-121ZM322 -121H15V121H322V-121ZM-84.1284 309.671L51.0549 453.591L227.445 287.909L92.2618 143.989L-84.1284 309.671ZM-121 216.56C-121 251.157 -107.815 284.453 -84.1285 309.67L92.2619 143.989C110.723 163.643 121 189.595 121 216.56H-121ZM121 15C121 73.5421 73.5423 121 15 121V-121C-60.1108 -121 -121 -60.1106 -121 15H121Z" fill="#1B64AA" mask="url(#path-5-inside-2)"/>
</g>
</g>
</svg>
