<svg width="214" height="242" viewBox="0 0 214 242" fill="none" xmlns="http://www.w3.org/2000/svg">
<g clip-path="url(#clip0)">
<path d="M176.235 53.0283H175.534V15.1388C175.534 6.78332 168.663 0.0157623 160.188 0.0157623H74.2329C65.7579 0.0157623 58.8878 6.78962 58.8878 15.1388V30.8447H58.8343H58.6833C58.4459 30.843 58.2176 30.9356 58.0483 31.1021C57.879 31.2686 57.7826 31.4956 57.7801 31.7332V39.2947C57.7826 39.5323 57.879 39.7592 58.0483 39.9257C58.2176 40.0923 58.4459 40.1848 58.6833 40.1832H58.8501H58.9036V47.9054H58.6266C58.5093 47.9045 58.3929 47.9269 58.2841 47.9711C58.1754 48.0153 58.0764 48.0805 57.9928 48.163C57.9092 48.2455 57.8427 48.3437 57.797 48.4519C57.7513 48.5602 57.7274 48.6763 57.7266 48.7938V63.2521C57.7282 63.4897 57.8239 63.7169 57.9926 63.8841C58.1613 64.0512 58.3893 64.1446 58.6266 64.1437H58.9036V69.8149H58.6644C58.5468 69.8136 58.43 69.8356 58.3209 69.8796C58.2118 69.9237 58.1124 69.9888 58.0285 70.0714C57.9446 70.1539 57.8778 70.2522 57.8319 70.3607C57.786 70.4691 57.762 70.5856 57.7612 70.7033V85.3034C57.762 85.4211 57.786 85.5376 57.8319 85.646C57.8778 85.7545 57.9446 85.8528 58.0285 85.9353C58.1124 86.0179 58.2118 86.083 58.3209 86.1271C58.43 86.1711 58.5468 86.1931 58.6644 86.1918H58.9036V218.638C58.9036 226.994 65.7736 233.761 74.2486 233.761H160.185C168.66 233.761 175.53 226.987 175.53 218.638V81.3651H176.235C176.473 81.3668 176.701 81.2742 176.87 81.1077C177.04 80.9411 177.136 80.7142 177.139 80.4766V53.9168C177.136 53.6792 177.04 53.4522 176.87 53.2857C176.701 53.1192 176.473 53.0266 176.235 53.0283Z" fill="url(#paint0_linear)"/>
<g opacity="0.9">
<path opacity="0.9" d="M174.869 53.9577H172.921C172.523 53.9577 172.201 54.2808 172.201 54.6792V81.2202C172.201 81.6186 172.523 81.9417 172.921 81.9417H174.869C175.268 81.9417 175.59 81.6186 175.59 81.2202V54.6792C175.59 54.2808 175.268 53.9577 174.869 53.9577Z" fill="#E5E7EB"/>
<path opacity="0.9" d="M60.6784 32.0356H60.2158C59.8178 32.0356 59.4951 32.3587 59.4951 32.7571V40.5266C59.4951 40.9251 59.8178 41.2481 60.2158 41.2481H60.6784C61.0764 41.2481 61.3991 40.9251 61.3991 40.5266V32.7571C61.3991 32.3587 61.0764 32.0356 60.6784 32.0356Z" fill="#E5E7EB"/>
<path opacity="0.9" d="M60.8515 48.901H60.1466C59.7486 48.901 59.4259 49.224 59.4259 49.6225V64.213C59.4259 64.6115 59.7486 64.9345 60.1466 64.9345H60.8515C61.2495 64.9345 61.5722 64.6115 61.5722 64.213V49.6225C61.5722 49.224 61.2495 48.901 60.8515 48.901Z" fill="#E5E7EB"/>
<path opacity="0.9" d="M60.7823 70.5458H60.1812C59.7832 70.5458 59.4606 70.8688 59.4606 71.2673V85.9965C59.4606 86.395 59.7832 86.718 60.1812 86.718H60.7823C61.1804 86.718 61.503 86.395 61.503 85.9965V71.2673C61.503 70.8688 61.1804 70.5458 60.7823 70.5458Z" fill="#E5E7EB"/>
<path opacity="0.9" d="M161.759 1.59108H72.8418C66.0651 1.59108 60.5714 7.09095 60.5714 13.8754V220.157C60.5714 226.941 66.0651 232.441 72.8418 232.441H161.759C168.536 232.441 174.029 226.941 174.029 220.157V13.8754C174.029 7.09095 168.536 1.59108 161.759 1.59108Z" fill="white"/>
<path opacity="0.9" d="M120.986 8.48466H107.576C106.903 8.48466 106.358 9.03056 106.358 9.70396V10.4853C106.358 11.1587 106.903 11.7046 107.576 11.7046H120.986C121.658 11.7046 122.203 11.1587 122.203 10.4853V9.70396C122.203 9.03056 121.658 8.48466 120.986 8.48466Z" fill="#E5E7EB"/>
<path opacity="0.9" d="M126.42 11.922C127.429 11.922 128.246 11.1039 128.246 10.0946C128.246 9.0854 127.429 8.26726 126.42 8.26726C125.412 8.26726 124.595 9.0854 124.595 10.0946C124.595 11.1039 125.412 11.922 126.42 11.922Z" fill="#E5E7EB"/>
</g>
<path d="M158.014 7.60564H145.026V9.18095C145.025 11.1508 144.243 13.0396 142.851 14.4321C141.46 15.8247 139.573 16.607 137.605 16.607H96.1962C94.2286 16.607 92.3416 15.8247 90.95 14.4321C89.5584 13.0396 88.7762 11.1508 88.7754 9.18095V7.60564H76.59C74.2004 7.60564 71.9086 8.55598 70.2189 10.2476C68.5292 11.9392 67.58 14.2336 67.58 16.6259V217.409C67.58 219.802 68.5292 222.096 70.2189 223.788C71.9086 225.479 74.2004 226.43 76.59 226.43H158.014C160.403 226.43 162.695 225.479 164.385 223.788C166.075 222.096 167.024 219.802 167.024 217.409V16.6259C167.024 14.2336 166.075 11.9392 164.385 10.2476C162.695 8.55598 160.403 7.60564 158.014 7.60564Z" fill="#ECECF3"/>
<path d="M91.2867 24.2756H75.2084V40.3722H91.2867V24.2756Z" fill="#D6D8E0"/>
<path d="M136.837 25.4256H103.151V28.4912H136.837V25.4256Z" fill="#D6D8E0"/>
<path d="M158.656 30.7911H103.151V33.8567H158.656V30.7911Z" fill="#D6D8E0"/>
<path d="M158.656 36.1566H103.151V39.2222H158.656V36.1566Z" fill="#D6D8E0"/>
<path d="M91.4095 53.7844H75.3312V69.881H91.4095V53.7844Z" fill="#D6D8E0"/>
<path d="M136.96 54.9344H103.274V58H136.96V54.9344Z" fill="#D6D8E0"/>
<path d="M158.779 60.2999H103.274V63.3655H158.779V60.2999Z" fill="#D6D8E0"/>
<path d="M158.779 65.6623H103.274V68.7279H158.779V65.6623Z" fill="#D6D8E0"/>
<path d="M91.5322 83.2932H75.4539V99.3898H91.5322V83.2932Z" fill="#D6D8E0"/>
<path d="M137.086 84.4401H103.4V87.5056H137.086V84.4401Z" fill="#D6D8E0"/>
<path d="M158.904 89.8056H103.4V92.8711H158.904V89.8056Z" fill="#D6D8E0"/>
<path d="M158.904 95.1711H103.4V98.2367H158.904V95.1711Z" fill="#D6D8E0"/>
<path d="M91.655 112.799H75.5767V128.895H91.655V112.799Z" fill="#D6D8E0"/>
<path d="M137.209 113.949H103.522V117.014H137.209V113.949Z" fill="#D6D8E0"/>
<path d="M159.027 119.314H103.522V122.38H159.027V119.314Z" fill="#D6D8E0"/>
<path d="M159.027 124.68H103.522V127.746H159.027V124.68Z" fill="#D6D8E0"/>
<path d="M91.7808 142.308H75.7025V158.404H91.7808V142.308Z" fill="#D6D8E0"/>
<path d="M137.331 143.458H103.645V146.523H137.331V143.458Z" fill="#D6D8E0"/>
<path d="M159.15 148.823H103.645V151.889H159.15V148.823Z" fill="#D6D8E0"/>
<path d="M159.15 154.189H103.645V157.254H159.15V154.189Z" fill="#D6D8E0"/>
<path d="M91.9035 171.817H75.8252V187.913H91.9035V171.817Z" fill="#D6D8E0"/>
<path d="M137.454 172.966H103.768V176.032H137.454V172.966Z" fill="#D6D8E0"/>
<path d="M159.273 178.332H103.768V181.398H159.273V178.332Z" fill="#D6D8E0"/>
<path d="M159.273 183.698H103.768V186.763H159.273V183.698Z" fill="#D6D8E0"/>
<path d="M92.0263 201.325H75.948V217.422H92.0263V201.325Z" fill="#D6D8E0"/>
<path d="M137.577 202.475H103.891V205.541H137.577V202.475Z" fill="#D6D8E0"/>
<path d="M159.395 207.841H103.891V210.906H159.395V207.841Z" fill="#D6D8E0"/>
<path d="M159.395 213.206H103.891V216.272H159.395V213.206Z" fill="#D6D8E0"/>
<path d="M185.821 72.8111H48.7826V106.917H185.821V72.8111Z" fill="url(#paint1_linear)"/>
<path d="M185.437 73.5798H49.5474V106.154H185.437V73.5798Z" fill="white"/>
<path d="M91.8469 81.8188H75.7686V97.9153H91.8469V81.8188Z" fill="#1B64AA"/>
<g opacity="0.5">
<path opacity="0.5" d="M137.401 82.9688H103.714V86.0343H137.401V82.9688Z" fill="#1B64AA"/>
<path opacity="0.5" d="M159.219 88.3343H103.714V91.3998H159.219V88.3343Z" fill="#1B64AA"/>
<path opacity="0.5" d="M159.219 93.6998H103.714V96.7654H159.219V93.6998Z" fill="#1B64AA"/>
</g>
<path d="M97.6154 102.581C96.7594 101.734 95.337 101.453 94.3079 102.077C93.5085 102.559 93.068 103.457 92.6651 104.305C92.0766 105.565 91.2143 106.743 90.95 108.104C90.223 111.857 87.2396 114.771 86.0437 118.398C85.6157 119.692 85.4143 121.082 84.7377 122.263C84.4179 122.781 84.0603 123.274 83.6677 123.738C82.1192 125.693 80.75 127.784 79.5765 129.986C78.8967 130.118 78.2925 130.694 77.7134 131.145C76.9715 131.722 76.1121 132.13 75.1958 132.339C74.8269 132.383 74.4734 132.512 74.1636 132.717C73.7293 133.08 73.6695 133.732 73.317 134.17C73.061 134.457 72.736 134.674 72.3729 134.8C72.3729 134.689 72.3572 134.579 72.354 134.466C72.3383 133.883 72.3288 133.297 72.3288 132.711C73.3437 131.515 73.8992 129.995 73.8958 128.426C73.8923 126.856 73.33 125.339 72.3099 124.147C72.3347 123.235 72.4561 122.328 72.6719 121.441C72.782 121.009 72.7663 120.48 72.4169 120.2C72.2439 120.064 72.0204 120.014 71.8347 119.885C71.5731 119.663 71.359 119.391 71.2053 119.084C70.7392 118.423 70.053 117.95 69.2697 117.749C68.4864 117.549 67.6575 117.635 66.9316 117.991C65.7955 118.59 65.1063 119.787 64.0993 120.6C63.5832 121.016 62.9884 121.328 62.4722 121.747C61.4394 122.649 60.7051 123.845 60.3669 125.175C60.0359 126.499 59.844 127.855 59.7941 129.22C59.7403 129.629 59.7563 130.045 59.8413 130.449C59.9431 130.787 60.0994 131.106 60.3039 131.394C61.263 132.956 62.6109 134.243 64.2157 135.127C64.2221 135.208 64.2221 135.289 64.2157 135.37C64.2157 135.496 64.1748 135.619 64.1465 135.745L63.9639 135.695C63.2905 135.543 62.5635 135.562 61.9593 135.225C60.927 134.645 60.6155 133.231 59.6273 132.582C59.5433 132.527 59.4549 132.48 59.3629 132.44C59.2932 130.648 58.9515 128.877 58.3496 127.188C58.0601 126.381 57.7044 125.559 57.7485 124.699C57.7863 123.902 58.1671 123.168 58.5069 122.446C59.6934 119.957 60.5242 117.317 61.3393 114.686C61.8617 113.033 62.3862 111.379 62.9128 109.724C63.4253 109.343 63.8893 108.901 64.2944 108.407C65.1342 107.428 65.6884 106.237 65.8962 104.963C65.996 104.328 65.9693 103.679 65.8175 103.054C65.6657 102.429 65.392 101.84 65.0119 101.321C64.8441 101.073 64.6253 100.864 64.3702 100.708C64.1151 100.551 63.8296 100.451 63.5328 100.414C63.2719 100.419 63.0148 100.478 62.7773 100.587C62.5398 100.695 62.3267 100.85 62.1512 101.044C61.6295 101.64 61.2277 102.331 60.968 103.079C60.4518 104.298 59.9294 105.565 59.9798 106.888C60.0207 107.985 60.4298 109.21 59.7909 110.102C57.6982 113.023 56.1183 116.381 54.4598 119.576C54.0406 120.339 53.6808 121.133 53.3835 121.951C52.9826 123.279 52.7925 124.661 52.8202 126.047C52.8045 128.647 53.1601 131.233 53.5126 133.81C53.6731 134.973 53.8776 136.208 54.4284 137.213C54.0676 138.459 53.878 139.748 53.865 141.044C53.8504 141.344 53.8976 141.643 54.0035 141.923C54.1887 142.25 54.4233 142.545 54.699 142.799C55.0679 143.219 55.343 143.712 55.5059 144.247C55.6687 144.782 55.7155 145.345 55.6431 145.899C55.5508 146.943 55.6457 147.995 55.9232 149.006C56.5526 151.804 57.182 154.598 57.6856 157.418C57.8051 157.943 57.8454 158.482 57.8052 159.019C57.7076 159.781 57.2859 160.506 57.3772 161.271C57.4673 161.626 57.5346 161.986 57.5786 162.349C57.558 162.626 57.4943 162.898 57.3897 163.155C56.6722 165.244 54.7431 170.033 54.7651 172.245L55.2686 172.125C54.7619 174.996 53.5755 177.74 52.9524 180.6C52.5202 182.685 52.3239 184.811 52.367 186.94C52.4085 187.895 52.3917 188.853 52.3167 189.807C52.2191 190.654 52.002 191.483 51.8824 192.327C51.747 193.459 51.6965 194.6 51.7313 195.739C51.6986 197.53 51.8038 199.321 52.046 201.095C52.5275 204.12 51.6841 207.126 51.4544 210.179C51.338 212.315 51.0963 214.442 50.7306 216.549C50.5575 217.438 50.3403 218.32 50.2207 219.218C49.8683 221.883 50.3812 224.631 49.8274 227.261C49.5661 228.493 49.1004 229.876 49.7865 230.929C50.0036 231.26 50.3152 231.518 50.5512 231.836C50.6805 231.987 50.7687 232.168 50.8073 232.363C50.8459 232.558 50.8336 232.76 50.7715 232.948C50.6361 233.238 50.3214 233.427 50.2428 233.736C50.1169 234.221 50.6236 234.618 51.0767 234.826L51.2058 234.876C51.1762 235.042 51.1828 235.213 51.2252 235.376C51.2675 235.539 51.3447 235.691 51.4512 235.822C51.7205 236.076 52.055 236.25 52.4174 236.326L58.359 238.128C59.6839 238.531 61.1253 238.928 62.4502 238.6C62.4801 238.789 62.5618 238.966 62.6862 239.111C62.9555 239.365 63.29 239.54 63.6524 239.615L69.55 241.405C71.0669 241.865 72.7317 242.318 74.1887 241.694C74.6062 241.522 74.9725 241.246 75.2524 240.891C75.4838 240.55 75.6376 240.163 75.7029 239.756C75.7681 239.35 75.7433 238.934 75.6301 238.537C75.5563 238.134 75.3556 237.766 75.0573 237.485C74.6537 237.204 74.1767 237.047 73.6852 237.035C73.2658 237.022 72.8548 236.914 72.483 236.72C72.3709 236.646 72.2771 236.548 72.2092 236.433C72.5491 236.097 72.8785 235.748 73.1974 235.387C72.9394 235.299 72.8481 234.927 72.8229 234.656C72.4484 230.642 73.959 226.719 74.5318 222.731C74.8211 220.73 74.8718 218.701 74.6828 216.688C74.6136 215.929 74.5097 215.172 74.4783 214.41C74.3304 210.44 76.2249 206.622 76.1588 202.649C76.1273 200.79 77.1029 198.956 77.5781 197.157C77.9935 195.563 78.0061 193.893 78.0156 192.242L78.0911 179.243C78.0911 177.485 78.0911 175.686 77.5309 174.025C77.2482 173.102 77.1708 172.127 77.3043 171.171C78.9062 170.462 80.4231 169.413 82.1351 169.595C82.5914 168.382 82.0501 164.34 81.6221 163.114C79.9395 158.292 79.6129 153.1 80.678 148.105C81.0651 146.312 80.5332 144.406 80.9644 142.62C81.0435 142.2 81.2027 141.8 81.4333 141.441C81.5501 141.262 81.7105 141.116 81.8993 141.016C82.0882 140.917 82.2992 140.867 82.5127 140.871C82.5127 139.778 82.4907 138.666 82.4183 137.557C83.1134 136.988 83.7062 136.305 84.1712 135.537C85.1153 133.962 85.6535 132.188 86.3049 130.474C87.4599 127.449 89.0366 124.611 90.3615 121.652C91.6864 118.694 91.8154 115.458 92.8791 112.396C93.465 110.709 94.6763 109.312 96.2622 108.495C96.8916 108.18 97.562 107.953 98.0183 107.437C98.3637 107.006 98.5758 106.483 98.6288 105.934C98.727 105.335 98.6867 104.721 98.511 104.14C98.3354 103.559 98.029 103.026 97.6154 102.581ZM60.7949 232.743C60.9239 232.602 61.0498 232.46 61.1694 232.306C60.7728 232.243 60.2882 231.953 60.2787 231.549C60.3071 231.145 60.394 230.747 60.5368 230.368C60.723 229.684 60.7531 228.967 60.6249 228.27C60.5368 227.781 60.3732 227.324 60.2724 226.827C60.1764 226.287 60.1134 225.742 60.0836 225.195C59.9139 223.23 59.5298 221.291 58.9381 219.41C58.3685 217.586 59.1489 215.739 59.3504 213.84C59.4479 212.939 59.4039 212.009 59.7186 211.162C59.9042 210.658 60.2095 210.216 60.3952 209.706C60.8263 208.537 60.5714 207.236 60.3071 206.017C62.1701 202.636 62.7869 198.603 63.4887 194.797C63.8832 192.661 64.2776 190.526 64.672 188.392C64.8451 187.447 65.0371 186.451 65.6162 185.689C66.2291 188.517 66.4703 191.412 66.3337 194.303C66.2612 195.142 66.2718 195.986 66.3652 196.823C66.5099 197.74 66.8907 198.606 67.111 199.507C67.6019 201.495 67.3156 203.584 67.4257 205.629C67.4666 206.455 67.5736 207.28 67.6082 208.106C67.7624 211.757 66.5414 215.308 65.3361 218.758C64.5965 220.872 64.4329 223.276 64.0772 225.491C63.7436 227.611 63.4132 229.735 63.2433 231.874C63.1929 232.526 63.152 233.197 63.0733 233.859C62.8709 233.814 62.666 233.781 62.4597 233.761C62.0403 233.749 61.6292 233.641 61.2575 233.446C61.035 233.265 60.8736 233.02 60.7949 232.743Z" fill="url(#paint2_linear)"/>
<path d="M73.6915 237.066C74.1824 237.08 74.6588 237.235 75.0636 237.513C75.3611 237.792 75.5618 238.159 75.6364 238.559C75.7494 238.953 75.7741 239.368 75.7089 239.772C75.6436 240.177 75.4899 240.562 75.2588 240.9C74.9784 241.252 74.612 241.526 74.1951 241.694C72.738 242.324 71.0732 241.868 69.5563 241.411L63.6147 239.618C63.2525 239.544 62.918 239.371 62.6485 239.117C62.4852 238.897 62.395 238.631 62.3904 238.357C62.3859 238.083 62.4674 237.814 62.6233 237.589C62.9429 237.145 63.3784 236.797 63.8821 236.584C65.7326 235.683 67.816 235.475 69.8616 235.437C70.6168 235.421 71.3596 235.258 71.8725 235.84C72.1432 236.156 72.096 236.489 72.5019 236.757C72.8698 236.95 73.2767 237.055 73.6915 237.066Z" fill="#3F3D56"/>
<path d="M62.466 233.793C62.9568 233.804 63.4338 233.958 63.8381 234.237C64.1338 234.517 64.3341 234.883 64.4108 235.283C64.5241 235.677 64.5489 236.091 64.4836 236.496C64.4183 236.9 64.2645 237.286 64.0332 237.624C63.753 237.977 63.3866 238.251 62.9695 238.421C61.5124 239.051 59.8476 238.591 58.3307 238.134L52.3891 236.341C52.0264 236.269 51.6916 236.095 51.4229 235.841C51.2596 235.62 51.1694 235.355 51.1649 235.081C51.1603 234.806 51.2418 234.538 51.3977 234.312C51.7166 233.867 52.1523 233.52 52.6566 233.307C54.507 232.406 56.5872 232.198 58.6202 232.161C59.3724 232.161 60.1183 231.981 60.6312 232.564C60.9019 232.879 60.8547 233.216 61.2606 233.481C61.6336 233.675 62.0458 233.781 62.466 233.793Z" fill="#3F3D56"/>
<path d="M67.6271 169.239C64.1267 168.887 60.6054 168.788 57.0907 168.943C56.8587 168.94 56.6279 168.976 56.4078 169.05C55.6337 169.365 55.5141 170.38 55.4385 171.212C55.1427 174.573 53.6605 177.708 52.9209 181.007C52.4883 183.078 52.2919 185.192 52.3355 187.308C52.3766 188.254 52.3598 189.2 52.2852 190.144C52.1876 190.988 51.9705 191.81 51.8509 192.664C51.7155 193.789 51.665 194.922 51.6998 196.054C51.6674 197.831 51.7726 199.609 52.0145 201.369C52.496 204.375 51.6526 207.356 51.4229 210.393C51.3063 212.515 51.0646 214.629 50.6991 216.722C50.526 217.605 50.3088 218.481 50.1892 219.372C49.8368 222.022 50.3497 224.753 49.7959 227.365C49.5347 228.588 49.0689 229.961 49.755 231.007C49.9721 231.338 50.2837 231.593 50.5197 231.909C50.6487 232.058 50.7368 232.239 50.7754 232.432C50.814 232.626 50.8018 232.827 50.74 233.014C50.6047 233.301 50.2899 233.49 50.2113 233.796C50.0854 234.278 50.5921 234.675 51.0452 234.88C54.4598 236.42 58.8625 235.333 61.1662 232.375C60.7697 232.312 60.285 232.025 60.2756 231.625C60.3039 231.223 60.3909 230.827 60.5336 230.45C60.7201 229.77 60.7502 229.057 60.6217 228.364C60.5336 227.882 60.37 227.419 60.2693 226.93C60.1733 226.395 60.1102 225.854 60.0805 225.311C59.9107 223.359 59.5265 221.432 58.9349 219.564C58.3653 217.753 59.1458 215.919 59.3472 214.029C59.4447 213.137 59.4007 212.211 59.7154 211.37C59.9011 210.869 60.2063 210.424 60.392 209.923C60.8232 208.761 60.5682 207.472 60.3039 206.259C62.167 202.897 62.7838 198.893 63.4856 195.112C63.88 192.991 64.2744 190.869 64.6689 188.748C64.8419 187.803 65.0339 186.823 65.613 186.064C66.226 188.873 66.4673 191.751 66.3305 194.624C66.2591 195.452 66.2697 196.284 66.362 197.11C66.5067 198.02 66.8875 198.88 67.1078 199.778C67.5988 201.751 67.3124 203.827 67.4225 205.859C67.4634 206.678 67.5705 207.497 67.6051 208.32C67.7593 211.946 66.5382 215.475 65.3329 218.9C64.5933 221.001 64.4297 223.389 64.0741 225.588C63.7405 227.696 63.41 229.804 63.2401 231.931C63.0859 233.884 63.0198 235.998 61.805 237.532C62.9128 238.254 64.0615 238.988 65.3581 239.237C66.8733 239.474 68.4237 239.174 69.7419 238.389C71.0502 237.604 72.2199 236.608 73.2037 235.44C72.9456 235.352 72.8544 234.98 72.8292 234.713C72.4547 230.727 73.9653 226.836 74.538 222.866C74.8273 220.878 74.878 218.862 74.6891 216.861C74.6199 216.108 74.516 215.358 74.4845 214.602C74.3366 210.658 76.2312 206.861 76.1651 202.916C76.1336 201.07 77.1092 199.246 77.5844 197.46C77.9998 195.884 78.0124 194.218 78.0218 192.579L78.0974 179.662C78.0974 177.913 78.0974 176.127 77.5372 174.476C76.8448 172.494 77.6348 170.213 77.7543 168.118C74.4845 169.152 71.0436 169.533 67.6271 169.239Z" fill="#3F3D56"/>
<path d="M78.8496 132.128C80.1724 129.42 81.7881 126.865 83.6677 124.51C84.0595 124.049 84.4171 123.561 84.7378 123.048C85.4144 121.876 85.6158 120.493 86.0438 119.207C87.2397 115.603 90.2231 112.708 90.95 108.98C91.2144 107.629 92.0767 106.46 92.6652 105.2C93.068 104.355 93.5086 103.467 94.3079 102.994C95.337 102.364 96.7595 102.657 97.6155 103.498C98.0274 103.938 98.3327 104.466 98.5079 105.042C98.6831 105.619 98.7234 106.228 98.6257 106.822C98.5744 107.37 98.3619 107.889 98.0152 108.316C97.5589 108.829 96.8759 109.062 96.2591 109.371C94.675 110.177 93.463 111.564 92.876 113.243C91.8249 116.287 91.6927 119.507 90.3584 122.44C89.024 125.373 87.4568 128.193 86.3018 131.195C85.6504 132.9 85.1248 134.661 84.1681 136.236C83.2114 137.812 81.7071 139.132 79.9007 139.368C79.9032 138.23 79.7248 137.098 79.372 136.016C78.9912 134.765 78.2768 133.287 78.8496 132.128Z" fill="#A0616A"/>
<path d="M59.3629 134.478C59.4433 132.251 59.0972 130.029 58.3433 127.931C58.0538 127.128 57.6981 126.312 57.7422 125.458C57.78 124.667 58.1608 123.936 58.5006 123.221C59.6871 120.748 60.5179 118.123 61.333 115.508L62.9065 110.581C63.4181 110.203 63.882 109.764 64.2881 109.273C65.1263 108.302 65.6806 107.118 65.8899 105.852C65.9895 105.22 65.9626 104.574 65.8108 103.953C65.659 103.331 65.3853 102.746 65.0056 102.232C64.8374 101.985 64.6183 101.777 64.3632 101.622C64.1081 101.467 63.8228 101.369 63.5265 101.334C63.2653 101.338 63.0079 101.397 62.7703 101.505C62.5326 101.613 62.3197 101.77 62.1449 101.964C61.6235 102.555 61.2216 103.242 60.9616 103.987C60.4455 105.196 59.9231 106.457 59.9735 107.767C60.0144 108.857 60.4235 110.074 59.7846 110.959C57.6918 113.861 56.112 117.197 54.4535 120.37C54.0344 121.127 53.6746 121.916 53.3772 122.73C52.9757 124.05 52.7856 125.426 52.8139 126.807C52.7982 129.39 53.1538 131.958 53.5063 134.519C53.7265 136.12 54.0224 137.865 55.234 138.93C56.496 137.327 57.7611 135.745 59.3629 134.478Z" fill="#A0616A"/>
<path d="M67.3722 135.71C70.9787 135.71 73.9023 132.783 73.9023 129.173C73.9023 125.562 70.9787 122.635 67.3722 122.635C63.7657 122.635 60.842 125.562 60.842 129.173C60.842 132.783 63.7657 135.71 67.3722 135.71Z" fill="#A0616A"/>
<path d="M64.2 136.057C64.0426 137.241 63.4101 138.297 62.7933 139.318C62.4188 139.948 61.9467 140.619 61.2197 140.688C63.11 141.684 65.0966 142.484 67.1488 143.076C67.8476 143.311 68.5801 143.429 69.3171 143.426C69.9408 143.38 70.5513 143.223 71.1204 142.963C72.3654 142.417 73.4698 141.594 74.3499 140.557C75.2299 139.519 75.8625 138.295 76.1997 136.977C75.3877 136.999 74.5757 136.936 73.7765 136.791C73.3296 136.709 72.8481 136.577 72.5869 136.208C72.4055 135.887 72.3203 135.521 72.3414 135.153C72.31 134.063 72.31 132.972 72.3414 131.882C70.7371 131.779 69.1275 131.977 67.5957 132.465C66.9663 132.67 66.3368 132.919 65.6917 133.08C65.2952 133.177 64.2031 133.08 63.9105 133.31C63.4667 133.659 64.3164 135.253 64.2 136.057Z" fill="#A0616A"/>
<path d="M67.0796 140.03C67.007 139.171 66.6665 138.356 66.1063 137.702C65.5461 137.047 64.7945 136.585 63.9577 136.381C63.2843 136.233 62.5573 136.249 61.9531 135.915C60.9208 135.339 60.6093 133.933 59.6211 133.287C58.6329 132.642 57.223 133.001 56.3607 133.82C55.4984 134.639 55.061 135.799 54.7085 136.933C54.1808 138.47 53.8952 140.081 53.862 141.706C53.8474 142.004 53.8945 142.303 54.0004 142.582C54.1866 142.907 54.4211 143.201 54.6959 143.455C55.0644 143.869 55.3395 144.359 55.5024 144.889C55.6653 145.42 55.7122 145.979 55.6401 146.53C55.5478 147.568 55.6427 148.615 55.9202 149.62C56.5496 152.396 57.179 155.175 57.6825 157.976C57.8005 158.492 57.8408 159.023 57.8021 159.551C57.7045 160.307 57.2828 161.029 57.3741 161.785C57.4642 162.138 57.5315 162.497 57.5755 162.859C57.5549 163.133 57.4912 163.402 57.3867 163.656C56.6692 165.736 54.74 170.493 54.762 172.689C58.1137 171.829 63.0545 171.637 66.5132 171.624C67.4662 171.611 68.4193 171.653 69.3675 171.75C71.6429 171.993 73.9717 172.658 76.1778 172.043C78.2234 171.473 80.0392 169.838 82.1572 170.046C82.6135 168.839 82.0722 164.822 81.6442 163.606C79.9617 158.818 79.635 153.657 80.7001 148.694C81.0872 146.911 80.5553 145.02 80.9865 143.247C81.0651 142.829 81.2244 142.431 81.4554 142.075C81.5726 141.896 81.7331 141.751 81.922 141.652C82.1108 141.552 82.3217 141.503 82.5348 141.507C82.5741 138.659 82.3103 135.815 81.7481 133.023C81.5372 132.03 81.0998 130.858 80.1022 130.688C79.2021 130.537 78.4437 131.296 77.723 131.857C76.979 132.429 76.1201 132.833 75.2053 133.042C74.8367 133.084 74.4831 133.213 74.1731 133.417C73.7388 133.776 73.679 134.425 73.3265 134.863C72.6971 135.647 71.2904 135.578 70.8435 136.482C70.7429 136.752 70.6629 137.029 70.6043 137.311C70.3933 137.847 70.0341 138.311 69.5689 138.65C68.8655 139.308 68.0103 139.782 67.0796 140.03Z" fill="#1B64AA"/>
<path d="M72.6781 122.222C72.7883 121.791 72.7725 121.277 72.4232 120.987C72.2501 120.852 72.0267 120.802 71.841 120.672C71.5793 120.452 71.3652 120.181 71.2116 119.875C70.7408 119.217 70.0521 118.747 69.2678 118.549C68.4836 118.351 67.6547 118.438 66.9285 118.795C65.7924 119.39 65.1032 120.581 64.0961 121.388C63.58 121.803 62.9852 122.112 62.4691 122.525C61.4374 123.421 60.703 124.61 60.3637 125.934C60.0336 127.251 59.8427 128.6 59.7941 129.957C59.7403 130.364 59.7563 130.778 59.8413 131.18C59.9441 131.513 60.1003 131.826 60.3039 132.109C61.3393 133.684 62.7114 135.118 64.4265 135.928C66.1417 136.737 68.2282 136.873 69.9213 136.025C70.0911 135.954 70.2372 135.836 70.343 135.685C70.4401 135.455 70.4621 135.2 70.406 134.957C70.3165 133.995 70.5078 133.028 70.9567 132.172C71.2714 131.542 71.7403 131 71.9952 130.345C72.2265 129.614 72.3266 128.848 72.291 128.083C72.3162 126.107 72.1809 124.132 72.6781 122.222Z" fill="#2D293D"/>
<path d="M91.7808 82.0109H75.7025V98.1075H91.7808V82.0109Z" fill="#1B64AA"/>
<path d="M85.9147 95.7225C85.6818 96.1722 85.2954 96.5233 84.8258 96.7118C84.5482 96.8134 84.2558 96.8687 83.9603 96.8756C83.641 96.8991 83.3202 96.8595 83.0162 96.759C82.6113 96.5996 82.2637 96.3218 82.0186 95.9619C81.7765 95.602 81.5819 95.2123 81.4395 94.8025C81.3439 94.5981 81.3038 94.3721 81.3231 94.1472C81.4462 94.1321 81.5652 94.093 81.6732 94.0319C81.7812 93.9708 81.8761 93.889 81.9525 93.7912C81.9978 93.6927 82.0225 93.586 82.0252 93.4777C82.0279 93.3694 82.0086 93.2616 81.9682 93.161C81.9494 93.098 81.9305 93.0381 81.9085 92.9814C81.8612 92.8428 81.6976 92.5813 81.8109 92.4647C81.9242 92.3482 82.1885 92.3513 82.2924 92.3041C82.6002 92.1199 82.9287 91.9729 83.2711 91.8661C83.5815 91.8247 83.897 91.8451 84.1995 91.926C84.2409 91.9328 84.2805 91.9478 84.3159 91.9701C84.3557 92.0031 84.3852 92.0468 84.4009 92.0961C84.489 92.3104 84.5394 92.5467 84.6086 92.7672C84.669 92.9985 84.7883 93.2102 84.9548 93.3816C85.0985 93.5037 85.2611 93.6016 85.4363 93.6714L85.858 93.8636C85.932 93.8931 85.9994 93.937 86.0563 93.9928C86.1102 94.0689 86.1428 94.1581 86.1507 94.2511C86.2288 94.7542 86.1462 95.2692 85.9147 95.7225Z" fill="#A0616A"/>
<path opacity="0.1" d="M84.6056 92.7766C84.2707 93.1249 83.83 93.3523 83.3524 93.4236C82.8748 93.4948 82.387 93.4058 81.9652 93.1705C81.9463 93.1074 81.9275 93.0476 81.9054 92.9909C81.8582 92.8522 81.6946 92.5907 81.8079 92.4742C81.9212 92.3576 82.1855 92.3608 82.2894 92.3135C82.5972 92.1293 82.9257 91.9823 83.2681 91.8756C83.5785 91.8342 83.894 91.8545 84.1965 91.9354C84.2378 91.9422 84.2774 91.9572 84.3129 91.9795C84.3527 92.0126 84.3822 92.0563 84.3979 92.1056C84.486 92.3292 84.5364 92.5561 84.6056 92.7766Z" fill="black"/>
<path d="M83.032 93.3532C84.2382 93.3532 85.216 92.3742 85.216 91.1667C85.216 89.9591 84.2382 88.9801 83.032 88.9801C81.8257 88.9801 80.8479 89.9591 80.8479 91.1667C80.8479 92.3742 81.8257 93.3532 83.032 93.3532Z" fill="#A0616A"/>
<path d="M89.6566 98.1044H79.3783C79.0636 97.4018 78.7804 96.696 78.4625 95.9934C78.4965 95.8263 78.5593 95.6664 78.6482 95.5208C78.6937 95.4498 78.756 95.3911 78.8295 95.3499C78.9031 95.3086 78.9856 95.2862 79.0699 95.2845C79.1612 95.2845 79.265 95.3192 79.3311 95.253C79.3972 95.1869 79.3752 95.1333 79.4224 95.0892C79.4696 95.0451 79.5829 95.0451 79.671 95.0514C79.7655 95.0544 79.8594 95.0338 79.944 94.9915C80.0286 94.9491 80.1013 94.8863 80.1556 94.8088C80.1894 94.7501 80.2306 94.6961 80.2784 94.6481C80.3611 94.6079 80.4509 94.5844 80.5427 94.5788C80.7976 94.5221 80.9487 94.2637 81.1407 94.1031C81.1868 94.051 81.247 94.0134 81.3141 93.9949C81.3811 93.9765 81.4521 93.9779 81.5183 93.9991C81.5491 94.015 81.576 94.0376 81.597 94.0653C81.6486 94.1446 81.6839 94.2335 81.7008 94.3268C81.8148 94.85 82.1047 95.3183 82.5222 95.6532C82.744 95.8211 83.0006 95.9371 83.273 95.9928C83.5454 96.0485 83.8269 96.0424 84.0967 95.9751C84.3665 95.9077 84.6178 95.7807 84.8322 95.6034C85.0466 95.4262 85.2186 95.2031 85.3357 94.9506C85.4878 94.5698 85.575 94.1662 85.5937 93.7565C85.5937 93.7344 85.5937 93.7218 85.5937 93.7029C85.7218 93.6711 85.8553 93.6679 85.9847 93.6935C86.1141 93.7191 86.2364 93.7729 86.3427 93.851C86.5516 94.0112 86.775 94.1515 87.0099 94.27C87.29 94.3803 87.6393 94.3803 87.8313 94.5851C87.9131 94.667 87.9698 94.7804 88.0736 94.8309C88.1382 94.8562 88.206 94.8721 88.275 94.8781C88.4508 94.9256 88.6134 95.0128 88.7503 95.133C88.8872 95.2531 88.9949 95.403 89.065 95.5713C89.2928 96.0768 89.4414 96.6146 89.5055 97.1655L89.6566 98.1044Z" fill="#F86D70"/>
<path d="M81.5246 87.6191C81.3725 87.7424 81.2436 87.8917 81.1438 88.0602C80.9563 88.3698 80.6945 88.6275 80.3822 88.81C80.2512 88.8559 80.1319 88.9301 80.0328 89.0274C79.9842 89.1013 79.953 89.1853 79.9416 89.2731C79.8777 89.5788 79.845 89.8902 79.844 90.2026C79.8324 90.3597 79.8583 90.5174 79.9196 90.6626C79.9825 90.7949 80.1021 90.9083 80.1241 91.0532C80.1287 91.1679 80.116 91.2826 80.0863 91.3935C80.0716 91.4516 80.0748 91.5129 80.0956 91.5692C80.1164 91.6254 80.1538 91.674 80.2028 91.7086C80.2598 91.7288 80.3189 91.7426 80.379 91.7495C80.6937 91.8188 80.8007 92.1906 80.8479 92.4962C80.9549 92.4962 81.0021 92.367 81.0273 92.2662L81.342 90.8012C81.3798 90.6437 81.4364 90.4578 81.5969 90.4042C81.7069 90.3806 81.8206 90.3806 81.9305 90.4042C82.3648 90.442 82.7299 90.1049 83.1547 90.0104C83.2916 89.9847 83.4312 89.9762 83.5701 89.9852C83.9037 89.9852 84.294 90.1396 84.3664 90.4515C84.3664 90.5019 84.3852 90.5649 84.4324 90.5901C84.4807 90.6042 84.5321 90.6042 84.5804 90.5901C84.7912 90.568 84.9171 90.8075 84.98 91.0028L85.2003 91.718C85.2349 91.8251 85.2916 91.9543 85.408 91.9669C85.4613 91.9666 85.5127 91.9469 85.5526 91.9116C85.5925 91.8763 85.6183 91.8276 85.6252 91.7747C85.6299 91.6679 85.615 91.5611 85.5811 91.4597C85.4773 90.9934 85.6378 90.5145 85.7353 90.045C85.8329 89.5756 85.8486 89.0368 85.5213 88.6745C85.4017 88.5453 85.2444 88.4477 85.1342 88.309C85.0241 88.1704 84.9737 88.0223 84.8667 87.8932C84.4393 87.5178 83.906 87.2844 83.3404 87.2252C82.7093 87.1694 82.076 87.3067 81.5246 87.6191Z" fill="#3F3D56"/>
<g opacity="0.1">
<path opacity="0.1" d="M85.4205 91.6266C85.3041 91.6266 85.2474 91.4849 85.2128 91.3778L84.9925 90.6626C84.9296 90.4672 84.8037 90.2278 84.5928 90.2467C84.5445 90.2608 84.4932 90.2608 84.4449 90.2467C84.3977 90.2215 84.3914 90.1616 84.3788 90.108C84.3064 89.793 83.9162 89.6575 83.5826 89.6417C83.4435 89.6322 83.3037 89.6418 83.1672 89.6701C82.7424 89.7615 82.3773 90.0986 81.943 90.0608C81.8327 90.0404 81.7197 90.0404 81.6094 90.0608C81.4489 90.1175 81.3923 90.3002 81.3545 90.4609C81.2444 90.9493 81.1374 91.4376 81.0398 91.9228C81.0146 92.0236 80.9674 92.1465 80.8604 92.1528C80.8132 91.8377 80.7062 91.4754 80.3915 91.4061C80.3311 91.4007 80.2718 91.3869 80.2153 91.3651C80.1734 91.3426 80.141 91.3057 80.124 91.2612C80.124 91.3053 80.1051 91.3525 80.0988 91.3967C80.0841 91.4548 80.0873 91.516 80.1081 91.5723C80.1289 91.6286 80.1663 91.6772 80.2153 91.7117C80.2723 91.732 80.3314 91.7457 80.3915 91.7527C80.7062 91.822 80.8132 92.1938 80.8604 92.4994C80.9674 92.4994 81.0146 92.3702 81.0398 92.2694C81.1499 91.781 81.2569 91.2927 81.3545 90.8043C81.3923 90.6468 81.4489 90.4609 81.6094 90.4074C81.7194 90.3838 81.833 90.3838 81.943 90.4074C82.3773 90.4452 82.7424 90.108 83.1672 90.0135C83.3041 89.9878 83.4436 89.9793 83.5826 89.9883C83.9162 89.9883 84.3064 90.1427 84.3788 90.4546C84.3788 90.505 84.3977 90.568 84.4449 90.5932C84.4932 90.6073 84.5445 90.6073 84.5928 90.5932C84.8037 90.5712 84.9296 90.8106 84.9925 91.006L85.2128 91.7212C85.2474 91.8283 85.3041 91.9575 85.4205 91.9701C85.4738 91.9697 85.5252 91.9501 85.5651 91.9148C85.605 91.8794 85.6308 91.8308 85.6376 91.7779C85.6444 91.6926 85.6337 91.6068 85.6062 91.5258C85.5882 91.5587 85.5611 91.5857 85.5281 91.6036C85.4952 91.6214 85.4578 91.6295 85.4205 91.6266Z" fill="black"/>
<path opacity="0.1" d="M80.124 90.7193C80.102 90.5744 79.9824 90.461 79.9195 90.3286C79.8781 90.2394 79.8536 90.1432 79.8471 90.0451C79.8471 90.0986 79.8471 90.149 79.8471 90.2026C79.8354 90.3598 79.8613 90.5174 79.9226 90.6626C79.973 90.7697 80.0611 90.8642 80.1052 90.9777C80.1274 90.8935 80.1338 90.8059 80.124 90.7193Z" fill="black"/>
<path opacity="0.1" d="M85.7478 89.7079C85.6228 90.1161 85.5622 90.5413 85.5684 90.9682C85.6094 90.6581 85.6693 90.3509 85.7478 90.0482C85.8002 89.8169 85.8182 89.5791 85.8013 89.3425C85.7914 89.4653 85.7735 89.5874 85.7478 89.7079Z" fill="black"/>
</g>
<path d="M80.1996 98.1043H77.748C77.8562 97.4435 78.0498 96.7996 78.324 96.1888C78.3455 96.126 78.381 96.0689 78.4278 96.0218C78.4379 96.0107 78.4496 96.0011 78.4624 95.9934C78.5348 95.9367 78.6355 95.9147 78.7142 95.8611C78.7929 95.8076 78.8023 95.7509 78.8747 95.7288C79.1471 95.7224 79.4182 95.7673 79.674 95.8611C79.7464 95.8693 79.8174 95.8873 79.8849 95.9147C80.0445 96.0033 80.1639 96.1499 80.2185 96.3243C80.4262 96.8882 80.2688 97.4994 80.1996 98.1043Z" fill="#F86D70"/>
</g>
<defs>
<linearGradient id="paint0_linear" x1="117.426" y1="233.767" x2="117.426" y2="3.39941e-06" gradientUnits="userSpaceOnUse">
<stop stop-color="#808080" stop-opacity="0.25"/>
<stop offset="0.54" stop-color="#808080" stop-opacity="0.12"/>
<stop offset="1" stop-color="#808080" stop-opacity="0.1"/>
</linearGradient>
<linearGradient id="paint1_linear" x1="51128.6" y1="11646.9" x2="51128.6" y2="7954.61" gradientUnits="userSpaceOnUse">
<stop stop-color="#808080" stop-opacity="0.25"/>
<stop offset="0.54" stop-color="#808080" stop-opacity="0.12"/>
<stop offset="1" stop-color="#808080" stop-opacity="0.1"/>
</linearGradient>
<linearGradient id="paint2_linear" x1="20586.7" y1="86374.2" x2="28297.1" y2="86374.2" gradientUnits="userSpaceOnUse">
<stop stop-color="#808080" stop-opacity="0.25"/>
<stop offset="0.54" stop-color="#808080" stop-opacity="0.12"/>
<stop offset="1" stop-color="#808080" stop-opacity="0.1"/>
</linearGradient>
<clipPath id="clip0">
<rect width="214" height="242" fill="white"/>
</clipPath>
</defs>
</svg>
