<svg width="349" height="395" viewBox="0 0 349 395" fill="none" xmlns="http://www.w3.org/2000/svg">
<g clip-path="url(#clip0)">
<g opacity="0.2">
<path opacity="0.2" d="M259.24 360.519C258.926 361.105 258.564 361.664 258.157 362.19C254.561 359.657 250.904 357.17 247.184 354.729L247.426 354.25C248.286 352.585 249.574 351.179 251.157 350.177C253.21 348.912 255.524 348.635 257.429 349.663C259.333 350.692 260.395 352.749 260.508 355.15C260.566 357.021 260.129 358.873 259.24 360.519Z" fill="#3F3D56"/>
<path opacity="0.2" d="M264.249 351.104C266.511 346.824 265.701 341.952 262.44 340.221C259.179 338.49 254.701 340.556 252.439 344.835C250.177 349.115 250.987 353.987 254.248 355.718C257.509 357.449 261.987 355.383 264.249 351.104Z" fill="#3F3D56"/>
<path opacity="0.2" d="M269.256 341.634C271.518 337.355 270.708 332.483 267.447 330.752C264.185 329.021 259.708 331.087 257.446 335.366C255.183 339.645 255.993 344.518 259.255 346.248C262.516 347.979 266.994 345.914 269.256 341.634Z" fill="#3F3D56"/>
<path opacity="0.2" d="M274.263 332.165C276.525 327.886 275.715 323.014 272.454 321.283C269.192 319.552 264.715 321.618 262.452 325.897C260.19 330.176 261 335.048 264.261 336.779C267.523 338.51 272 336.444 274.263 332.165Z" fill="#3F3D56"/>
<path opacity="0.2" d="M279.264 322.701C281.526 318.422 280.716 313.55 277.455 311.819C274.194 310.088 269.716 312.154 267.454 316.433C265.192 320.712 266.002 325.584 269.263 327.315C272.524 329.046 277.002 326.98 279.264 322.701Z" fill="#3F3D56"/>
<path opacity="0.2" d="M285.487 243.012C285.213 241.555 285.042 240.08 284.974 238.599L301.87 244.297L285.02 235.514C285.265 231.149 286.396 226.881 288.344 222.97C290.293 219.059 293.018 215.587 296.352 212.768L312.678 236.424L300.001 210.115C303.727 207.778 307.893 206.236 312.239 205.583C316.586 204.93 321.02 205.181 325.265 206.321C329.511 207.46 333.477 209.463 336.916 212.205C340.355 214.947 343.194 218.37 345.255 222.259C347.316 226.148 348.556 230.421 348.898 234.812C349.239 239.202 348.674 243.616 347.239 247.779C345.804 251.941 343.528 255.762 340.554 259.005C337.58 262.248 333.972 264.842 329.954 266.626C330.372 268.896 330.544 271.205 330.467 273.512L304.805 273.306L330.098 277.482C329.243 282.745 327.092 287.711 323.84 291.931C320.588 296.151 316.337 299.492 311.472 301.652C312.544 307.575 311.931 313.68 309.703 319.269C307.475 324.859 303.723 329.708 298.874 333.262C294.026 336.815 288.277 338.93 282.286 339.365C276.295 339.799 270.302 338.536 264.994 335.719C259.685 332.902 255.275 328.645 252.267 323.435C249.259 318.225 247.775 312.272 247.984 306.257C248.194 300.241 250.088 294.406 253.451 289.419C256.813 284.431 261.509 280.493 267 278.053C265.721 270.976 266.853 263.673 270.213 257.318C273.573 250.962 278.966 245.922 285.528 243.006L285.487 243.012Z" fill="#1B64AA"/>
<path opacity="0.1" d="M326.746 287.346C323.394 293.708 317.998 298.75 311.431 301.657C312.503 307.58 311.89 313.685 309.662 319.275C307.434 324.864 303.682 329.713 298.833 333.267C293.985 336.82 288.236 338.935 282.245 339.37C276.254 339.804 270.261 338.541 264.953 335.724C259.644 332.907 255.234 328.65 252.226 323.44C249.218 318.23 247.734 312.277 247.943 306.262C248.152 300.246 250.047 294.411 253.41 289.424C256.772 284.437 261.468 280.498 266.959 278.058C265.717 271.224 328.43 284.162 326.746 287.346Z" fill="black"/>
</g>
<g opacity="0.2">
<path opacity="0.2" d="M111.372 319.723C111.676 320.965 112.087 322.178 112.599 323.349C120.506 320.315 128.504 317.4 136.592 314.606C136.521 314.277 136.449 313.938 136.367 313.578C135.546 310.061 133.804 306.827 131.322 304.208C128.093 300.876 123.905 299.251 119.876 300.238C115.847 301.225 112.881 304.594 111.541 309.027C110.533 312.513 110.475 316.206 111.372 319.723Z" fill="#3F3D56"/>
<path opacity="0.2" d="M122.999 312.988C129.902 311.299 133.71 302.592 131.505 293.539C129.299 284.486 121.914 278.517 115.011 280.205C108.108 281.894 104.299 290.602 106.505 299.654C108.711 308.707 116.095 314.677 122.999 312.988Z" fill="#3F3D56"/>
<path opacity="0.2" d="M118.112 292.951C125.015 291.263 128.824 282.555 126.618 273.502C124.412 264.45 117.028 258.48 110.124 260.169C103.221 261.857 99.4127 270.565 101.618 279.618C103.824 288.67 111.209 294.64 118.112 292.951Z" fill="#3F3D56"/>
<path opacity="0.2" d="M113.232 272.914C120.135 271.226 123.943 262.518 121.737 253.465C119.532 244.413 112.147 238.443 105.244 240.132C98.3405 241.821 94.5323 250.528 96.7381 259.581C98.9439 268.634 106.328 274.603 113.232 272.914Z" fill="#3F3D56"/>
<path opacity="0.2" d="M108.351 252.883C115.255 251.194 119.063 242.486 116.857 233.434C114.651 224.381 107.267 218.411 100.363 220.1C93.4601 221.789 89.6519 230.497 91.8577 239.549C94.0634 248.602 101.448 254.572 108.351 252.883Z" fill="#3F3D56"/>
<path opacity="0.2" d="M117.726 87.9635C118.905 85.3693 119.902 82.6955 120.708 79.9617L86.552 82.5895L122.15 74.1506C123.749 65.8869 123.648 57.3831 121.854 49.1597C120.06 40.9363 116.61 33.1662 111.716 26.3248L70.0823 62.765L106.142 19.6549C100.288 13.5404 93.2399 8.69881 85.4374 5.4313C77.635 2.16379 69.2448 0.540334 60.7891 0.661972C52.3335 0.78361 43.9933 2.64774 36.2877 6.13834C28.582 9.62894 21.6759 14.6713 15.999 20.9516C10.3221 27.2319 5.99598 34.6157 3.28991 42.6436C0.583845 50.6714 -0.44426 59.1713 0.269562 67.6144C0.983385 76.0575 3.42386 84.2631 7.43912 91.7204C11.4544 99.1777 16.9585 105.727 23.6088 110.961C21.7702 115.001 20.3746 119.229 19.4465 123.571L67.4802 135.337L18.3122 131.161C17.4186 141.399 19.088 151.699 23.1691 161.127C27.2503 170.556 33.6144 178.815 41.685 185.158C36.8944 195.705 35.1623 207.389 36.6868 218.876C38.2113 230.362 42.9307 241.187 50.3056 250.113C57.6805 259.038 67.4132 265.705 78.391 269.349C89.3687 272.994 101.148 273.47 112.383 270.722C123.618 267.975 133.855 262.116 141.923 253.814C149.991 245.512 155.565 235.103 158.007 223.777C160.45 212.45 159.662 200.664 155.734 189.765C151.807 178.866 144.898 169.295 135.797 162.145C141.523 149.541 142.854 135.374 139.576 121.92C136.299 108.466 128.603 96.5072 117.726 87.9635Z" fill="#1B64AA"/>
<path opacity="0.1" d="M19.8417 151.186C23.0991 164.642 30.796 176.602 41.685 185.127C36.8944 195.674 35.1623 207.358 36.6868 218.845C38.2113 230.331 42.9307 241.156 50.3056 250.082C57.6805 259.007 67.4132 265.674 78.391 269.318C89.3687 272.963 101.148 273.439 112.383 270.691C123.618 267.944 133.855 262.085 141.923 253.783C149.991 245.481 155.565 235.072 158.007 223.746C160.45 212.419 159.662 200.633 155.734 189.734C151.807 178.835 144.898 169.264 135.797 162.114C141.335 149.957 18.1993 144.454 19.8417 151.186Z" fill="black"/>
</g>
<path d="M287.412 86.5544H286.267V24.71C286.267 11.0719 275.063 0.0257263 261.242 0.0257263H121.062C107.241 0.0257263 96.0366 11.0822 96.0366 24.71V50.3457H95.9494H95.703C95.3159 50.3429 94.9436 50.494 94.6675 50.7658C94.3914 51.0377 94.2341 51.4081 94.23 51.7959V64.138C94.2341 64.5258 94.3914 64.8962 94.6675 65.1681C94.9436 65.4399 95.3159 65.591 95.703 65.5882H95.975H96.0623V78.1926H95.6106C95.4192 78.1913 95.2294 78.2277 95.052 78.2999C94.8747 78.372 94.7132 78.4785 94.5769 78.6131C94.4406 78.7478 94.3321 78.908 94.2576 79.0847C94.1831 79.2614 94.1441 79.451 94.1428 79.6428V103.242C94.1455 103.63 94.3015 104.001 94.5766 104.274C94.8517 104.546 95.2236 104.699 95.6106 104.697H96.0623V113.954H95.6722C95.4804 113.952 95.29 113.988 95.112 114.06C94.9341 114.132 94.772 114.238 94.6352 114.373C94.4983 114.507 94.3894 114.668 94.3146 114.845C94.2398 115.022 94.2006 115.212 94.1992 115.404V139.235C94.2006 139.427 94.2398 139.617 94.3146 139.794C94.3894 139.971 94.4983 140.132 94.6352 140.266C94.772 140.401 94.9341 140.507 95.112 140.579C95.29 140.651 95.4804 140.687 95.6722 140.685H96.0623V356.868C96.0623 370.506 107.266 381.552 121.088 381.552H261.237C275.058 381.552 286.262 370.496 286.262 356.868V132.807H287.412C287.799 132.809 288.171 132.658 288.447 132.386C288.723 132.115 288.881 131.744 288.885 131.356V88.0046C288.881 87.6168 288.723 87.2464 288.447 86.9746C288.171 86.7028 287.799 86.5517 287.412 86.5544Z" fill="url(#paint0_linear)"/>
<g opacity="0.9">
<path opacity="0.9" d="M285.184 88.0715H282.007C281.358 88.0715 280.832 88.5988 280.832 89.2492V132.57C280.832 133.221 281.358 133.748 282.007 133.748H285.184C285.833 133.748 286.36 133.221 286.36 132.57V89.2492C286.36 88.5988 285.833 88.0715 285.184 88.0715Z" fill="#E5E7EB"/>
<path opacity="0.9" d="M98.9569 52.2896H98.2024C97.5533 52.2896 97.0271 52.8168 97.0271 53.4672V66.1488C97.0271 66.7992 97.5533 67.3264 98.2024 67.3264H98.9569C99.606 67.3264 100.132 66.7992 100.132 66.1488V53.4672C100.132 52.8168 99.606 52.2896 98.9569 52.2896Z" fill="#E5E7EB"/>
<path opacity="0.9" d="M99.2391 79.8177H98.0895C97.4404 79.8177 96.9142 80.3449 96.9142 80.9953V104.811C96.9142 105.461 97.4404 105.988 98.0895 105.988H99.2391C99.8882 105.988 100.414 105.461 100.414 104.811V80.9953C100.414 80.3449 99.8882 79.8177 99.2391 79.8177Z" fill="#E5E7EB"/>
<path opacity="0.9" d="M99.1262 115.147H98.1459C97.4968 115.147 96.9706 115.674 96.9706 116.325V140.366C96.9706 141.017 97.4968 141.544 98.1459 141.544H99.1262C99.7753 141.544 100.302 141.017 100.302 140.366V116.325C100.302 115.674 99.7753 115.147 99.1262 115.147Z" fill="#E5E7EB"/>
<path opacity="0.9" d="M263.803 2.59702H118.793C107.742 2.59702 98.7823 11.5741 98.7823 22.6479V359.347C98.7823 370.42 107.742 379.397 118.793 379.397H263.803C274.855 379.397 283.814 370.42 283.814 359.347V22.6479C283.814 11.5741 274.855 2.59702 263.803 2.59702Z" fill="white"/>
<path opacity="0.9" d="M197.308 13.8489H175.439C174.342 13.8489 173.453 14.74 173.453 15.8391V17.1145C173.453 18.2136 174.342 19.1046 175.439 19.1046H197.308C198.405 19.1046 199.294 18.2136 199.294 17.1145V15.8391C199.294 14.74 198.405 13.8489 197.308 13.8489Z" fill="#E5E7EB"/>
<path opacity="0.9" d="M206.172 19.4594C207.816 19.4594 209.148 18.1241 209.148 16.4768C209.148 14.8295 207.816 13.4941 206.172 13.4941C204.528 13.4941 203.195 14.8295 203.195 16.4768C203.195 18.1241 204.528 19.4594 206.172 19.4594Z" fill="#E5E7EB"/>
</g>
<path d="M257.695 12.4142H236.514V14.9854C236.513 18.2006 235.237 21.2836 232.968 23.5566C230.698 25.8296 227.621 27.1065 224.412 27.1065H156.881C153.672 27.1065 150.594 25.8296 148.325 23.5566C146.056 21.2836 144.78 18.2006 144.779 14.9854V12.4142H124.906C121.009 12.4142 117.272 13.9653 114.516 16.7265C111.76 19.4876 110.212 23.2325 110.212 27.1373V354.862C110.212 358.767 111.76 362.512 114.516 365.273C117.272 368.034 121.009 369.586 124.906 369.586H257.695C261.593 369.586 265.33 368.034 268.086 365.273C270.841 362.512 272.389 358.767 272.389 354.862V27.1373C272.389 23.2325 270.841 19.4876 268.086 16.7265C265.33 13.9653 261.593 12.4142 257.695 12.4142Z" fill="#ECECF3"/>
<path d="M44.7849 392.49C60.9955 392.49 74.1368 390.264 74.1368 387.518C74.1368 384.771 60.9955 382.545 44.7849 382.545C28.5743 382.545 15.433 384.771 15.433 387.518C15.433 390.264 28.5743 392.49 44.7849 392.49Z" fill="#1B64AA"/>
<path d="M56.9229 379.382C58.1803 378.21 59.3607 376.811 59.72 375.15C60.0793 373.489 59.371 371.452 57.7646 370.84C55.9683 370.151 54.0488 371.396 52.5963 372.656C51.1439 373.916 49.4707 375.355 47.5666 375.088C48.5502 374.197 49.2855 373.064 49.7003 371.802C50.1151 370.54 50.1952 369.191 49.9326 367.888C49.8505 367.352 49.6233 366.849 49.2757 366.433C48.28 365.363 46.4734 365.821 45.2776 366.665C41.4848 369.339 40.4224 374.507 40.4018 379.161C40.0169 377.479 40.3402 375.731 40.33 374.018C40.3197 372.306 39.8527 370.388 38.4054 369.462C37.5007 368.977 36.4847 368.74 35.4594 368.773C33.7554 368.711 31.8667 368.881 30.6914 370.131C29.239 371.673 29.6188 374.291 30.8762 376.003C32.1336 377.716 34.0531 378.786 35.8187 379.968C37.1582 380.868 38.5183 381.917 39.3446 383.342C39.4533 383.532 39.541 383.734 39.6063 383.944H50.297C52.7 382.728 54.9287 381.194 56.9229 379.382Z" fill="#1B64AA"/>
<g opacity="0.4">
<path opacity="0.4" d="M318.216 362.998C327.468 362.998 334.968 361.727 334.968 360.159C334.968 358.591 327.468 357.32 318.216 357.32C308.964 357.32 301.464 358.591 301.464 360.159C301.464 361.727 308.964 362.998 318.216 362.998Z" fill="#1B64AA"/>
<path opacity="0.4" d="M325.14 355.515C325.904 354.891 326.462 354.051 326.741 353.104C326.946 352.142 326.536 350.99 325.622 350.64C324.596 350.249 323.503 350.959 322.671 351.669C321.84 352.378 320.89 353.212 319.802 353.057C320.365 352.548 320.785 351.901 321.022 351.18C321.259 350.458 321.303 349.687 321.152 348.943C321.105 348.638 320.976 348.351 320.777 348.115C320.208 347.503 319.176 347.766 318.498 348.244C316.333 349.787 315.727 352.723 315.712 355.377C315.496 354.42 315.681 353.422 315.676 352.44C315.671 351.458 315.399 350.383 314.572 349.838C314.056 349.563 313.478 349.428 312.894 349.447C311.919 349.411 310.841 349.509 310.169 350.219C309.342 351.108 309.558 352.594 310.276 353.572C310.995 354.549 312.088 355.161 313.099 355.834C313.904 356.317 314.592 356.975 315.111 357.758C315.173 357.867 315.223 357.982 315.26 358.102H321.367C322.736 357.415 324.005 356.545 325.14 355.515Z" fill="#1B64AA"/>
</g>
<g opacity="0.4">
<path opacity="0.4" d="M61.6396 331.099C70.8914 331.099 78.3916 329.828 78.3916 328.26C78.3916 326.692 70.8914 325.421 61.6396 325.421C52.3877 325.421 44.8876 326.692 44.8876 328.26C44.8876 329.828 52.3877 331.099 61.6396 331.099Z" fill="#1B64AA"/>
<path opacity="0.4" d="M68.5683 323.616C69.3338 322.992 69.8907 322.149 70.1644 321.199C70.3697 320.243 69.9642 319.091 69.0456 318.741C68.0191 318.35 66.9259 319.06 66.0996 319.769C65.2733 320.479 64.3135 321.312 63.2306 321.158C63.7912 320.648 64.2102 320 64.4468 319.279C64.6834 318.558 64.7294 317.788 64.5804 317.044C64.5319 316.738 64.4026 316.45 64.2058 316.211C63.6361 315.604 62.6045 315.866 61.9219 316.345C59.756 317.887 59.1504 320.819 59.1401 323.472C58.9194 322.516 59.1042 321.518 59.0991 320.536C59.0939 319.553 58.8271 318.479 58.0007 317.964C57.4844 317.686 56.9035 317.549 56.3173 317.568C55.3473 317.532 54.2644 317.63 53.5972 318.345C52.7709 319.235 52.9864 320.721 53.705 321.698C54.4235 322.675 55.5167 323.282 56.5226 323.961C57.3298 324.441 58.0177 325.099 58.5345 325.884C58.596 325.994 58.6475 326.109 58.6885 326.228H64.7908C66.1615 325.532 67.4321 324.653 68.5683 323.616Z" fill="#1B64AA"/>
</g>
<path d="M148.874 39.6234H122.653V65.8968H148.874V39.6234Z" fill="#D6D8E0"/>
<path d="M223.16 41.5005H168.223V46.5042H223.16V41.5005Z" fill="#D6D8E0"/>
<path d="M258.742 50.2582H168.223V55.262H258.742V50.2582Z" fill="#D6D8E0"/>
<path d="M258.742 59.016H168.223V64.0197H258.742V59.016Z" fill="#D6D8E0"/>
<path d="M149.074 87.7886H122.853V114.062H149.074V87.7886Z" fill="#D6D8E0"/>
<path d="M223.36 89.6656H168.423V94.6694H223.36V89.6656Z" fill="#D6D8E0"/>
<path d="M258.943 98.4235H168.423V103.427H258.943V98.4235Z" fill="#D6D8E0"/>
<path d="M258.943 107.176H168.423V112.18H258.943V107.176Z" fill="#D6D8E0"/>
<path d="M149.274 135.954H123.053V162.227H149.274V135.954Z" fill="#D6D8E0"/>
<path d="M223.565 137.826H168.629V142.829H223.565V137.826Z" fill="#D6D8E0"/>
<path d="M259.148 146.583H168.629V151.587H259.148V146.583Z" fill="#D6D8E0"/>
<path d="M259.148 155.341H168.629V160.345H259.148V155.341Z" fill="#D6D8E0"/>
<path d="M149.475 184.114H123.253V210.387H149.475V184.114Z" fill="#D6D8E0"/>
<path d="M223.765 185.991H168.829V190.995H223.765V185.991Z" fill="#D6D8E0"/>
<path d="M259.348 194.749H168.829V199.752H259.348V194.749Z" fill="#D6D8E0"/>
<path d="M259.348 203.507H168.829V208.51H259.348V203.507Z" fill="#D6D8E0"/>
<path d="M149.68 232.279H123.459V258.552H149.68V232.279Z" fill="#D6D8E0"/>
<path d="M223.966 234.156H169.029V239.16H223.966V234.156Z" fill="#D6D8E0"/>
<path d="M259.548 242.914H169.029V247.918H259.548V242.914Z" fill="#D6D8E0"/>
<path d="M259.548 251.672H169.029V256.675H259.548V251.672Z" fill="#D6D8E0"/>
<path d="M149.88 280.444H123.659V306.718H149.88V280.444Z" fill="#D6D8E0"/>
<path d="M224.166 282.321H169.229V287.325H224.166V282.321Z" fill="#D6D8E0"/>
<path d="M259.748 291.079H169.229V296.083H259.748V291.079Z" fill="#D6D8E0"/>
<path d="M259.748 299.837H169.229V304.841H259.748V299.837Z" fill="#D6D8E0"/>
<path d="M150.08 328.61H123.859V354.883H150.08V328.61Z" fill="#D6D8E0"/>
<path d="M224.366 330.487H169.429V335.49H224.366V330.487Z" fill="#D6D8E0"/>
<path d="M259.949 339.244H169.429V344.248H259.949V339.244Z" fill="#D6D8E0"/>
<path d="M259.949 348.002H169.429V353.006H259.949V348.002Z" fill="#D6D8E0"/>
<path d="M303.045 118.845H79.5566V174.513H303.045V118.845Z" fill="url(#paint1_linear)"/>
<path d="M302.419 120.099H80.8038V173.268H302.419V120.099Z" fill="white"/>
<path d="M149.788 133.547H123.567V159.82H149.788V133.547Z" fill="#F09A24"/>
<g opacity="0.5">
<path opacity="0.5" d="M224.079 135.424H169.142V140.428H224.079V135.424Z" fill="#1B64AA"/>
<path opacity="0.5" d="M259.661 144.182H169.142V149.186H259.661V144.182Z" fill="#1B64AA"/>
<path opacity="0.5" d="M259.661 152.94H169.142V157.943H259.661V152.94Z" fill="#1B64AA"/>
</g>
<path d="M159.195 167.437C157.799 166.053 155.479 165.596 153.801 166.614C152.498 167.401 151.779 168.866 151.122 170.25C150.162 172.307 148.756 174.23 148.325 176.452C147.139 182.576 142.274 187.333 140.324 193.252C139.626 195.366 139.297 197.634 138.194 199.562C137.672 200.407 137.089 201.211 136.449 201.969C133.923 205.16 131.69 208.573 129.777 212.167C128.668 212.383 127.683 213.324 126.738 214.059C125.528 215.002 124.127 215.667 122.632 216.008C122.031 216.079 121.454 216.291 120.949 216.625C120.241 217.217 120.143 218.281 119.568 218.996C119.151 219.464 118.621 219.818 118.029 220.024C118.029 219.844 118.003 219.664 117.998 219.479C117.972 218.528 117.957 217.571 117.957 216.615C119.612 214.662 120.518 212.182 120.512 209.621C120.507 207.059 119.59 204.583 117.926 202.637C117.966 201.148 118.164 199.667 118.516 198.22C118.696 197.515 118.67 196.652 118.101 196.194C117.818 195.973 117.454 195.89 117.151 195.68C116.724 195.318 116.375 194.874 116.125 194.373C115.364 193.294 114.245 192.521 112.968 192.194C111.691 191.867 110.339 192.007 109.155 192.589C107.302 193.566 106.178 195.52 104.536 196.847C103.694 197.526 102.724 198.035 101.882 198.719C100.198 200.192 99.0003 202.143 98.4488 204.314C97.9091 206.476 97.596 208.689 97.5147 210.917C97.427 211.585 97.453 212.263 97.5917 212.923C97.7577 213.475 98.0125 213.996 98.3461 214.465C99.9103 217.016 102.108 219.116 104.726 220.559C104.736 220.691 104.736 220.823 104.726 220.955C104.726 221.161 104.659 221.362 104.613 221.567L104.315 221.485C103.217 221.238 102.031 221.269 101.046 220.719C99.3623 219.772 98.8542 217.463 97.2427 216.404C97.1057 216.315 96.9615 216.238 96.8116 216.173C96.6978 213.248 96.1405 210.357 95.1589 207.6C94.6868 206.284 94.1068 204.941 94.1787 203.537C94.2402 202.236 94.8613 201.038 95.4156 199.86C97.3505 195.798 98.7054 191.488 100.035 187.194C100.887 184.496 101.742 181.796 102.601 179.095C103.437 178.473 104.193 177.751 104.854 176.945C106.224 175.348 107.127 173.403 107.466 171.324C107.629 170.287 107.585 169.228 107.338 168.208C107.09 167.187 106.644 166.226 106.024 165.38C105.75 164.975 105.394 164.634 104.978 164.378C104.562 164.123 104.096 163.959 103.612 163.899C103.186 163.908 102.767 164.004 102.38 164.181C101.992 164.357 101.645 164.611 101.359 164.927C100.508 165.9 99.8527 167.028 99.4291 168.249C98.5874 170.239 97.7354 172.307 97.8175 174.467C97.8842 176.256 98.5514 178.257 97.5096 179.712C94.0965 184.479 91.5201 189.961 88.8153 195.176C88.1317 196.421 87.5449 197.717 87.0601 199.053C86.4062 201.22 86.0961 203.476 86.1414 205.738C86.1157 209.981 86.6957 214.203 87.2705 218.41C87.5323 220.307 87.8659 222.323 88.764 223.964C88.1756 225.997 87.8666 228.1 87.8453 230.217C87.8215 230.706 87.8984 231.194 88.0712 231.652C88.3732 232.184 88.7558 232.666 89.2054 233.081C89.8071 233.766 90.2557 234.572 90.5213 235.445C90.7868 236.317 90.8631 237.237 90.7451 238.142C90.5946 239.846 90.7493 241.563 91.2019 243.212C92.2284 247.779 93.2548 252.34 94.076 256.943C94.271 257.799 94.3367 258.68 94.271 259.555C94.1119 260.8 93.4242 261.983 93.573 263.232C93.7201 263.811 93.8298 264.398 93.9015 264.991C93.868 265.443 93.7641 265.887 93.5936 266.307C92.4234 269.717 89.2773 277.534 89.3132 281.144L90.1344 280.948C89.3081 285.633 87.3732 290.112 86.357 294.782C85.6521 298.184 85.3319 301.655 85.4023 305.129C85.47 306.689 85.4426 308.252 85.3202 309.808C85.1611 311.192 84.807 312.544 84.6119 313.922C84.3912 315.77 84.3089 317.632 84.3656 319.492C84.3122 322.415 84.4838 325.338 84.8788 328.234C85.6641 333.171 84.2886 338.077 83.914 343.06C83.7241 346.546 83.33 350.019 82.7335 353.458C82.4512 354.909 82.0971 356.349 81.9021 357.814C81.3272 362.165 82.1638 366.649 81.2605 370.943C80.8345 372.954 80.075 375.211 81.1938 376.929C81.5479 377.469 82.056 377.891 82.441 378.41C82.6518 378.656 82.7957 378.952 82.8586 379.271C82.9216 379.589 82.9015 379.918 82.8002 380.225C82.5795 380.699 82.0663 381.007 81.938 381.511C81.7327 382.303 82.559 382.951 83.2981 383.29L83.5085 383.373C83.4602 383.644 83.471 383.922 83.5401 384.188C83.6092 384.454 83.735 384.702 83.9088 384.915C84.348 385.33 84.8934 385.615 85.4845 385.738L95.1743 388.68C97.3351 389.338 99.6857 389.986 101.846 389.451C101.895 389.759 102.028 390.048 102.231 390.284C102.671 390.699 103.216 390.984 103.807 391.107L113.425 394.028C115.899 394.779 118.614 395.519 120.99 394.501C121.671 394.22 122.268 393.769 122.725 393.19C123.102 392.634 123.353 392.002 123.459 391.338C123.566 390.674 123.525 389.995 123.341 389.348C123.22 388.691 122.893 388.089 122.407 387.631C121.748 387.172 120.97 386.916 120.169 386.895C119.485 386.875 118.815 386.699 118.208 386.381C118.025 386.262 117.873 386.102 117.762 385.913C118.316 385.365 118.853 384.796 119.373 384.206C118.953 384.062 118.804 383.455 118.763 383.013C118.152 376.461 120.615 370.059 121.549 363.548C122.021 360.282 122.104 356.971 121.796 353.685C121.683 352.445 121.514 351.211 121.462 349.967C121.221 343.487 124.311 337.254 124.203 330.77C124.152 327.735 125.743 324.742 126.518 321.806C127.195 319.204 127.216 316.478 127.231 313.784L127.354 292.565C127.354 289.696 127.354 286.759 126.441 284.049C125.979 282.542 125.853 280.952 126.071 279.39C128.683 278.233 131.157 276.521 133.949 276.819C134.693 274.839 133.811 268.241 133.113 266.241C130.369 258.37 129.836 249.895 131.573 241.742C132.204 238.815 131.337 235.704 132.04 232.788C132.169 232.104 132.429 231.451 132.805 230.865C132.995 230.573 133.257 230.334 133.565 230.171C133.873 230.009 134.217 229.927 134.565 229.934C134.565 228.15 134.529 226.334 134.411 224.524C135.545 223.597 136.512 222.482 137.27 221.228C138.81 218.657 139.687 215.761 140.75 212.964C142.633 208.027 145.205 203.393 147.365 198.565C149.526 193.736 149.736 188.454 151.471 183.456C152.427 180.703 154.402 178.423 156.988 177.089C158.015 176.575 159.108 176.205 159.852 175.361C160.416 174.658 160.762 173.806 160.848 172.908C161.008 171.93 160.942 170.929 160.656 169.98C160.369 169.032 159.87 168.162 159.195 167.437ZM99.1468 379.891C99.3572 379.66 99.5625 379.428 99.7575 379.176C99.1109 379.074 98.3205 378.6 98.3051 377.942C98.3513 377.282 98.4931 376.633 98.7259 376.014C99.0296 374.897 99.0787 373.727 98.8696 372.589C98.7259 371.792 98.459 371.046 98.2948 370.234C98.1382 369.353 98.0354 368.463 97.9869 367.57C97.7101 364.363 97.0836 361.197 96.1187 358.128C95.1897 355.15 96.4626 352.137 96.791 349.036C96.9501 347.565 96.8783 346.048 97.3915 344.665C97.6943 343.842 98.1922 343.122 98.495 342.289C99.1981 340.381 98.7824 338.257 98.3513 336.267C101.39 330.749 102.396 324.166 103.54 317.954C104.183 314.468 104.827 310.983 105.47 307.499C105.752 305.957 106.065 304.332 107.01 303.087C108.009 307.703 108.403 312.429 108.18 317.147C108.062 318.517 108.079 319.895 108.231 321.261C108.467 322.757 109.088 324.172 109.447 325.642C110.248 328.887 109.781 332.297 109.961 335.634C110.027 336.982 110.202 338.329 110.258 339.676C110.51 345.637 108.518 351.432 106.553 357.063C105.347 360.514 105.08 364.438 104.5 368.053C103.956 371.514 103.417 374.98 103.14 378.472C103.058 379.536 102.991 380.632 102.863 381.712C102.532 381.639 102.198 381.585 101.862 381.552C101.178 381.532 100.507 381.356 99.9012 381.038C99.5385 380.742 99.2751 380.342 99.1468 379.891Z" fill="url(#paint2_linear)"/>
<path d="M120.179 386.947C120.98 386.969 121.757 387.223 122.417 387.677C122.902 388.132 123.229 388.73 123.351 389.384C123.535 390.027 123.576 390.703 123.469 391.364C123.363 392.024 123.112 392.653 122.735 393.205C122.278 393.78 121.68 394.226 121 394.501C118.624 395.53 115.909 394.784 113.435 394.038L103.745 391.112C103.155 390.991 102.609 390.708 102.17 390.295C101.903 389.935 101.756 389.501 101.749 389.054C101.742 388.607 101.874 388.168 102.129 387.8C102.65 387.075 103.36 386.508 104.182 386.16C107.199 384.689 110.597 384.35 113.933 384.288C115.165 384.262 116.376 383.995 117.213 384.946C117.654 385.461 117.577 386.006 118.239 386.443C118.839 386.757 119.503 386.929 120.179 386.947Z" fill="#3F3D56"/>
<path d="M101.872 381.604C102.673 381.622 103.45 381.874 104.11 382.329C104.592 382.786 104.919 383.383 105.044 384.036C105.228 384.679 105.269 385.355 105.163 386.016C105.056 386.676 104.805 387.305 104.428 387.857C103.971 388.433 103.374 388.881 102.693 389.158C100.317 390.187 97.6019 389.436 95.1282 388.69L85.4383 385.764C84.8469 385.645 84.3008 385.362 83.8626 384.946C83.5963 384.587 83.4491 384.153 83.4418 383.706C83.4344 383.258 83.5672 382.82 83.8216 382.452C84.3416 381.726 85.0521 381.158 85.8745 380.812C88.8923 379.341 92.2848 379.001 95.6003 378.94C96.827 378.94 98.0433 378.647 98.8799 379.598C99.3213 380.112 99.2443 380.663 99.9064 381.095C100.515 381.411 101.187 381.585 101.872 381.604Z" fill="#3F3D56"/>
<path d="M110.289 276.238C104.58 275.663 98.8378 275.501 93.106 275.754C92.7276 275.75 92.3511 275.809 91.9923 275.929C90.7297 276.443 90.5347 278.099 90.4115 279.457C89.9291 284.944 87.5117 290.061 86.3056 295.445C85.6001 298.826 85.2798 302.277 85.351 305.73C85.418 307.273 85.3906 308.819 85.2689 310.359C85.1098 311.737 84.7557 313.079 84.5606 314.473C84.3399 316.308 84.2575 318.158 84.3143 320.006C84.2613 322.907 84.4329 325.807 84.8275 328.682C85.6128 333.588 84.2373 338.452 83.8626 343.41C83.6725 346.874 83.2783 350.324 82.6822 353.741C82.3999 355.181 82.0458 356.611 81.8507 358.066C81.2759 362.391 82.1125 366.85 81.2092 371.113C80.7832 373.108 80.0236 375.35 81.1425 377.058C81.4966 377.598 82.0047 378.014 82.3896 378.528C82.6001 378.773 82.7438 379.067 82.8067 379.383C82.8697 379.7 82.8498 380.027 82.7489 380.333C82.5282 380.801 82.015 381.11 81.8867 381.609C81.6814 382.396 82.5077 383.044 83.2467 383.378C88.8153 385.893 95.9955 384.118 99.7524 379.289C99.1057 379.187 98.3153 378.719 98.2999 378.066C98.3462 377.409 98.488 376.763 98.7208 376.147C99.0248 375.038 99.074 373.874 98.8645 372.743C98.7208 371.956 98.4539 371.2 98.2897 370.403C98.1331 369.529 98.0302 368.646 97.9817 367.76C97.7049 364.574 97.0784 361.428 96.1135 358.38C95.1846 355.423 96.4574 352.43 96.7859 349.344C96.945 347.889 96.8731 346.377 97.3864 345.004C97.6892 344.186 98.187 343.461 98.4898 342.644C99.193 340.746 98.7772 338.643 98.3461 336.663C101.384 331.176 102.39 324.639 103.535 318.468C104.178 315.006 104.821 311.543 105.465 308.08C105.747 306.538 106.06 304.938 107.004 303.699C108.004 308.285 108.398 312.983 108.175 317.671C108.058 319.022 108.075 320.381 108.226 321.729C108.462 323.215 109.083 324.619 109.442 326.085C110.243 329.304 109.776 332.693 109.956 336.01C110.022 337.347 110.197 338.684 110.253 340.026C110.505 345.945 108.513 351.705 106.548 357.295C105.342 360.725 105.075 364.623 104.495 368.212C103.951 371.653 103.412 375.093 103.135 378.564C102.883 381.753 102.775 385.203 100.794 387.708C102.601 388.885 104.474 390.084 106.589 390.49C109.06 390.876 111.588 390.387 113.738 389.107C115.872 387.825 117.779 386.198 119.384 384.293C118.963 384.149 118.814 383.542 118.773 383.105C118.162 376.6 120.626 370.249 121.56 363.769C122.032 360.524 122.114 357.233 121.806 353.968C121.693 352.738 121.524 351.515 121.473 350.28C121.231 343.842 124.321 337.645 124.213 331.207C124.162 328.193 125.753 325.215 126.528 322.3C127.205 319.728 127.226 317.008 127.241 314.334L127.364 293.249C127.364 290.395 127.364 287.479 126.451 284.785C125.322 281.55 126.61 277.827 126.805 274.407C121.472 276.095 115.861 276.717 110.289 276.238Z" fill="#3F3D56"/>
<path d="M128.591 215.664C130.748 211.243 133.383 207.073 136.449 203.229C137.088 202.477 137.671 201.68 138.194 200.843C139.297 198.93 139.626 196.672 140.324 194.574C142.274 188.691 147.139 183.965 148.325 177.881C148.756 175.675 150.162 173.767 151.122 171.71C151.779 170.332 152.498 168.882 153.801 168.11C155.48 167.082 157.799 167.56 159.195 168.933C159.867 169.65 160.365 170.512 160.651 171.453C160.936 172.394 161.002 173.388 160.843 174.358C160.759 175.252 160.413 176.1 159.847 176.796C159.103 177.634 157.989 178.015 156.983 178.519C154.4 179.834 152.423 182.098 151.466 184.839C149.752 189.807 149.536 195.062 147.36 199.85C145.184 204.638 142.628 209.24 140.745 214.141C139.682 216.923 138.825 219.798 137.265 222.369C135.705 224.941 133.251 227.095 130.305 227.481C130.309 225.623 130.018 223.776 129.443 222.009C128.822 219.968 127.657 217.556 128.591 215.664Z" fill="#A0616A"/>
<path d="M96.8116 219.5C96.9427 215.864 96.3782 212.237 95.1487 208.814C94.6765 207.502 94.0965 206.17 94.1684 204.777C94.23 203.486 94.851 202.293 95.4053 201.125C97.3402 197.089 98.6951 192.805 100.024 188.537L102.591 180.494C103.425 179.876 104.182 179.159 104.844 178.359C106.211 176.774 107.115 174.842 107.456 172.775C107.618 171.743 107.575 170.689 107.327 169.675C107.079 168.661 106.633 167.706 106.014 166.866C105.74 166.463 105.382 166.124 104.966 165.871C104.55 165.618 104.085 165.458 103.602 165.4C103.176 165.408 102.756 165.503 102.368 165.68C101.981 165.857 101.634 166.112 101.349 166.429C100.498 167.394 99.8427 168.515 99.4188 169.73C98.5771 171.705 97.7251 173.762 97.8072 175.901C97.874 177.681 98.5412 179.666 97.4993 181.111C94.0863 185.847 91.5098 191.293 88.8051 196.471C88.1216 197.708 87.5347 198.996 87.0498 200.323C86.3951 202.479 86.085 204.725 86.1311 206.978C86.1055 211.195 86.6854 215.386 87.2602 219.567C87.6195 222.179 88.102 225.028 90.0779 226.766C92.136 224.149 94.1992 221.567 96.8116 219.5Z" fill="#A0616A"/>
<path d="M109.873 221.511C115.755 221.511 120.523 216.733 120.523 210.84C120.523 204.946 115.755 200.169 109.873 200.169C103.992 200.169 99.2238 204.946 99.2238 210.84C99.2238 216.733 103.992 221.511 109.873 221.511Z" fill="#A0616A"/>
<path d="M104.7 222.076C104.443 224.01 103.412 225.733 102.406 227.399C101.795 228.427 101.025 229.523 99.8397 229.636C102.922 231.261 106.162 232.567 109.509 233.534C110.649 233.917 111.843 234.109 113.045 234.105C114.062 234.029 115.058 233.773 115.986 233.349C118.016 232.457 119.818 231.114 121.253 229.421C122.688 227.728 123.72 225.73 124.27 223.578C122.945 223.614 121.621 223.512 120.318 223.275C119.589 223.141 118.804 222.925 118.378 222.323C118.082 221.799 117.943 221.201 117.977 220.6C117.926 218.821 117.926 217.042 117.977 215.262C115.361 215.094 112.736 215.416 110.238 216.214C109.211 216.548 108.185 216.954 107.133 217.217C106.486 217.376 104.705 217.217 104.228 217.592C103.504 218.163 104.89 220.765 104.7 222.076Z" fill="#A0616A"/>
<path d="M109.396 228.561C109.278 227.159 108.722 225.83 107.809 224.761C106.895 223.692 105.669 222.939 104.305 222.606C103.207 222.364 102.021 222.39 101.036 221.845C99.3521 220.904 98.844 218.61 97.2325 217.556C95.6209 216.502 93.3216 217.088 91.9153 218.425C90.5091 219.762 89.7957 221.655 89.2208 223.506C88.3602 226.016 87.8944 228.644 87.8402 231.297C87.8164 231.784 87.8933 232.271 88.0661 232.727C88.3696 233.256 88.7521 233.737 89.2003 234.151C89.8013 234.828 90.2498 235.627 90.5155 236.493C90.7811 237.359 90.8577 238.272 90.74 239.17C90.5896 240.866 90.7443 242.574 91.1968 244.215C92.2233 248.746 93.2498 253.281 94.0709 257.853C94.2633 258.696 94.3291 259.562 94.266 260.424C94.1069 261.659 93.4191 262.836 93.568 264.07C93.715 264.647 93.8247 265.233 93.8964 265.824C93.8629 266.271 93.759 266.71 93.5885 267.125C92.4183 270.519 89.2722 278.284 89.3081 281.869C94.7741 280.465 102.832 280.151 108.472 280.131C110.027 280.109 111.581 280.178 113.127 280.336C116.838 280.732 120.636 281.817 124.234 280.815C127.57 279.884 130.531 277.215 133.985 277.554C134.729 275.585 133.847 269.028 133.149 267.043C130.405 259.227 129.872 250.803 131.609 242.703C132.24 239.792 131.373 236.707 132.076 233.812C132.204 233.13 132.464 232.48 132.841 231.899C133.032 231.608 133.294 231.37 133.602 231.208C133.91 231.046 134.253 230.965 134.601 230.973C134.665 226.324 134.235 221.682 133.318 217.124C132.974 215.504 132.261 213.591 130.634 213.313C129.166 213.067 127.929 214.306 126.754 215.221C125.54 216.155 124.14 216.815 122.648 217.155C122.047 217.224 121.47 217.434 120.964 217.767C120.256 218.353 120.159 219.412 119.584 220.127C118.557 221.408 116.263 221.295 115.534 222.771C115.37 223.211 115.24 223.663 115.144 224.123C114.8 224.998 114.214 225.756 113.456 226.309C112.309 227.383 110.914 228.157 109.396 228.561Z" fill="#1B64AA"/>
<path d="M118.527 199.495C118.706 198.791 118.681 197.953 118.111 197.479C117.829 197.258 117.464 197.176 117.161 196.965C116.735 196.606 116.385 196.163 116.135 195.664C115.367 194.589 114.244 193.823 112.965 193.5C111.686 193.177 110.334 193.319 109.15 193.9C107.297 194.872 106.173 196.816 104.531 198.133C103.689 198.811 102.719 199.315 101.877 199.989C100.195 201.451 98.997 203.392 98.4437 205.553C97.9054 207.704 97.5941 209.905 97.5147 212.12C97.427 212.785 97.453 213.46 97.5917 214.116C97.7593 214.659 98.0142 215.171 98.3461 215.633C100.035 218.204 102.272 220.544 105.07 221.865C107.867 223.187 111.269 223.408 114.031 222.025C114.307 221.908 114.546 221.716 114.718 221.469C114.877 221.094 114.913 220.678 114.821 220.281C114.675 218.711 114.987 217.132 115.719 215.735C116.232 214.707 116.997 213.822 117.413 212.753C117.79 211.56 117.953 210.31 117.895 209.06C117.936 205.836 117.716 202.612 118.527 199.495Z" fill="#2D293D"/>
<path d="M149.68 133.861H123.459V160.134H149.68V133.861Z" fill="#F09A24"/>
<path d="M140.113 156.241C139.734 156.975 139.103 157.548 138.337 157.856C137.885 158.022 137.408 158.112 136.926 158.123C136.405 158.162 135.882 158.097 135.386 157.933C134.726 157.673 134.159 157.219 133.759 156.632C133.365 156.045 133.047 155.408 132.815 154.74C132.659 154.406 132.594 154.037 132.625 153.67C132.826 153.645 133.02 153.581 133.196 153.482C133.372 153.382 133.527 153.249 133.652 153.089C133.725 152.928 133.766 152.754 133.77 152.577C133.775 152.4 133.743 152.224 133.677 152.06C133.647 151.957 133.616 151.86 133.58 151.767C133.503 151.541 133.236 151.114 133.421 150.924C133.605 150.734 134.037 150.739 134.206 150.662C134.708 150.361 135.244 150.121 135.802 149.947C136.308 149.879 136.823 149.912 137.316 150.044C137.384 150.056 137.448 150.08 137.506 150.116C137.571 150.17 137.619 150.242 137.645 150.322C137.788 150.672 137.87 151.058 137.983 151.417C138.082 151.795 138.276 152.141 138.548 152.42C138.782 152.62 139.047 152.779 139.333 152.893L140.021 153.207C140.142 153.255 140.251 153.327 140.344 153.418C140.432 153.542 140.485 153.688 140.498 153.84C140.626 154.661 140.491 155.501 140.113 156.241Z" fill="#A0616A"/>
<path opacity="0.1" d="M137.978 151.433C137.432 152.001 136.713 152.373 135.934 152.489C135.155 152.605 134.36 152.46 133.672 152.076C133.641 151.973 133.611 151.875 133.575 151.783C133.498 151.556 133.231 151.13 133.416 150.939C133.6 150.749 134.031 150.754 134.201 150.677C134.703 150.376 135.239 150.136 135.797 149.962C136.303 149.895 136.818 149.928 137.311 150.06C137.378 150.071 137.443 150.095 137.501 150.132C137.566 150.186 137.614 150.257 137.639 150.338C137.783 150.703 137.865 151.073 137.978 151.433Z" fill="black"/>
<path d="M135.412 152.374C137.379 152.374 138.974 150.776 138.974 148.805C138.974 146.834 137.379 145.236 135.412 145.236C133.445 145.236 131.85 146.834 131.85 148.805C131.85 150.776 133.445 152.374 135.412 152.374Z" fill="#A0616A"/>
<path d="M146.216 160.129H129.453C128.94 158.982 128.478 157.83 127.96 156.683C128.015 156.411 128.118 156.15 128.263 155.912C128.337 155.796 128.438 155.7 128.558 155.633C128.678 155.566 128.813 155.529 128.95 155.526C129.099 155.526 129.269 155.583 129.376 155.475C129.484 155.367 129.448 155.28 129.525 155.208C129.602 155.136 129.787 155.136 129.931 155.146C130.085 155.151 130.238 155.117 130.376 155.048C130.514 154.979 130.632 154.876 130.721 154.75C130.776 154.654 130.843 154.566 130.921 154.488C131.056 154.422 131.203 154.384 131.352 154.374C131.768 154.282 132.014 153.86 132.327 153.598C132.403 153.513 132.501 153.452 132.61 153.421C132.72 153.391 132.835 153.394 132.943 153.428C132.994 153.454 133.037 153.491 133.072 153.536C133.156 153.666 133.213 153.811 133.241 153.963C133.427 154.817 133.9 155.581 134.581 156.128C134.942 156.402 135.361 156.592 135.805 156.682C136.249 156.773 136.708 156.763 137.148 156.653C137.588 156.544 137.998 156.336 138.348 156.047C138.697 155.758 138.978 155.393 139.169 154.981C139.417 154.36 139.559 153.701 139.59 153.032C139.59 152.996 139.59 152.976 139.59 152.945C139.799 152.893 140.016 152.888 140.227 152.929C140.438 152.971 140.638 153.059 140.811 153.187C141.152 153.448 141.516 153.677 141.899 153.87C142.356 154.05 142.926 154.05 143.239 154.385C143.372 154.518 143.465 154.704 143.634 154.786C143.739 154.827 143.85 154.853 143.963 154.863C144.249 154.941 144.514 155.083 144.738 155.279C144.961 155.475 145.136 155.72 145.251 155.994C145.622 156.82 145.865 157.697 145.969 158.596L146.216 160.129Z" fill="#1B64AA"/>
<path d="M132.954 143.015C132.706 143.216 132.495 143.46 132.333 143.735C132.027 144.24 131.6 144.661 131.091 144.958C130.877 145.033 130.682 145.155 130.521 145.313C130.441 145.434 130.391 145.571 130.372 145.714C130.268 146.213 130.215 146.722 130.213 147.232C130.194 147.488 130.236 147.745 130.336 147.982C130.439 148.198 130.634 148.383 130.67 148.62C130.677 148.807 130.656 148.994 130.608 149.175C130.584 149.27 130.589 149.37 130.623 149.462C130.657 149.554 130.718 149.633 130.798 149.69C130.891 149.723 130.987 149.745 131.085 149.756C131.599 149.87 131.773 150.476 131.85 150.975C132.025 150.975 132.102 150.764 132.143 150.6L132.656 148.209C132.718 147.951 132.81 147.648 133.072 147.561C133.251 147.522 133.436 147.522 133.616 147.561C134.324 147.622 134.919 147.072 135.612 146.918C135.835 146.876 136.063 146.862 136.29 146.877C136.834 146.877 137.47 147.129 137.588 147.638C137.588 147.72 137.619 147.823 137.696 147.864C137.775 147.887 137.858 147.887 137.937 147.864C138.281 147.828 138.486 148.219 138.589 148.538L138.948 149.705C139.005 149.88 139.097 150.091 139.287 150.111C139.374 150.111 139.458 150.079 139.523 150.021C139.588 149.963 139.63 149.884 139.641 149.798C139.649 149.623 139.624 149.449 139.569 149.283C139.4 148.522 139.662 147.741 139.821 146.974C139.98 146.208 140.005 145.329 139.472 144.737C139.277 144.527 139.02 144.367 138.84 144.141C138.661 143.915 138.579 143.673 138.404 143.462C137.707 142.849 136.837 142.468 135.915 142.372C134.886 142.281 133.853 142.505 132.954 143.015Z" fill="#3F3D56"/>
<g opacity="0.1">
<path opacity="0.1" d="M139.307 149.556C139.118 149.556 139.025 149.325 138.969 149.15L138.609 147.982C138.507 147.663 138.301 147.273 137.958 147.304C137.879 147.327 137.795 147.327 137.716 147.304C137.639 147.262 137.629 147.165 137.609 147.077C137.491 146.563 136.854 146.342 136.31 146.316C136.083 146.301 135.855 146.316 135.633 146.362C134.94 146.512 134.344 147.062 133.636 147C133.456 146.967 133.272 146.967 133.092 147C132.83 147.093 132.738 147.391 132.676 147.653C132.497 148.45 132.322 149.247 132.163 150.039C132.122 150.204 132.045 150.404 131.871 150.415C131.794 149.9 131.619 149.309 131.106 149.196C131.007 149.187 130.911 149.165 130.819 149.129C130.75 149.092 130.697 149.032 130.67 148.959C130.67 149.031 130.639 149.109 130.629 149.181C130.605 149.275 130.61 149.375 130.644 149.467C130.678 149.559 130.739 149.638 130.819 149.695C130.911 149.728 131.008 149.75 131.106 149.762C131.619 149.875 131.794 150.482 131.871 150.98C132.045 150.98 132.122 150.77 132.163 150.605C132.343 149.808 132.517 149.011 132.676 148.214C132.738 147.957 132.83 147.653 133.092 147.566C133.271 147.527 133.457 147.527 133.636 147.566C134.344 147.627 134.94 147.077 135.633 146.923C135.856 146.881 136.083 146.867 136.31 146.882C136.854 146.882 137.491 147.134 137.609 147.643C137.609 147.725 137.639 147.828 137.716 147.869C137.795 147.892 137.879 147.892 137.958 147.869C138.301 147.833 138.507 148.224 138.609 148.543L138.969 149.71C139.025 149.885 139.118 150.096 139.307 150.116C139.394 150.116 139.478 150.084 139.543 150.026C139.608 149.969 139.65 149.889 139.662 149.803C139.673 149.664 139.655 149.524 139.61 149.391C139.581 149.445 139.537 149.489 139.483 149.518C139.429 149.547 139.368 149.561 139.307 149.556Z" fill="black"/>
<path opacity="0.1" d="M130.67 148.075C130.634 147.838 130.439 147.653 130.336 147.437C130.269 147.291 130.229 147.135 130.218 146.974C130.218 147.062 130.218 147.144 130.218 147.231C130.199 147.488 130.241 147.745 130.341 147.982C130.423 148.157 130.567 148.311 130.639 148.497C130.675 148.359 130.686 148.216 130.67 148.075Z" fill="black"/>
<path opacity="0.1" d="M139.841 146.424C139.637 147.09 139.539 147.784 139.549 148.481C139.615 147.975 139.713 147.474 139.841 146.98C139.927 146.602 139.956 146.214 139.928 145.828C139.912 146.028 139.883 146.227 139.841 146.424Z" fill="black"/>
</g>
<path d="M130.793 160.129H126.795C126.971 159.05 127.287 157.999 127.734 157.002C127.769 156.9 127.827 156.807 127.903 156.73C127.92 156.712 127.939 156.696 127.96 156.684C128.078 156.591 128.242 156.555 128.37 156.468C128.499 156.38 128.514 156.288 128.632 156.252C129.076 156.241 129.519 156.314 129.936 156.468C130.054 156.481 130.17 156.51 130.28 156.555C130.54 156.7 130.735 156.939 130.824 157.223C131.162 158.144 130.906 159.142 130.793 160.129Z" fill="#1B64AA"/>
</g>
<defs>
<linearGradient id="paint0_linear" x1="191.503" y1="381.563" x2="191.503" y2="4.10008e-06" gradientUnits="userSpaceOnUse">
<stop stop-color="#808080" stop-opacity="0.25"/>
<stop offset="0.54" stop-color="#808080" stop-opacity="0.12"/>
<stop offset="1" stop-color="#808080" stop-opacity="0.1"/>
</linearGradient>
<linearGradient id="paint1_linear" x1="83382.6" y1="19010.4" x2="83382.6" y2="12983.8" gradientUnits="userSpaceOnUse">
<stop stop-color="#808080" stop-opacity="0.25"/>
<stop offset="0.54" stop-color="#808080" stop-opacity="0.12"/>
<stop offset="1" stop-color="#808080" stop-opacity="0.1"/>
</linearGradient>
<linearGradient id="paint2_linear" x1="33573.6" y1="140983" x2="46148.1" y2="140983" gradientUnits="userSpaceOnUse">
<stop stop-color="#808080" stop-opacity="0.25"/>
<stop offset="0.54" stop-color="#808080" stop-opacity="0.12"/>
<stop offset="1" stop-color="#808080" stop-opacity="0.1"/>
</linearGradient>
<clipPath id="clip0">
<rect width="349" height="395" fill="white"/>
</clipPath>
</defs>
</svg>
