<svg width="360" height="304" viewBox="0 0 360 304" fill="none" xmlns="http://www.w3.org/2000/svg">
<path d="M231.78 104.932H230.233C229.776 104.932 229.405 105.303 229.405 105.761V130.541C229.405 130.999 229.776 131.37 230.233 131.37H231.78C232.238 131.37 232.608 130.999 232.608 130.541V105.761C232.608 105.303 232.238 104.932 231.78 104.932Z" fill="#3A3768"/>
<path d="M123.922 84.2188H123.781C123.324 84.2188 122.953 84.59 122.953 85.0479V92.0936C122.953 92.5515 123.324 92.9227 123.781 92.9227H123.922C124.38 92.9227 124.75 92.5515 124.75 92.0936V85.0479C124.75 84.59 124.38 84.2188 123.922 84.2188Z" fill="#3A3768"/>
<path d="M124.085 100.157H123.716C123.259 100.157 122.888 100.528 122.888 100.986V114.476C122.888 114.934 123.259 115.305 123.716 115.305H124.085C124.542 115.305 124.913 114.934 124.913 114.476V100.986C124.913 100.528 124.542 100.157 124.085 100.157Z" fill="#3A3768"/>
<path d="M124.02 120.606H123.749C123.292 120.606 122.921 120.977 122.921 121.435V135.056C122.921 135.514 123.292 135.885 123.749 135.885H124.02C124.477 135.885 124.848 135.514 124.848 135.056V121.435C124.848 120.977 124.477 120.606 124.02 120.606Z" fill="#3A3768"/>
<path d="M217.036 55.4567H138.066C130.281 55.4567 123.969 61.777 123.969 69.5734V259.441C123.969 267.238 130.281 273.558 138.066 273.558H217.036C224.822 273.558 231.133 267.238 231.133 259.441V69.5734C231.133 61.777 224.822 55.4567 217.036 55.4567Z" fill="#3A3768"/>
<path d="M216.017 61.1229H203.724V62.6037C203.724 63.5255 203.543 64.4382 203.19 65.2898C202.838 66.1413 202.321 66.915 201.67 67.5666C201.019 68.2182 200.246 68.735 199.396 69.0874C198.545 69.4398 197.634 69.6209 196.713 69.6205H157.619C156.698 69.6209 155.787 69.4398 154.936 69.0874C154.086 68.735 153.313 68.2182 152.662 67.5666C152.011 66.915 151.494 66.1413 151.142 65.2898C150.79 64.4382 150.608 63.5255 150.608 62.6037V61.1229H139.1C136.843 61.1229 134.678 62.0209 133.082 63.6192C131.486 65.2176 130.589 67.3854 130.589 69.6458V259.354C130.589 261.615 131.486 263.783 133.082 265.381C134.678 266.979 136.843 267.877 139.1 267.877H216.017C218.274 267.877 220.439 266.979 222.035 265.381C223.631 263.783 224.528 261.615 224.528 259.354V69.6603C224.529 68.5398 224.311 67.43 223.884 66.3943C223.457 65.3586 222.83 64.4173 222.04 63.6243C221.249 62.8314 220.31 62.2023 219.277 61.7731C218.243 61.3439 217.135 61.1229 216.017 61.1229Z" fill="#1B64AA"/>
<path d="M180.78 61.9702H168.614C167.841 61.9702 167.214 62.5975 167.214 63.3714V63.6103C167.214 64.3842 167.841 65.0115 168.614 65.0115H180.78C181.553 65.0115 182.179 64.3842 182.179 63.6103V63.3714C182.179 62.5975 181.553 61.9702 180.78 61.9702Z" fill="#E6E8EC"/>
<path d="M186.167 65.2178C187.119 65.2178 187.892 64.4446 187.892 63.4908C187.892 62.537 187.119 61.7638 186.167 61.7638C185.215 61.7638 184.442 62.537 184.442 63.4908C184.442 64.4446 185.215 65.2178 186.167 65.2178Z" fill="#E6E8EC"/>
<path d="M142.365 88.9581C141.602 88.7336 140.518 88.368 139.205 87.9082C140.567 86.1269 141.563 84.0926 142.134 81.9233L142.022 81.9668C142.058 81.8328 142.098 81.7024 142.134 81.5685C139.625 82.604 136.844 80.8444 135.076 78.596C133.308 76.3476 132.104 73.5489 130.17 71.4743C129.362 70.6525 128.493 69.8936 127.571 69.2041C126.999 68.7552 126.381 68.2881 125.683 68.2664C124.555 68.2338 123.669 69.3526 122.581 69.6893C121.864 69.8535 121.115 69.826 120.412 69.6096C117.603 68.9543 114.895 67.7487 112.042 67.4373C110.509 67.2441 108.951 67.4216 107.501 67.955C106.055 68.5126 105.404 69.6169 104.247 70.4895C102.992 71.438 100.494 71.4163 99.0153 71.5756C97.2226 71.7818 95.4173 71.8581 93.6137 71.8037C92.5765 71.7098 91.5317 71.7488 90.5043 71.9196C88.3567 72.3975 86.6321 74.1282 85.0232 75.7936C84.5821 76.1739 84.2658 76.6787 84.1157 77.2419C84.0959 77.4006 84.0959 77.5611 84.1157 77.7198C84.0991 78.1527 84.173 78.5843 84.3327 78.987C84.8188 80.4839 85.5125 81.905 86.3935 83.2086C87.0515 84.1644 87.8144 85.0624 88.2013 86.192C88.3789 86.7482 88.4727 87.3278 88.4797 87.9118C88.4593 88.5322 88.3953 89.1505 88.288 89.7619C88.0039 91.4478 87.5372 93.0977 86.8961 94.6823C86.5562 95.5223 86.173 96.3586 86.0826 97.2782C86.0718 97.4615 86.0718 97.6453 86.0826 97.8286C85.9741 100.664 88.7978 102.709 89.3365 105.53C89.3793 105.763 89.4059 105.999 89.4161 106.236C89.3546 107.995 88.3676 109.715 86.9141 110.396C87.0407 110.446 87.1708 110.49 87.301 110.537C87.1761 110.616 87.0469 110.689 86.9141 110.754C87.1781 110.855 87.4492 110.942 87.724 111.022C86.0616 112.48 84.6656 114.218 83.5987 116.156C78.7322 125.399 45.5636 143.531 45.5636 143.531C45.5636 143.531 45.7516 143.636 46.0553 143.817C45.9323 143.893 45.8022 143.98 45.6576 144.078C42.7868 146.019 36.0475 151.681 42.1397 158.821C42.1397 158.821 46.8941 151.2 50.2239 147.959C50.3758 147.815 50.5204 147.681 50.6614 147.554C50.7358 147.668 50.7858 147.797 50.8082 147.931C50.8306 148.066 50.825 148.204 50.7916 148.336L72.604 135.892C72.604 135.892 80.3556 130.381 82.5177 129.136C83.2625 128.709 85.1606 127.521 87.4312 126.996L87.1781 127.108C87.993 126.88 88.8339 126.758 89.68 126.746C93.5414 126.808 97.7209 129.679 99.102 141.051C100.95 156.28 100.093 159.024 99.4997 159.4C99.4262 159.395 99.3535 159.382 99.2828 159.361C99.3004 159.377 99.3198 159.392 99.3406 159.404C99.2597 159.399 99.1796 159.384 99.102 159.361C99.1437 159.4 99.1949 159.429 99.2506 159.442C99.3064 159.456 99.3648 159.456 99.4202 159.44C99.4604 159.452 99.5026 159.456 99.5443 159.451C99.5859 159.446 99.6261 159.432 99.6624 159.411C99.7456 159.411 99.8432 159.411 99.9553 159.411C99.9553 159.549 99.9336 159.694 99.9227 159.835C99.8938 159.835 99.7492 159.918 99.9227 159.929C99.8794 160.787 99.883 161.739 99.9227 162.699C98.0029 162.807 96.0867 162.923 94.4055 163.028L94.5573 162.221L94.626 161.859C96.0975 161.739 97.4967 161.301 97.6594 160.085C98.021 157.42 94.4055 155.997 91.3504 155.82C88.2953 155.642 69.8995 156.888 69.8995 156.888C69.8995 156.888 67.1409 160.508 75.8868 161.634C76.1472 161.772 76.4183 161.924 76.6931 162.083C80.117 164.067 84.7665 167.717 86.9901 169.516L87.301 169.766L86.3031 170.574C91.7264 171.819 96.9399 192.797 99.8215 202.395C102.703 211.993 109.016 211.638 114.244 210.219C119.143 208.883 119.768 194.441 119.826 192.627C119.826 192.504 119.826 192.442 119.826 192.442L128.536 203.344L129.198 204.173C129.454 204.307 129.704 204.433 129.95 204.553C136.548 207.743 143.837 201.631 141.761 194.68C139.668 187.656 136.414 177.275 134.245 172.887C132.437 169.212 130.083 163.112 128.659 159.281C128.843 159.205 129.023 159.118 129.198 159.02C129.198 159.02 129.165 158.85 129.107 158.535L129.198 158.488C129.198 158.488 127.101 147.427 126.985 139.574C126.985 139.436 126.985 139.299 126.985 139.161C126.985 139.024 126.985 138.991 126.985 138.904C128.561 138.542 129.559 138.397 129.559 138.397L129.588 138.057L129.404 138.097L130.279 127.909C130.279 127.909 133.496 120.961 131.034 118.064C130.284 117.214 129.784 116.173 129.588 115.055C129.176 112.391 129.588 107.955 135.326 104.266C144.158 98.5781 147.586 93.9545 147.586 93.9545C147.586 93.9545 147.774 90.5584 142.365 88.9581ZM124.823 96.0255V91.3187C126.461 91.2391 128.135 91.431 129.78 91.3187C130.589 91.2617 131.39 91.1259 132.173 90.9132L132.571 91.192C130.164 93.07 127.567 94.69 124.823 96.0255ZM99.7817 169.817C100.429 170.273 101.08 170.747 101.72 171.222C102.117 173.543 102.468 175.183 102.493 175.295C101.762 173.388 100.855 171.554 99.7817 169.817Z" fill="url(#paint0_linear)"/>
<path d="M113.94 166.844L113.55 168.966L113.249 170.588L112.704 173.557L107.41 177.268C107.41 177.268 106.933 176.859 106.145 176.215C103.976 174.426 99.4165 170.784 96.0686 168.829C95.2074 168.279 94.2758 167.849 93.2991 167.551L113.94 166.844Z" fill="#FFBDC6"/>
<path opacity="0.1" d="M113.94 166.844L113.55 168.966C112.382 169.03 111.211 168.969 110.057 168.785L97.7064 168.963C97.1243 168.926 96.5783 168.883 96.0686 168.829C95.2074 168.279 94.2758 167.849 93.2991 167.551L113.94 166.844Z" fill="black"/>
<path d="M110.057 168.423C110.057 168.423 116.229 169.484 116.59 166.844C116.952 164.205 113.412 162.779 110.415 162.601C107.418 162.424 89.4196 163.662 89.4196 163.662C89.4196 163.662 86.2452 167.902 97.7099 168.611L110.057 168.423Z" fill="#474463"/>
<path opacity="0.1" d="M113.94 166.844L113.55 168.966L113.249 170.588L112.704 173.557L107.41 177.268C107.41 177.268 106.933 176.859 106.145 176.215C103.976 174.426 99.4165 170.784 96.0686 168.829C95.2074 168.279 94.2758 167.849 93.2991 167.551L113.94 166.844Z" fill="black"/>
<path opacity="0.1" d="M113.94 166.844L113.55 168.966C112.382 169.03 111.211 168.969 110.057 168.785L97.7064 168.963C97.1243 168.926 96.5783 168.883 96.0686 168.829C95.2074 168.279 94.2758 167.849 93.2991 167.551L113.94 166.844Z" fill="black"/>
<path opacity="0.1" d="M110.057 168.416C110.057 168.416 116.232 169.473 116.587 166.823C116.941 164.172 113.409 162.76 110.411 162.583C107.414 162.406 89.416 163.644 89.416 163.644C89.416 163.644 86.2416 167.884 97.7064 168.59L110.057 168.416Z" fill="black"/>
<path d="M123.554 81.3259H91.2671V119.664H123.554V81.3259Z" fill="#474463"/>
<path opacity="0.1" d="M123.554 81.4997H91.2671V119.838H123.554V81.4997Z" fill="black"/>
<path d="M53.4273 146.957C52.8958 147.09 52.2161 147.605 51.4605 148.35C48.2065 151.576 43.5461 159.147 43.5461 159.147C37.5878 152.04 44.1824 146.424 46.9917 144.495C47.675 144.027 48.1342 143.77 48.1342 143.77L53.4273 146.957Z" fill="#FFBDC6"/>
<path d="M113.586 93.4259C113.586 93.4259 115.173 104.556 120.643 107.206C126.113 109.856 113.586 114.809 113.586 114.809L96.4735 108.444C96.4735 108.444 106.178 105.262 104.236 95.8988L113.586 93.4259Z" fill="#FFBDC6"/>
<path d="M95.237 160.385L94.8501 162.5L94.5356 164.129L93.9896 167.098L88.6965 170.805C88.6965 170.805 88.2193 170.4 87.4311 169.755C85.2618 167.967 80.7026 164.325 77.351 162.369C76.4903 161.819 75.5585 161.389 74.5815 161.091L95.237 160.385Z" fill="#FFBDC6"/>
<path opacity="0.1" d="M95.237 160.385L94.8502 162.5C93.6828 162.563 92.5121 162.503 91.3576 162.319L79.007 162.496C78.4249 162.46 77.8753 162.416 77.3656 162.362C76.5048 161.812 75.5731 161.382 74.5961 161.084L95.237 160.385Z" fill="black"/>
<path d="M91.3576 161.975C91.3576 161.975 97.5328 163.032 97.8836 160.385C98.2343 157.739 94.7091 156.319 91.7083 156.142C88.7074 155.965 70.7166 157.203 70.7166 157.203C70.7166 157.203 67.5386 161.443 79.007 162.152L91.3576 161.975Z" fill="#474463"/>
<path opacity="0.1" d="M94.5356 164.129L93.9897 167.098L88.6966 170.805C88.6966 170.805 88.2193 170.4 87.4312 169.755L94.4308 164.006L94.5356 164.129Z" fill="black"/>
<path d="M129.494 204.575C129.252 204.455 129.009 204.332 128.771 204.213L128.12 203.391L119.584 192.551C119.584 192.551 119.584 192.616 119.584 192.739C119.526 194.549 118.911 208.894 114.117 210.219C109.001 211.631 102.83 211.986 100.017 202.446C97.2038 192.906 92.0626 172.058 86.7839 170.82L94.6368 164.372C94.6368 164.372 99.8359 170.461 101.955 176.291C101.875 175.929 98.2849 159.129 101.232 156.156H126.992C126.992 156.156 130.969 167.5 133.695 173.119C135.817 177.482 139.003 187.797 141.053 194.777C143.085 201.671 135.951 207.757 129.494 204.575Z" fill="#474463"/>
<path opacity="0.1" d="M128.76 159.325C124.783 161.682 107.324 160.722 101.644 160.338L100.096 160.226C99.9299 160.226 100.122 160.132 100.122 160.132L100.281 158.528L104.514 147.753L127.184 134.589C126.724 135.975 126.573 138.097 126.609 140.526C126.714 148.332 128.76 159.325 128.76 159.325Z" fill="black"/>
<path d="M128.76 158.792C124.783 161.149 107.324 160.19 101.644 159.806L100.096 159.697L99.8395 159.676L100.121 159.603L101.517 159.241L104.514 147.228L127.184 134.067C126.724 135.454 126.573 137.575 126.609 140.005C126.714 147.804 128.76 158.792 128.76 158.792Z" fill="#F2F1F2"/>
<path opacity="0.1" d="M126.594 139.998C121.985 141.062 111.839 144.187 107.942 151.728C105.342 156.75 103.155 158.904 101.629 159.806L100.082 159.697C100.092 159.666 100.1 159.635 100.107 159.603L101.503 159.241L104.5 147.228L127.169 134.067C126.714 135.447 126.558 137.568 126.594 139.998Z" fill="black"/>
<path opacity="0.1" d="M48.1341 143.778L53.4272 146.956C52.8957 147.09 52.216 147.605 51.4603 148.35C51.0192 147.061 48.2498 145.262 46.9916 144.494C47.6749 144.035 48.1341 143.778 48.1341 143.778Z" fill="black"/>
<path opacity="0.1" d="M99.1392 159.904C99.081 159.934 99.0148 159.946 98.9498 159.937C98.8848 159.927 98.8243 159.898 98.7766 159.853C98.8943 159.888 99.0165 159.905 99.1392 159.904Z" fill="black"/>
<path d="M111.116 106.5C111.116 106.5 106.351 107.029 102.999 103.495C102.999 103.495 88.899 107.561 84.1229 116.746C79.3468 125.932 46.8832 143.955 46.8832 143.955C46.8832 143.955 52.5306 147.134 51.9991 148.723L73.3487 136.355C73.3487 136.355 80.9413 130.881 83.0491 129.643C85.1569 128.405 96.8133 120.809 99.2827 141.479C101.752 162.149 99.2827 159.676 99.2827 159.676C99.2827 159.676 102.811 160.914 107.927 151.019C113.043 141.124 128.919 138.828 128.919 138.828L129.801 128.408C129.801 128.408 132.95 121.5 130.524 118.633C129.789 117.784 129.3 116.749 129.111 115.642C128.709 112.995 129.111 108.585 134.729 104.921C143.374 99.2659 146.725 94.675 146.725 94.675C146.725 94.675 146.903 91.3151 141.609 89.7257C136.316 88.1362 114.793 79.4794 114.793 79.4794L114.07 82.4845L131.052 94.4868C131.052 94.4868 122.585 101.366 115.867 101.199C115.867 101.199 117.114 106.322 111.116 106.5Z" fill="#F09A24"/>
<path opacity="0.1" d="M114.385 98.2703C113.967 96.8541 113.641 95.4126 113.408 93.9545L104.059 96.4274C104.471 98.2148 104.397 100.08 103.845 101.829C105.757 102.34 107.777 102.275 109.651 101.642C111.526 101.009 113.172 99.8361 114.385 98.2703Z" fill="black"/>
<path d="M106.619 101.641C112.172 101.641 116.673 97.1331 116.673 91.5722C116.673 86.0113 112.172 81.5033 106.619 81.5033C101.065 81.5033 96.5638 86.0113 96.5638 91.5722C96.5638 97.1331 101.065 101.641 106.619 101.641Z" fill="#FFBDC6"/>
<path opacity="0.1" d="M111.966 68.6719C114.757 68.9869 117.407 70.189 120.155 70.8443C120.841 71.0593 121.573 71.0881 122.274 70.9276C123.34 70.5945 124.208 69.4793 125.314 69.5119C125.994 69.5119 126.598 69.9971 127.158 70.4424C128.058 71.1302 128.904 71.8854 129.689 72.7017C131.584 74.7618 132.759 77.5352 134.487 79.7763C136.215 82.0175 138.941 83.759 141.396 82.7307C139.726 89.2478 134.255 94.2117 128.337 94.6172C125.976 94.7765 123.557 94.2841 121.272 94.9792C120.703 95.2112 120.102 95.3576 119.49 95.4137C118.174 95.4137 117.114 94.2044 116.294 93.0277C114.37 90.2616 112.848 87.1189 110.682 84.5953C109.959 83.7626 109.124 82.9697 108.112 82.8176C107.099 82.6656 106.17 83.1471 105.27 83.6142C103.784 84.3853 102.265 85.1855 101.112 86.5106C99.9588 87.8358 99.232 89.8054 99.7093 91.5795C99.966 92.5426 100.552 93.4115 100.563 94.418C100.584 96.022 99.167 97.1987 98.8886 98.7628C98.8258 99.4197 98.8028 100.08 98.8199 100.74C98.697 102.883 97.2977 104.639 95.8371 105.986C95.2658 106.511 94.6367 107.072 94.4704 107.883C94.3583 108.433 94.4704 109.02 94.3981 109.577C94.1848 110.968 92.8001 111.674 91.5744 111.858C90.1423 112.067 88.6806 111.894 87.337 111.355C89.0508 110.541 90.1065 108.234 89.7088 106.163C89.1629 103.296 86.2849 101.239 86.5308 98.3174C86.6666 97.4222 86.9346 96.5522 87.3262 95.7359C87.9537 94.1604 88.4095 92.5217 88.6856 90.8481C88.9025 89.5519 89.0074 88.1797 88.6025 86.9487C88.2409 85.8227 87.4853 84.9321 86.8453 83.9835C85.977 82.6918 85.292 81.2856 84.8098 79.8053C84.6336 79.3682 84.5666 78.8947 84.6145 78.4258C84.7553 77.8639 85.0644 77.3585 85.5004 76.9776C87.0731 75.323 88.7543 73.5996 90.8621 73.1289C91.8676 72.9587 92.8907 72.9185 93.9064 73.0094C95.6727 73.0668 97.4408 72.9918 99.1959 72.7849C100.642 72.6148 103.086 72.6401 104.312 71.6988C105.454 70.819 106.098 69.7219 107.504 69.1643C108.929 68.6393 110.461 68.4703 111.966 68.6719Z" fill="black"/>
<path opacity="0.1" d="M117.556 172.663C117.556 172.663 123.376 184.147 121.612 187.677L117.556 172.663Z" fill="black"/>
<path opacity="0.1" d="M128.109 203.376L119.584 192.551C119.584 192.551 119.584 192.616 119.584 192.739C119.584 192.739 119.092 189.234 120.715 190.411C124.273 192.989 129.964 197.214 130.087 197.942C130.21 198.67 128.933 201.577 128.109 203.376Z" fill="black"/>
<g opacity="0.1">
<path opacity="0.1" d="M116.055 101.199C116.055 101.199 116.778 104.183 114.45 105.674C118.029 105.062 118.188 102.271 118.065 101.058C117.401 101.165 116.728 101.212 116.055 101.199Z" fill="black"/>
<path opacity="0.1" d="M49.0164 143.245C49.0164 143.245 81.4764 125.226 86.2561 116.04C89.6727 109.447 97.9089 105.493 102.284 103.784C99.0947 104.871 88.3495 108.966 84.3146 116.746C79.5529 125.932 47.0748 143.955 47.0748 143.955L49.0164 143.245Z" fill="black"/>
<path opacity="0.1" d="M122.375 99.7946C127.899 98.0748 133.178 93.7808 133.178 93.7808L116.229 81.7604L116.615 80.1166L114.992 79.4649L114.287 82.47L131.226 94.4832C128.511 96.6205 125.537 98.4051 122.375 99.7946Z" fill="black"/>
<path opacity="0.1" d="M122.473 140.508C124.636 139.769 126.856 139.207 129.111 138.828L129.14 138.488C126.869 138.988 124.64 139.663 122.473 140.508Z" fill="black"/>
<path opacity="0.1" d="M101.944 159.017H101.788C101.73 159.046 101.664 159.058 101.6 159.048C101.535 159.039 101.475 159.011 101.427 158.966C101.544 159 101.666 159.017 101.788 159.017C102.367 158.68 103.235 156.041 101.427 140.769C99.4817 124.476 91.8276 125.747 87.6409 127.622C91.9216 126.442 97.8113 127.463 99.4853 141.475C101.311 156.747 100.44 159.386 99.8468 159.723C100.599 159.695 101.327 159.449 101.944 159.017Z" fill="black"/>
<path opacity="0.1" d="M99.8478 159.727C99.7251 159.727 99.603 159.71 99.4852 159.676C99.5331 159.72 99.5936 159.749 99.6585 159.758C99.7233 159.768 99.7894 159.756 99.8478 159.727Z" fill="black"/>
</g>
<path d="M111.966 68.3171C114.757 68.6357 117.407 69.8341 120.155 70.4895C120.842 70.7033 121.573 70.7308 122.274 70.5691C123.34 70.2396 124.208 69.1209 125.314 69.1535C125.994 69.1752 126.598 69.6386 127.158 70.0839C128.057 70.7727 128.903 71.5279 129.689 72.3432C131.584 74.4033 132.759 77.1767 134.487 79.4179C136.215 81.659 138.941 83.4005 141.396 82.3723C139.726 88.8893 134.255 93.8532 128.337 94.2587C125.976 94.4216 123.557 93.9292 121.272 94.6207C120.703 94.8544 120.102 95.0009 119.49 95.0552C118.174 95.0552 117.114 93.8459 116.294 92.6692C114.37 89.9031 112.848 86.764 110.682 84.2405C109.959 83.4041 109.124 82.6112 108.112 82.4592C107.099 82.3071 106.17 82.7923 105.27 83.2593C103.784 84.0305 102.265 84.827 101.112 86.1558C99.9588 87.4846 99.232 89.4469 99.7093 91.2246C99.966 92.1877 100.552 93.0567 100.563 94.0632C100.584 95.6707 99.167 96.8438 98.8886 98.4079C98.8257 99.0648 98.8028 99.725 98.8199 100.385C98.697 102.528 97.2977 104.281 95.8371 105.631C95.2658 106.152 94.6367 106.717 94.4704 107.525C94.3583 108.079 94.4704 108.661 94.3981 109.223C94.1848 110.613 92.8001 111.319 91.5744 111.5C90.1424 111.712 88.6797 111.539 87.337 110.997C89.0508 110.186 90.1065 107.876 89.7088 105.808C89.1629 102.941 86.2849 100.881 86.5308 97.9626C86.666 97.0672 86.9341 96.1971 87.3262 95.3811C87.9533 93.8042 88.4091 92.1642 88.6856 90.4896C88.9025 89.1971 89.0074 87.8249 88.6024 86.5903C88.2409 85.4679 87.4853 84.5736 86.8453 83.625C85.9777 82.3342 85.2927 80.9293 84.8098 79.4504C84.6346 79.0119 84.5676 78.5374 84.6145 78.0674C84.7595 77.5123 85.0682 77.0139 85.5003 76.6372C87.0731 74.9826 88.7543 73.2628 90.8621 72.7885C91.8679 72.6213 92.8908 72.5824 93.9064 72.6727C95.6727 72.7282 97.4406 72.6532 99.1959 72.4482C100.642 72.278 103.086 72.2998 104.312 71.362C105.454 70.4858 106.098 69.3852 107.504 68.8276C108.928 68.299 110.459 68.1238 111.966 68.3171Z" fill="#474463"/>
<path d="M178.206 187.485C189.402 187.485 198.478 178.397 198.478 167.185C198.478 155.973 189.402 146.884 178.206 146.884C167.01 146.884 157.933 155.973 157.933 167.185C157.933 178.397 167.01 187.485 178.206 187.485Z" fill="white"/>
<path d="M204.841 164.509C204.841 169.876 203.252 175.121 200.275 179.583C197.298 184.045 193.066 187.523 188.115 189.577C183.164 191.63 177.716 192.168 172.461 191.121C167.205 190.074 162.377 187.49 158.588 183.695C154.798 179.9 152.218 175.066 151.172 169.803C150.127 164.539 150.664 159.084 152.714 154.126C154.765 149.168 158.238 144.93 162.694 141.949C167.149 138.968 172.388 137.376 177.746 137.376C184.932 137.376 191.824 140.235 196.905 145.323C201.986 150.412 204.841 157.313 204.841 164.509ZM174.615 178.872L194.714 158.745C194.877 158.583 195.006 158.39 195.094 158.177C195.182 157.965 195.227 157.737 195.227 157.507C195.227 157.277 195.182 157.049 195.094 156.837C195.006 156.624 194.877 156.431 194.714 156.269L192.241 153.81C192.079 153.648 191.887 153.518 191.675 153.43C191.463 153.342 191.236 153.297 191.006 153.297C190.777 153.297 190.55 153.342 190.338 153.43C190.126 153.518 189.934 153.648 189.772 153.81L173.379 170.226L165.725 162.543C165.396 162.216 164.952 162.032 164.488 162.032C164.025 162.032 163.58 162.216 163.252 162.543L160.779 165.034C160.452 165.363 160.269 165.808 160.269 166.272C160.269 166.736 160.452 167.182 160.779 167.511L172.142 178.887C172.305 179.049 172.497 179.179 172.71 179.267C172.922 179.355 173.149 179.4 173.379 179.4C173.609 179.4 173.836 179.355 174.048 179.267C174.26 179.179 174.453 179.049 174.615 178.887V178.872Z" fill="#3ACC6C"/>
<defs>
<linearGradient id="paint0_linear" x1="39159.8" y1="88073" x2="39159.8" y2="31119.7" gradientUnits="userSpaceOnUse">
<stop stop-color="#808080" stop-opacity="0.25"/>
<stop offset="0.54" stop-color="#808080" stop-opacity="0.12"/>
<stop offset="1" stop-color="#808080" stop-opacity="0.1"/>
</linearGradient>
</defs>
</svg>
