<svg width="442" height="368" viewBox="0 0 442 368" fill="none" xmlns="http://www.w3.org/2000/svg">
<g clip-path="url(#clip0)">
<path opacity="0.1" d="M256.804 48.8241C228.468 47.838 201.481 38.6823 175.71 28.6631C149.94 18.644 124.415 7.54225 96.7577 2.23464C78.969 -1.17958 58.6233 -1.6617 44.2934 7.88411C30.4975 17.0881 26.0405 32.932 23.6456 47.6495C21.8418 58.7206 20.7822 70.3745 25.7209 80.7355C29.1534 87.9321 35.2392 93.9804 39.451 100.875C54.105 124.857 43.7461 154.433 27.8706 177.85C20.4276 188.838 11.7806 199.326 6.03198 211.011C0.283363 222.695 -2.37422 236.102 2.65637 248.033C7.63879 259.866 19.5169 268.737 32.3846 274.983C58.5182 287.671 89.3016 291.3 119.341 293.355C185.815 297.909 252.64 295.937 319.29 293.965C343.957 293.233 368.729 292.492 392.993 288.675C406.47 286.553 420.379 283.192 430.165 275.066C442.581 264.753 445.659 247.292 437.336 234.358C423.378 212.667 384.797 207.281 375.029 184.004C369.662 171.188 375.174 156.918 382.98 145.032C399.723 119.541 427.783 97.1755 429.258 68.0385C430.274 48.0264 416.785 27.9838 395.927 18.5125C374.066 8.58974 343.747 9.83447 327.626 26.2657C311.011 43.1834 281.826 49.6919 256.804 48.8241Z" fill="#1B64AA"/>
<path opacity="0.1" d="M211.683 360.317C285.184 360.317 344.768 352.248 344.768 342.295C344.768 332.341 285.184 324.272 211.683 324.272C138.182 324.272 78.598 332.341 78.598 342.295C78.598 352.248 138.182 360.317 211.683 360.317Z" fill="#1B64AA"/>
<path d="M284.309 127.023H282.435C281.882 127.023 281.433 127.473 281.433 128.027V158.023C281.433 158.577 281.882 159.027 282.435 159.027H284.309C284.863 159.027 285.312 158.577 285.312 158.023V128.027C285.312 127.473 284.863 127.023 284.309 127.023Z" fill="#3A3768"/>
<path d="M153.698 101.949H153.527C152.973 101.949 152.524 102.398 152.524 102.953V111.482C152.524 112.036 152.973 112.485 153.527 112.485H153.698C154.252 112.485 154.7 112.036 154.7 111.482V102.953C154.7 102.398 154.252 101.949 153.698 101.949Z" fill="#3A3768"/>
<path d="M153.895 121.242H153.448C152.895 121.242 152.446 121.692 152.446 122.246V138.576C152.446 139.131 152.895 139.58 153.448 139.58H153.895C154.449 139.58 154.897 139.131 154.897 138.576V122.246C154.897 121.692 154.449 121.242 153.895 121.242Z" fill="#3A3768"/>
<path d="M153.816 145.996H153.488C152.934 145.996 152.485 146.446 152.485 147V163.488C152.485 164.043 152.934 164.492 153.488 164.492H153.816C154.37 164.492 154.819 164.043 154.819 163.488V147C154.819 146.446 154.37 145.996 153.816 145.996Z" fill="#3A3768"/>
<path d="M266.455 67.1318H170.825C161.398 67.1318 153.755 74.7827 153.755 84.2205V314.061C153.755 323.498 161.398 331.149 170.825 331.149H266.455C275.883 331.149 283.526 323.498 283.526 314.061V84.2205C283.526 74.7827 275.883 67.1318 266.455 67.1318Z" fill="#3A3768"/>
<path d="M265.22 73.991H250.334V75.7835C250.334 76.8993 250.115 78.0042 249.688 79.035C249.261 80.0659 248.636 81.0024 247.847 81.7912C247.059 82.58 246.123 83.2056 245.093 83.6322C244.063 84.0588 242.959 84.278 241.845 84.2775H194.503C193.388 84.278 192.285 84.0588 191.255 83.6322C190.225 83.2056 189.289 82.58 188.5 81.7912C187.712 81.0024 187.087 80.0659 186.66 79.035C186.233 78.0042 186.014 76.8993 186.014 75.7835V73.991H172.078C169.344 73.991 166.723 75.0779 164.79 77.0128C162.857 78.9476 161.771 81.5719 161.771 84.3081V313.955C161.771 316.692 162.857 319.316 164.79 321.251C166.723 323.186 169.344 324.273 172.078 324.273H265.22C267.954 324.273 270.575 323.186 272.508 321.251C274.441 319.316 275.527 316.692 275.527 313.955V84.3257C275.529 82.9693 275.264 81.6258 274.747 80.3721C274.23 79.1183 273.471 77.9789 272.514 77.019C271.557 76.0591 270.42 75.2976 269.168 74.778C267.917 74.2584 266.575 73.991 265.22 73.991Z" fill="#1B64AA"/>
<path d="M222.55 75.0165H207.817C206.881 75.0165 206.123 75.7759 206.123 76.7126V77.0019C206.123 77.9387 206.881 78.6981 207.817 78.6981H222.55C223.486 78.6981 224.244 77.9387 224.244 77.0019V76.7126C224.244 75.7759 223.486 75.0165 222.55 75.0165Z" fill="#E6E8EC"/>
<path d="M229.073 78.948C230.227 78.948 231.162 78.012 231.162 76.8573C231.162 75.7027 230.227 74.7667 229.073 74.7667C227.92 74.7667 226.985 75.7027 226.985 76.8573C226.985 78.012 227.92 78.948 229.073 78.948Z" fill="#E6E8EC"/>
<path d="M328.455 55.5523C328.455 55.5523 291.59 53.3259 295.933 79.1845C295.933 79.1845 295.058 83.7558 299.208 85.8289C299.208 85.8289 299.274 83.9136 302.991 84.5667C304.315 84.7863 305.659 84.851 306.997 84.7595C308.803 84.6407 310.521 83.9377 311.892 82.7565C311.892 82.7565 322.255 78.4701 326.283 61.5174C326.283 61.5174 329.265 57.8182 329.147 56.8672L322.925 59.5276C322.925 59.5276 325.053 64.02 323.363 67.7541C323.363 67.7541 323.162 59.6897 321.966 59.865C321.726 59.9001 318.735 61.4209 318.735 61.4209C318.735 61.4209 322.391 69.2443 319.633 74.9332C319.633 74.9332 320.679 65.291 317.593 61.9863L313.214 64.5459C313.214 64.5459 317.487 72.6278 314.589 79.224C314.589 79.224 315.333 69.1084 312.291 65.1683L308.324 68.2669C308.324 68.2669 312.339 76.2305 309.891 81.7003C309.891 81.7003 309.572 69.928 307.466 69.0383C307.466 69.0383 303.994 72.1063 303.464 73.3598C303.464 73.3598 306.214 79.1451 304.506 82.1955C304.506 82.1955 303.46 74.3503 302.601 74.3065C302.601 74.3065 299.143 79.5045 298.784 83.0721C298.784 83.0721 298.933 77.7733 301.765 73.8156C301.765 73.8156 298.42 74.3897 296.468 76.5592C296.468 76.5592 297.006 72.8864 302.619 72.5621C302.619 72.5621 305.478 68.6175 306.24 68.3809C306.24 68.3809 300.662 67.9119 297.278 69.4152C297.278 69.4152 300.255 65.9484 307.264 67.5262L311.183 64.3224C311.183 64.3224 303.836 63.3187 300.719 64.4276C300.719 64.4276 304.305 61.3596 312.238 63.5948L316.502 61.044C316.502 61.044 310.237 59.6941 306.507 60.1674C306.507 60.1674 310.447 58.0418 317.755 60.3471L320.819 58.9753C320.819 58.9753 316.231 58.0725 314.887 57.9278C313.543 57.7832 313.473 57.415 313.473 57.415C316.38 56.9298 319.364 57.2621 322.093 58.3749C322.093 58.3749 328.564 55.9599 328.455 55.5523Z" fill="#1B64AA"/>
<path d="M290.64 44.0518C290.64 44.0518 274.003 43.0482 275.947 54.7328C275.947 54.7328 275.557 56.7971 277.427 57.735C277.427 57.735 277.457 56.8585 279.139 57.1609C279.736 57.2615 280.343 57.2909 280.947 57.2486C281.763 57.1945 282.54 56.8743 283.158 56.3369C283.158 56.3369 287.843 54.3997 289.664 46.7385C289.664 46.7385 291.008 45.0687 290.955 44.6391L288.145 45.84C288.145 45.84 289.103 47.8693 288.35 49.5567C288.35 49.5567 288.258 45.9146 287.72 45.9978C287.61 45.9978 286.258 46.7035 286.258 46.7035C286.258 46.7035 287.913 50.2404 286.665 52.8087C286.665 52.8087 287.138 48.4522 285.741 46.9577L283.762 48.1323C283.762 48.1323 285.693 51.7832 284.384 54.7635C284.384 54.7635 284.721 50.1922 283.346 48.4128L281.555 49.8153C281.555 49.8153 283.368 53.4136 282.265 55.8855C282.265 55.8855 282.116 50.5647 281.166 50.1615C281.166 50.1615 279.598 51.5465 279.357 52.1163C279.357 52.1163 280.601 54.746 279.83 56.109C279.83 56.109 279.357 52.5633 278.955 52.5458C278.955 52.5458 277.392 54.895 277.23 56.4903C277.308 55.0028 277.773 53.5616 278.578 52.3091C277.676 52.4801 276.844 52.9112 276.183 53.5494C276.183 53.5494 276.428 51.8884 278.963 51.7437C278.963 51.7437 280.277 49.9599 280.601 49.8503C280.601 49.8503 278.079 49.64 276.551 50.3193C276.551 50.3193 277.895 48.7546 281.061 49.4646L282.812 48.0183C282.812 48.0183 279.489 47.58 278.083 48.0665C278.083 48.0665 279.703 46.6815 283.289 47.6896L285.216 46.5369C285.216 46.5369 282.383 45.9277 280.697 46.1468C280.697 46.1468 282.479 45.187 285.78 46.2257L287.159 45.6078C287.159 45.6078 285.084 45.2001 284.476 45.1344C283.867 45.0687 283.836 44.9021 283.836 44.9021C285.151 44.6832 286.5 44.835 287.733 45.3404C287.733 45.3404 290.693 44.2359 290.64 44.0518Z" fill="#1B64AA"/>
<path opacity="0.1" d="M378.354 340.936C384.865 340.936 390.144 340.043 390.144 338.942C390.144 337.84 384.865 336.948 378.354 336.948C371.842 336.948 366.563 337.84 366.563 338.942C366.563 340.043 371.842 340.936 378.354 340.936Z" fill="#1B64AA"/>
<path opacity="0.1" d="M39.8813 357.302C46.3931 357.302 51.6719 356.409 51.6719 355.307C51.6719 354.206 46.3931 353.313 39.8813 353.313C33.3695 353.313 28.0907 354.206 28.0907 355.307C28.0907 356.409 33.3695 357.302 39.8813 357.302Z" fill="#1B64AA"/>
<path opacity="0.1" d="M85.4894 368C92.0011 368 97.28 367.107 97.28 366.006C97.28 364.904 92.0011 364.012 85.4894 364.012C78.9776 364.012 73.6988 364.904 73.6988 366.006C73.6988 367.107 78.9776 368 85.4894 368Z" fill="#1B64AA"/>
<path d="M352.544 363.293C362.267 363.293 370.149 361.959 370.149 360.313C370.149 358.666 362.267 357.332 352.544 357.332C342.821 357.332 334.939 358.666 334.939 360.313C334.939 361.959 342.821 363.293 352.544 363.293Z" fill="#1B64AA"/>
<path d="M359.825 355.439C360.627 354.782 361.212 353.897 361.502 352.901C361.721 351.898 361.292 350.71 360.328 350.32C359.251 349.908 358.1 350.657 357.229 351.411C356.357 352.165 355.355 353.028 354.212 352.866C354.8 352.334 355.24 351.658 355.49 350.904C355.739 350.151 355.789 349.345 355.635 348.567C355.584 348.244 355.446 347.941 355.237 347.69C354.641 347.05 353.555 347.322 352.842 347.83C350.565 349.43 349.93 352.529 349.917 355.312C349.685 354.308 349.882 353.261 349.873 352.244C349.864 351.227 349.589 350.052 348.717 349.513C348.18 349.225 347.576 349.082 346.966 349.101C345.942 349.062 344.803 349.167 344.103 349.917C343.227 350.846 343.463 352.406 344.217 353.423C344.97 354.44 346.121 355.093 347.181 355.798C348.028 356.304 348.751 356.995 349.295 357.819C349.361 357.934 349.414 358.056 349.453 358.183H355.85C357.292 357.451 358.629 356.528 359.825 355.439Z" fill="#1B64AA"/>
<path d="M86.0979 316.997C86.0979 316.997 88.5059 320.148 84.9902 324.886C81.4745 329.624 78.5761 333.652 79.7363 336.619C79.7363 336.619 85.0428 327.787 89.3685 327.665C93.6941 327.542 90.8483 322.309 86.0979 316.997Z" fill="#1B64AA"/>
<path opacity="0.1" d="M86.098 316.997C86.3079 317.302 86.4731 317.636 86.5883 317.987C90.8002 322.94 93.0462 327.564 88.9963 327.678C85.2267 327.787 80.704 334.537 79.6182 336.242C79.6532 336.373 79.697 336.501 79.7451 336.632C79.7451 336.632 85.0516 327.801 89.3772 327.678C93.7029 327.555 90.8483 322.309 86.098 316.997Z" fill="black"/>
<path d="M90.5681 321.012C90.5681 322.12 90.4455 323.019 90.2922 323.019C90.139 323.019 90.0164 322.12 90.0164 321.012C90.0164 319.903 90.1697 320.424 90.3229 320.424C90.4761 320.424 90.5681 319.903 90.5681 321.012Z" fill="#FFD037"/>
<path d="M92.1048 322.335C91.1329 322.866 90.2835 323.185 90.2134 323.05C90.1434 322.914 90.8658 322.375 91.8378 321.844C92.8097 321.314 92.4288 321.7 92.4989 321.844C92.5689 321.989 93.0768 321.805 92.1048 322.335Z" fill="#FFD037"/>
<path d="M73.3967 316.997C73.3967 316.997 70.9887 320.148 74.5044 324.886C78.0201 329.624 80.9185 333.652 79.7583 336.619C79.7583 336.619 74.4562 327.787 70.1262 327.665C65.7961 327.542 68.6376 322.309 73.3967 316.997Z" fill="#1B64AA"/>
<path opacity="0.1" d="M73.3967 316.997C73.1861 317.302 73.0195 317.636 72.902 317.987C68.6901 322.94 66.4484 327.564 70.4939 327.678C74.268 327.787 78.7907 334.537 79.8765 336.242C79.8406 336.375 79.7967 336.505 79.7451 336.632C79.7451 336.632 74.4431 327.801 70.113 327.678C65.7829 327.555 68.6376 322.309 73.3967 316.997Z" fill="black"/>
<path d="M68.9221 321.012C68.9221 322.12 69.0491 323.019 69.2023 323.019C69.3556 323.019 69.4782 322.12 69.4782 321.012C69.4782 319.903 69.3249 320.424 69.1717 320.424C69.0184 320.424 68.9221 319.903 68.9221 321.012Z" fill="#FFD037"/>
<path d="M67.3897 322.335C68.3617 322.866 69.2067 323.185 69.2811 323.05C69.3556 322.914 68.6244 322.375 67.6524 321.844C66.6805 321.314 67.0657 321.7 66.9913 321.844C66.9169 321.989 66.4178 321.805 67.3897 322.335Z" fill="#FFD037"/>
<path d="M69.6883 336.22C69.6883 336.22 76.4133 336.01 78.4448 334.568C80.4763 333.126 88.7905 331.395 89.2896 333.713C89.7888 336.032 99.399 345.236 91.8071 345.297C84.2153 345.358 74.1628 344.114 72.1401 342.882C70.1174 341.65 69.6883 336.22 69.6883 336.22Z" fill="#A8A8A8"/>
<path opacity="0.2" d="M91.9385 344.49C84.3466 344.552 74.2942 343.307 72.2714 342.076C70.7347 341.133 70.1174 337.763 69.9116 336.211H69.6883C69.6883 336.211 70.1261 341.637 72.1357 342.873C74.1453 344.109 84.2109 345.35 91.8027 345.288C93.9919 345.288 94.7493 344.49 94.7099 343.333C94.4034 344.043 93.5672 344.477 91.9385 344.49Z" fill="black"/>
<path d="M123.567 194.905C123.629 194.965 123.709 195.003 123.795 195.014C123.881 195.025 123.969 195.008 124.044 194.966C123.883 194.968 123.722 194.948 123.567 194.905Z" fill="url(#paint0_linear)"/>
<path d="M176.031 107.686C175.107 107.415 173.794 106.972 172.205 106.415C173.854 104.259 175.059 101.796 175.751 99.1704L175.615 99.223C175.659 99.0608 175.707 98.903 175.751 98.7409C172.713 99.9944 169.346 97.8643 167.205 95.1426C165.064 92.4208 163.606 89.0329 161.263 86.5216C160.285 85.5268 159.233 84.6082 158.115 83.7735C157.424 83.2301 156.675 82.6647 155.83 82.6384C154.464 82.5989 153.391 83.9532 152.074 84.3608C151.205 84.5596 150.299 84.5264 149.447 84.2644C146.045 83.4711 142.765 82.0116 139.311 81.6347C137.454 81.4008 135.569 81.6157 133.812 82.2614C132.061 82.9364 131.273 84.2732 129.871 85.3294C128.352 86.4777 125.327 86.4514 123.536 86.6443C121.365 86.8939 119.179 86.9862 116.995 86.9204C115.739 86.8067 114.474 86.8539 113.23 87.0606C110.629 87.6392 108.541 89.7342 106.592 91.7503C106.058 92.2106 105.675 92.8216 105.493 93.5034C105.469 93.6955 105.469 93.8898 105.493 94.0819C105.473 94.606 105.563 95.1285 105.756 95.6159C106.345 97.428 107.185 99.1483 108.252 100.726C109.049 101.883 109.972 102.97 110.441 104.338C110.656 105.011 110.77 105.713 110.778 106.42C110.753 107.171 110.676 107.919 110.546 108.659C110.202 110.7 109.637 112.697 108.86 114.615C108.449 115.632 107.985 116.645 107.875 117.758C107.862 117.98 107.862 118.202 107.875 118.424C107.744 121.856 111.163 124.332 111.816 127.746C111.867 128.029 111.9 128.314 111.912 128.601C111.838 130.731 110.642 132.813 108.882 133.637C109.035 133.698 109.193 133.751 109.351 133.808C109.199 133.904 109.043 133.992 108.882 134.071C109.202 134.194 109.53 134.299 109.863 134.395C107.85 136.161 106.159 138.264 104.867 140.61C98.9743 151.799 58.8084 173.749 58.8084 173.749C58.8084 173.749 59.0361 173.876 59.4038 174.095C59.255 174.187 59.0974 174.292 58.9222 174.41C55.4459 176.76 47.2849 183.614 54.6622 192.257C54.6622 192.257 60.4196 183.031 64.4519 179.109C64.6358 178.934 64.811 178.771 64.9817 178.618C65.0718 178.756 65.1324 178.912 65.1595 179.075C65.1866 179.238 65.1798 179.405 65.1393 179.565L91.5532 164.501C91.5532 164.501 100.94 157.83 103.558 156.323C104.46 155.805 106.759 154.368 109.508 153.732L109.202 153.868C110.189 153.592 111.207 153.445 112.232 153.43C116.908 153.504 121.969 156.98 123.641 170.746C125.879 189.181 124.841 192.503 124.123 192.959C124.034 192.952 123.946 192.936 123.86 192.91C123.882 192.93 123.905 192.948 123.93 192.963C123.832 192.957 123.735 192.939 123.641 192.91C123.692 192.958 123.754 192.993 123.821 193.009C123.889 193.026 123.959 193.025 124.027 193.007C124.075 193.021 124.126 193.025 124.177 193.019C124.227 193.013 124.276 192.997 124.32 192.972C124.421 192.972 124.539 192.972 124.675 192.972C124.675 193.138 124.648 193.314 124.635 193.485C124.6 193.485 124.425 193.585 124.635 193.598C124.583 194.637 124.587 195.79 124.635 196.951C122.31 197.083 119.99 197.223 117.954 197.35L118.138 196.373L118.221 195.935C120.003 195.79 121.697 195.26 121.894 193.787C122.332 190.561 117.954 188.839 114.254 188.624C110.555 188.409 88.2783 189.917 88.2783 189.917C88.2783 189.917 84.9377 194.3 95.5286 195.663C95.8439 195.829 96.1722 196.013 96.505 196.206C100.651 198.608 106.282 203.026 108.974 205.204L109.351 205.507L108.142 206.484C114.71 207.992 121.023 233.386 124.513 245.005C128.002 256.624 135.646 256.194 141.977 254.476C147.91 252.859 148.667 235.376 148.737 233.18C148.737 233.031 148.737 232.956 148.737 232.956L159.284 246.153L160.086 247.157C160.397 247.319 160.699 247.472 160.996 247.617C168.987 251.478 177.813 244.08 175.3 235.665C172.765 227.162 168.825 214.597 166.198 209.285C164.009 204.836 161.158 197.451 159.433 192.814C159.657 192.722 159.875 192.616 160.086 192.498C160.086 192.498 160.046 192.292 159.976 191.911L160.086 191.854C160.086 191.854 157.546 178.465 157.406 168.958C157.406 168.792 157.406 168.625 157.406 168.459C157.406 168.292 157.406 168.253 157.406 168.147C159.315 167.709 160.524 167.534 160.524 167.534L160.559 167.122L160.335 167.17L161.395 154.837C161.395 154.837 165.291 146.426 162.31 142.92C161.402 141.89 160.796 140.63 160.559 139.278C160.059 136.052 160.559 130.683 167.507 126.217C178.203 119.331 182.353 113.735 182.353 113.735C182.353 113.735 182.581 109.623 176.031 107.686ZM154.788 116.242V110.544C156.771 110.447 158.798 110.68 160.791 110.544C161.77 110.475 162.741 110.31 163.689 110.053L164.171 110.39C161.256 112.664 158.111 114.625 154.788 116.242ZM124.464 205.568C125.248 206.12 126.036 206.694 126.811 207.269C127.293 210.078 127.717 212.063 127.748 212.199C126.863 209.891 125.764 207.671 124.464 205.568Z" fill="url(#paint1_linear)"/>
<path d="M141.61 201.97L141.137 204.538L140.773 206.501L140.112 210.095L133.702 214.588C133.702 214.588 133.125 214.093 132.17 213.312C129.543 211.147 124.022 206.738 119.968 204.371C118.925 203.706 117.797 203.186 116.614 202.824L141.61 201.97Z" fill="#FFBDC6"/>
<path opacity="0.1" d="M141.61 201.97L141.137 204.538C139.723 204.615 138.305 204.541 136.907 204.319L121.951 204.534C121.246 204.49 120.585 204.437 119.968 204.371C118.925 203.706 117.797 203.186 116.614 202.824L141.61 201.97Z" fill="black"/>
<path d="M136.907 203.881C136.907 203.881 144.381 205.165 144.819 201.97C145.257 198.775 140.97 197.048 137.341 196.833C133.711 196.618 111.916 198.117 111.916 198.117C111.916 198.117 108.072 203.249 121.956 204.108L136.907 203.881Z" fill="#474463"/>
<path opacity="0.1" d="M141.61 201.97L141.137 204.538L140.773 206.501L140.112 210.095L133.702 214.588C133.702 214.588 133.125 214.093 132.17 213.312C129.543 211.147 124.022 206.738 119.968 204.371C118.925 203.706 117.797 203.186 116.614 202.824L141.61 201.97Z" fill="black"/>
<path opacity="0.1" d="M141.61 201.97L141.137 204.538C139.723 204.615 138.305 204.541 136.907 204.319L121.951 204.534C121.246 204.49 120.585 204.437 119.968 204.371C118.925 203.706 117.797 203.186 116.614 202.824L141.61 201.97Z" fill="black"/>
<path opacity="0.1" d="M136.907 203.872C136.907 203.872 144.385 205.152 144.814 201.943C145.243 198.735 140.966 197.026 137.336 196.811C133.707 196.596 111.912 198.095 111.912 198.095C111.912 198.095 108.068 203.228 121.951 204.082L136.907 203.872Z" fill="black"/>
<path d="M153.251 98.4471H114.154V144.857H153.251V98.4471Z" fill="#474463"/>
<path opacity="0.1" d="M153.251 98.6576H114.154V145.067H153.251V98.6576Z" fill="black"/>
<path d="M68.3311 177.895C67.6875 178.057 66.8643 178.679 65.9493 179.582C62.0089 183.487 56.3653 192.652 56.3653 192.652C49.15 184.048 57.1359 177.25 60.5378 174.914C61.3653 174.349 61.9213 174.038 61.9213 174.038L68.3311 177.895Z" fill="#FFBDC6"/>
<path d="M141.18 113.094C141.18 113.094 143.102 126.567 149.727 129.776C156.351 132.984 141.18 138.979 141.18 138.979L120.458 131.274C120.458 131.274 132.209 127.422 129.858 116.088L141.18 113.094Z" fill="#FFBDC6"/>
<path d="M118.961 194.151L118.493 196.71L118.112 198.683L117.45 202.276L111.041 206.764C111.041 206.764 110.463 206.274 109.508 205.493C106.881 203.328 101.36 198.919 97.3018 196.552C96.2596 195.886 95.1312 195.366 93.9481 195.005L118.961 194.151Z" fill="#FFBDC6"/>
<path opacity="0.1" d="M118.961 194.151L118.492 196.71C117.079 196.787 115.661 196.714 114.263 196.491L99.307 196.706C98.6021 196.662 97.9366 196.609 97.3193 196.544C96.277 195.877 95.1487 195.357 93.9656 194.997L118.961 194.151Z" fill="black"/>
<path d="M114.263 196.075C114.263 196.075 121.741 197.355 122.166 194.151C122.591 190.947 118.322 189.229 114.688 189.014C111.054 188.799 89.2678 190.298 89.2678 190.298C89.2678 190.298 85.4193 195.43 99.3071 196.289L114.263 196.075Z" fill="#474463"/>
<path opacity="0.1" d="M118.112 198.682L117.45 202.276L111.041 206.764C111.041 206.764 110.463 206.274 109.508 205.493L117.985 198.533L118.112 198.682Z" fill="black"/>
<path d="M160.445 247.643C160.151 247.498 159.858 247.349 159.569 247.205L158.781 246.21L148.444 233.088C148.444 233.088 148.444 233.167 148.444 233.316C148.374 235.507 147.63 252.872 141.824 254.476C135.629 256.185 128.155 256.615 124.749 245.066C121.343 233.517 115.117 208.281 108.725 206.782L118.234 198.976C118.234 198.976 124.53 206.348 127.096 213.404C126.999 212.966 122.652 192.63 126.22 189.031H157.415C157.415 189.031 162.231 202.763 165.532 209.565C168.102 214.846 171.959 227.333 174.442 235.783C176.902 244.128 168.264 251.496 160.445 247.643Z" fill="#474463"/>
<path opacity="0.1" d="M159.556 192.866C154.74 195.72 133.597 194.558 126.719 194.094L124.845 193.958C124.644 193.958 124.876 193.844 124.876 193.844L125.069 191.902L130.195 178.859L157.647 162.923C157.091 164.602 156.907 167.17 156.951 170.111C157.078 179.56 159.556 192.866 159.556 192.866Z" fill="black"/>
<path d="M159.556 192.222C154.74 195.075 133.597 193.914 126.719 193.449L124.845 193.318L124.534 193.292L124.876 193.204L126.566 192.766L130.195 178.223L157.647 162.292C157.091 163.97 156.907 166.539 156.951 169.48C157.078 178.92 159.556 192.222 159.556 192.222Z" fill="#F2F1F2"/>
<path opacity="0.1" d="M156.933 169.471C151.351 170.76 139.066 174.542 134.346 183.671C131.198 189.75 128.549 192.358 126.702 193.449L124.828 193.318C124.84 193.281 124.85 193.243 124.858 193.204L126.548 192.766L130.178 178.223L157.629 162.292C157.078 163.962 156.89 166.53 156.933 169.471Z" fill="black"/>
<path opacity="0.1" d="M61.9213 174.047L68.3311 177.895C67.6875 178.057 66.8644 178.679 65.9493 179.582C65.4152 178.022 62.0614 175.844 60.5378 174.914C61.3653 174.358 61.9213 174.047 61.9213 174.047Z" fill="black"/>
<path opacity="0.1" d="M123.685 193.568C123.615 193.604 123.535 193.618 123.456 193.607C123.378 193.596 123.305 193.561 123.247 193.506C123.389 193.548 123.537 193.569 123.685 193.568Z" fill="black"/>
<path d="M138.19 128.921C138.19 128.921 132.42 129.561 128.361 125.283C128.361 125.283 111.286 130.205 105.502 141.324C99.7186 152.444 60.4065 174.261 60.4065 174.261C60.4065 174.261 67.2453 178.109 66.6017 180.034L92.4551 165.062C92.4551 165.062 101.649 158.435 104.202 156.936C106.754 155.437 120.87 146.242 123.86 171.264C126.851 196.285 123.86 193.292 123.86 193.292C123.86 193.292 128.133 194.791 134.329 182.812C140.524 170.834 159.749 168.055 159.749 168.055L160.817 155.441C160.817 155.441 164.63 147.079 161.692 143.608C160.802 142.58 160.21 141.328 159.981 139.988C159.495 136.784 159.981 131.445 166.784 127.01C177.253 120.164 181.311 114.607 181.311 114.607C181.311 114.607 181.526 110.539 175.116 108.615C168.706 106.691 142.643 96.2119 142.643 96.2119L141.767 99.8497L162.332 114.379C162.332 114.379 152.078 122.706 143.943 122.505C143.943 122.505 145.454 128.706 138.19 128.921Z" fill="#F09A24"/>
<path opacity="0.1" d="M142.148 118.959C141.643 117.244 141.248 115.499 140.966 113.734L129.644 116.728C130.143 118.892 130.054 121.15 129.385 123.267C131.7 123.886 134.146 123.807 136.416 123.04C138.686 122.274 140.68 120.854 142.148 118.959Z" fill="black"/>
<path d="M132.744 123.039C139.468 123.039 144.919 117.582 144.919 110.851C144.919 104.119 139.468 98.6619 132.744 98.6619C126.019 98.6619 120.568 104.119 120.568 110.851C120.568 117.582 126.019 123.039 132.744 123.039Z" fill="#FFBDC6"/>
<path opacity="0.1" d="M139.219 83.1291C142.599 83.5105 145.808 84.9656 149.136 85.7588C149.967 86.0191 150.852 86.0539 151.701 85.8596C152.993 85.4564 154.044 84.1065 155.383 84.146C156.207 84.146 156.938 84.7333 157.616 85.2724C158.706 86.1049 159.73 87.0192 160.681 88.0072C162.975 90.5011 164.398 93.8583 166.491 96.5713C168.584 99.2843 171.885 101.392 174.858 100.148C172.835 108.037 166.211 114.046 159.044 114.537C156.185 114.729 153.256 114.133 150.489 114.975C149.799 115.256 149.072 115.433 148.33 115.501C146.736 115.501 145.454 114.037 144.46 112.612C142.131 109.264 140.287 105.46 137.665 102.405C136.789 101.397 135.778 100.437 134.552 100.253C133.326 100.069 132.201 100.652 131.111 101.217C129.311 102.151 127.472 103.119 126.076 104.723C124.679 106.327 123.799 108.712 124.377 110.859C124.688 112.025 125.397 113.077 125.41 114.295C125.436 116.237 123.72 117.661 123.383 119.555C123.307 120.35 123.279 121.149 123.3 121.948C123.151 124.543 121.457 126.668 119.688 128.299C118.996 128.934 118.234 129.613 118.033 130.595C117.897 131.261 118.033 131.971 117.945 132.646C117.687 134.329 116.01 135.184 114.526 135.408C112.792 135.66 111.022 135.45 109.395 134.798C111.47 133.812 112.748 131.02 112.267 128.513C111.606 125.042 108.12 122.553 108.418 119.016C108.583 117.932 108.907 116.879 109.381 115.891C110.141 113.984 110.693 112 111.028 109.974C111.29 108.405 111.417 106.744 110.927 105.254C110.489 103.891 109.574 102.812 108.799 101.664C107.748 100.101 106.918 98.3983 106.334 96.6064C106.121 96.0773 106.04 95.5041 106.098 94.9365C106.268 94.2562 106.642 93.6445 107.17 93.1834C109.075 91.1804 111.111 89.0942 113.663 88.5244C114.881 88.3184 116.12 88.2698 117.35 88.3798C119.489 88.4492 121.63 88.3584 123.755 88.108C125.506 87.9021 128.466 87.9327 129.95 86.7932C131.334 85.7282 132.113 84.4002 133.816 83.7252C135.542 83.0896 137.396 82.885 139.219 83.1291Z" fill="black"/>
<path opacity="0.1" d="M145.988 209.013C145.988 209.013 153.037 222.915 150.9 227.188L145.988 209.013Z" fill="black"/>
<path opacity="0.1" d="M158.768 246.192L148.444 233.088C148.444 233.088 148.444 233.167 148.444 233.316C148.444 233.316 147.848 229.073 149.814 230.497C154.122 233.618 161.014 238.733 161.163 239.614C161.312 240.495 159.766 244.014 158.768 246.192Z" fill="black"/>
<g opacity="0.1">
<path opacity="0.1" d="M144.171 122.504C144.171 122.504 145.046 126.116 142.227 127.922C146.561 127.181 146.754 123.802 146.605 122.333C145.8 122.463 144.986 122.52 144.171 122.504Z" fill="black"/>
<path opacity="0.1" d="M62.9896 173.402C62.9896 173.402 102.297 151.589 108.085 140.47C112.223 132.489 122.196 127.702 127.494 125.634C123.633 126.949 110.62 131.906 105.734 141.324C99.9682 152.444 60.6385 174.261 60.6385 174.261L62.9896 173.402Z" fill="black"/>
<path opacity="0.1" d="M151.824 120.804C158.514 118.722 164.906 113.524 164.906 113.524L144.381 98.973L144.849 96.9832L142.884 96.1943L142.03 99.8321L162.542 114.374C159.254 116.962 155.653 119.122 151.824 120.804Z" fill="black"/>
<path opacity="0.1" d="M151.942 170.089C154.562 169.194 157.25 168.514 159.981 168.055L160.016 167.643C157.265 168.248 154.566 169.066 151.942 170.089Z" fill="black"/>
<path opacity="0.1" d="M127.083 192.494H126.894C126.824 192.53 126.744 192.543 126.666 192.532C126.587 192.521 126.514 192.487 126.456 192.433C126.599 192.474 126.746 192.495 126.894 192.494C127.595 192.086 128.646 188.891 126.456 170.404C124.101 150.682 114.832 152.22 109.762 154.49C114.946 153.062 122.078 154.298 124.105 171.259C126.316 189.746 125.261 192.941 124.543 193.349C125.454 193.314 126.336 193.018 127.083 192.494Z" fill="black"/>
<path opacity="0.1" d="M124.543 193.353C124.395 193.354 124.248 193.333 124.105 193.292C124.163 193.345 124.236 193.38 124.315 193.391C124.393 193.402 124.473 193.389 124.543 193.353Z" fill="black"/>
</g>
<path d="M139.219 82.6996C142.599 83.0852 145.808 84.536 149.136 85.3293C149.967 85.5881 150.853 85.6214 151.701 85.4257C152.993 85.0268 154.044 83.6725 155.383 83.712C156.207 83.7383 156.938 84.2993 157.616 84.8384C158.705 85.6722 159.729 86.5864 160.681 87.5733C162.975 90.0671 164.398 93.4243 166.491 96.1373C168.584 98.8503 171.885 100.958 174.858 99.7137C172.835 107.603 166.211 113.612 159.044 114.103C156.185 114.3 153.256 113.704 150.489 114.541C149.8 114.824 149.072 115.001 148.33 115.067C146.736 115.067 145.454 113.603 144.46 112.178C142.131 108.83 140.287 105.03 137.665 101.975C136.789 100.963 135.778 100.003 134.552 99.8189C133.326 99.6348 132.201 100.222 131.111 100.788C129.311 101.721 127.472 102.685 126.076 104.294C124.679 105.902 123.799 108.278 124.377 110.43C124.688 111.596 125.397 112.647 125.41 113.866C125.436 115.812 123.72 117.232 123.383 119.125C123.307 119.921 123.279 120.72 123.3 121.518C123.151 124.113 121.457 126.234 119.688 127.869C118.996 128.5 118.234 129.184 118.033 130.161C117.897 130.832 118.033 131.537 117.945 132.217C117.687 133.9 116.01 134.754 114.526 134.974C112.792 135.231 111.02 135.02 109.395 134.364C111.47 133.383 112.748 130.586 112.267 128.084C111.606 124.613 108.12 122.119 108.418 118.586C108.582 117.502 108.907 116.449 109.381 115.461C110.141 113.552 110.693 111.567 111.028 109.54C111.29 107.975 111.417 106.314 110.927 104.82C110.489 103.461 109.574 102.378 108.799 101.23C107.748 99.6676 106.919 97.967 106.334 96.1768C106.122 95.6458 106.041 95.0715 106.098 94.5025C106.273 93.8306 106.647 93.2273 107.17 92.7713C109.075 90.7683 111.111 88.6865 113.663 88.1124C114.881 87.9099 116.12 87.8628 117.35 87.9721C119.489 88.0393 121.63 87.9485 123.755 87.7004C125.506 87.4944 128.466 87.5207 129.95 86.3855C131.334 85.3249 132.113 83.9925 133.816 83.3175C135.541 82.6776 137.395 82.4656 139.219 82.6996Z" fill="#474463"/>
<path d="M219.433 226.956C232.991 226.956 243.981 215.954 243.981 202.382C243.981 188.81 232.991 177.807 219.433 177.807C205.875 177.807 194.884 188.81 194.884 202.382C194.884 215.954 205.875 226.956 219.433 226.956Z" fill="white"/>
<path d="M251.687 199.143C251.687 205.639 249.763 211.989 246.157 217.39C242.552 222.792 237.428 227.001 231.433 229.487C225.437 231.973 218.84 232.624 212.476 231.356C206.111 230.089 200.265 226.961 195.676 222.368C191.087 217.774 187.963 211.922 186.697 205.55C185.431 199.179 186.08 192.575 188.564 186.573C191.047 180.572 195.252 175.442 200.648 171.833C206.044 168.224 212.387 166.298 218.877 166.298C227.578 166.298 235.924 169.758 242.077 175.918C248.23 182.077 251.687 190.432 251.687 199.143ZM215.085 216.529L239.424 192.165C239.621 191.969 239.777 191.735 239.884 191.478C239.99 191.22 240.045 190.945 240.045 190.666C240.045 190.388 239.99 190.112 239.884 189.855C239.777 189.598 239.621 189.364 239.424 189.167L236.429 186.191C236.233 185.994 236 185.838 235.743 185.731C235.487 185.625 235.212 185.57 234.934 185.57C234.656 185.57 234.381 185.625 234.124 185.731C233.868 185.838 233.635 185.994 233.439 186.191L213.588 206.063L204.319 196.763C203.921 196.367 203.383 196.144 202.822 196.144C202.26 196.144 201.722 196.367 201.324 196.763L198.33 199.778C197.934 200.176 197.712 200.715 197.712 201.277C197.712 201.839 197.934 202.378 198.33 202.776L212.09 216.547C212.287 216.744 212.52 216.901 212.777 217.007C213.034 217.114 213.309 217.169 213.588 217.169C213.866 217.169 214.141 217.114 214.398 217.007C214.655 216.901 214.889 216.744 215.085 216.547V216.529Z" fill="#3ACC6C"/>
</g>
<defs>
<linearGradient id="paint0_linear" x1="123.808" y1="195.018" x2="123.808" y2="194.905" gradientUnits="userSpaceOnUse">
<stop stop-color="#808080" stop-opacity="0.25"/>
<stop offset="0.54" stop-color="#808080" stop-opacity="0.12"/>
<stop offset="1" stop-color="#808080" stop-opacity="0.1"/>
</linearGradient>
<linearGradient id="paint1_linear" x1="47424.5" y1="106615" x2="47424.5" y2="37671.2" gradientUnits="userSpaceOnUse">
<stop stop-color="#808080" stop-opacity="0.25"/>
<stop offset="0.54" stop-color="#808080" stop-opacity="0.12"/>
<stop offset="1" stop-color="#808080" stop-opacity="0.1"/>
</linearGradient>
<clipPath id="clip0">
<rect width="442" height="368" fill="white"/>
</clipPath>
</defs>
</svg>
